<mxfile host="Electron" modified="2024-07-14T15:52:40.436Z" agent="Mozilla/5.0 (Windows NT 10.0; Win64; x64) AppleWebKit/537.36 (KHTML, like Gecko) draw.io/24.4.0 Chrome/120.0.6099.109 Electron/28.1.0 Safari/537.36" etag="ky_Gz9gPn10U79SaoFep" version="24.4.0" type="device">
  <diagram name="PÃ¡gina-1" id="jbrbAZz3i-33KvpxLevO">
    <mxGraphModel dx="1419" dy="571" grid="1" gridSize="10" guides="1" tooltips="1" connect="1" arrows="1" fold="1" page="1" pageScale="1" pageWidth="827" pageHeight="1169" math="0" shadow="0">
      <root>
        <mxCell id="0" />
        <mxCell id="1" parent="0" />
        <mxCell id="OlI_2qXUzGhfWNakAulT-37" value="" style="whiteSpace=wrap;html=1;aspect=fixed;rounded=0;sketch=1;hachureGap=4;jiggle=2;curveFitting=1;strokeColor=default;align=center;verticalAlign=middle;fontFamily=Helvetica;fontSize=12;fontColor=default;fillColor=default;movable=1;resizable=1;rotatable=1;deletable=1;editable=1;locked=0;connectable=1;" vertex="1" parent="1">
          <mxGeometry x="180" y="180" width="490" height="490" as="geometry" />
        </mxCell>
        <mxCell id="OlI_2qXUzGhfWNakAulT-1" value="" style="shape=image;verticalLabelPosition=bottom;labelBackgroundColor=default;verticalAlign=top;aspect=fixed;imageAspect=0;image=data:image/png,iVBORw0KGgoAAAANSUhEUgAAAOIAAAEVCAYAAAD98DnCAAAABGdBTUEAALGOfPtRkwAAACBjSFJNAACHDwAAjA8AAP1SAACBQAAAfXkAAOmLAAA85QAAGcxzPIV3AAAKOWlDQ1BQaG90b3Nob3AgSUNDIHByb2ZpbGUAAEjHnZZ3VFTXFofPvXd6oc0wAlKG3rvAANJ7k15FYZgZYCgDDjM0sSGiAhFFRJoiSFDEgNFQJFZEsRAUVLAHJAgoMRhFVCxvRtaLrqy89/Ly++Osb+2z97n77L3PWhcAkqcvl5cGSwGQyhPwgzyc6RGRUXTsAIABHmCAKQBMVka6X7B7CBDJy82FniFyAl8EAfB6WLwCcNPQM4BOB/+fpFnpfIHomAARm7M5GSwRF4g4JUuQLrbPipgalyxmGCVmvihBEcuJOWGRDT77LLKjmNmpPLaIxTmns1PZYu4V8bZMIUfEiK+ICzO5nCwR3xKxRoowlSviN+LYVA4zAwAUSWwXcFiJIjYRMYkfEuQi4uUA4EgJX3HcVyzgZAvEl3JJS8/hcxMSBXQdli7d1NqaQffkZKVwBALDACYrmcln013SUtOZvBwAFu/8WTLi2tJFRbY0tba0NDQzMv2qUP91829K3NtFehn4uWcQrf+L7a/80hoAYMyJarPziy2uCoDOLQDI3fti0zgAgKSobx3Xv7oPTTwviQJBuo2xcVZWlhGXwzISF/QP/U+Hv6GvvmckPu6P8tBdOfFMYYqALq4bKy0lTcinZ6QzWRy64Z+H+B8H/nUeBkGceA6fwxNFhImmjMtLELWbx+YKuGk8Opf3n5r4D8P+pMW5FonS+BFQY4yA1HUqQH7tBygKESDR+8Vd/6NvvvgwIH554SqTi3P/7zf9Z8Gl4iWDm/A5ziUohM4S8jMX98TPEqABAUgCKpAHykAd6ABDYAasgC1wBG7AG/iDEBAJVgMWSASpgA+yQB7YBApBMdgJ9oBqUAcaQTNoBcdBJzgFzoNL4Bq4AW6D+2AUTIBnYBa8BgsQBGEhMkSB5CEVSBPSh8wgBmQPuUG+UBAUCcVCCRAPEkJ50GaoGCqDqqF6qBn6HjoJnYeuQIPQXWgMmoZ+h97BCEyCqbASrAUbwwzYCfaBQ+BVcAK8Bs6FC+AdcCXcAB+FO+Dz8DX4NjwKP4PnEIAQERqiihgiDMQF8UeikHiEj6xHipAKpAFpRbqRPuQmMorMIG9RGBQFRUcZomxRnqhQFAu1BrUeVYKqRh1GdaB6UTdRY6hZ1Ec0Ga2I1kfboL3QEegEdBa6EF2BbkK3oy+ib6Mn0K8xGAwNo42xwnhiIjFJmLWYEsw+TBvmHGYQM46Zw2Kx8lh9rB3WH8vECrCF2CrsUexZ7BB2AvsGR8Sp4Mxw7rgoHA+Xj6vAHcGdwQ3hJnELeCm8Jt4G749n43PwpfhGfDf+On4Cv0CQJmgT7AghhCTCJkIloZVwkfCA8JJIJKoRrYmBRC5xI7GSeIx4mThGfEuSIemRXEjRJCFpB+kQ6RzpLuklmUzWIjuSo8gC8g5yM/kC+RH5jQRFwkjCS4ItsUGiRqJDYkjiuSReUlPSSXK1ZK5kheQJyeuSM1J4KS0pFymm1HqpGqmTUiNSc9IUaVNpf+lU6RLpI9JXpKdksDJaMm4ybJkCmYMyF2TGKQhFneJCYVE2UxopFykTVAxVm+pFTaIWU7+jDlBnZWVkl8mGyWbL1sielh2lITQtmhcthVZKO04bpr1borTEaQlnyfYlrUuGlszLLZVzlOPIFcm1yd2WeydPl3eTT5bfJd8p/1ABpaCnEKiQpbBf4aLCzFLqUtulrKVFS48vvacIK+opBimuVTyo2K84p6Ss5KGUrlSldEFpRpmm7KicpFyufEZ5WoWiYq/CVSlXOavylC5Ld6Kn0CvpvfRZVUVVT1Whar3qgOqCmrZaqFq+WpvaQ3WCOkM9Xr1cvUd9VkNFw08jT6NF454mXpOhmai5V7NPc15LWytca6tWp9aUtpy2l3audov2Ax2yjoPOGp0GnVu6GF2GbrLuPt0berCehV6iXo3edX1Y31Kfq79Pf9AAbWBtwDNoMBgxJBk6GWYathiOGdGMfI3yjTqNnhtrGEcZ7zLuM/5oYmGSYtJoct9UxtTbNN+02/R3Mz0zllmN2S1zsrm7+QbzLvMXy/SXcZbtX3bHgmLhZ7HVosfig6WVJd+y1XLaSsMq1qrWaoRBZQQwShiXrdHWztYbrE9Zv7WxtBHYHLf5zdbQNtn2iO3Ucu3lnOWNy8ft1OyYdvV2o/Z0+1j7A/ajDqoOTIcGh8eO6o5sxybHSSddpySno07PnU2c+c7tzvMuNi7rXM65Iq4erkWuA24ybqFu1W6P3NXcE9xb3Gc9LDzWepzzRHv6eO7yHPFS8mJ5NXvNelt5r/Pu9SH5BPtU+zz21fPl+3b7wX7efrv9HqzQXMFb0ekP/L38d/s/DNAOWBPwYyAmMCCwJvBJkGlQXlBfMCU4JvhI8OsQ55DSkPuhOqHC0J4wybDosOaw+XDX8LLw0QjjiHUR1yIVIrmRXVHYqLCopqi5lW4r96yciLaILoweXqW9KnvVldUKq1NWn46RjGHGnIhFx4bHHol9z/RnNjDn4rziauNmWS6svaxnbEd2OXuaY8cp40zG28WXxU8l2CXsTphOdEisSJzhunCruS+SPJPqkuaT/ZMPJX9KCU9pS8Wlxqae5Mnwknm9acpp2WmD6frphemja2zW7Fkzy/fhN2VAGasyugRU0c9Uv1BHuEU4lmmfWZP5Jiss60S2dDYvuz9HL2d7zmSue+63a1FrWWt78lTzNuWNrXNaV78eWh+3vmeD+oaCDRMbPTYe3kTYlLzpp3yT/LL8V5vDN3cXKBVsLBjf4rGlpVCikF84stV2a9021DbutoHt5turtn8sYhddLTYprih+X8IqufqN6TeV33zaEb9joNSydP9OzE7ezuFdDrsOl0mX5ZaN7/bb3VFOLy8qf7UnZs+VimUVdXsJe4V7Ryt9K7uqNKp2Vr2vTqy+XeNc01arWLu9dn4fe9/Qfsf9rXVKdcV17w5wD9yp96jvaNBqqDiIOZh58EljWGPft4xvm5sUmoqbPhziHRo9HHS4t9mqufmI4pHSFrhF2DJ9NProje9cv+tqNWytb6O1FR8Dx4THnn4f+/3wcZ/jPScYJ1p/0Pyhtp3SXtQBdeR0zHYmdo52RXYNnvQ+2dNt293+o9GPh06pnqo5LXu69AzhTMGZT2dzz86dSz83cz7h/HhPTM/9CxEXbvUG9g5c9Ll4+ZL7pQt9Tn1nL9tdPnXF5srJq4yrndcsr3X0W/S3/2TxU/uA5UDHdavrXTesb3QPLh88M+QwdP6m681Lt7xuXbu94vbgcOjwnZHokdE77DtTd1PuvriXeW/h/sYH6AdFD6UeVjxSfNTws+7PbaOWo6fHXMf6Hwc/vj/OGn/2S8Yv7ycKnpCfVEyqTDZPmU2dmnafvvF05dOJZ+nPFmYKf5X+tfa5zvMffnP8rX82YnbiBf/Fp99LXsq/PPRq2aueuYC5R69TXy/MF72Rf3P4LeNt37vwd5MLWe+x7ys/6H7o/ujz8cGn1E+f/gUDmPP8usTo0wAAAAlwSFlzAAAOxAAADsQBlSsOGwAAP61JREFUeF7tnXmYXVWZrzuMikODDC00goID7YgMIoqKgCAOgCAKAiqKMdoOYNs0EEBURoGEJnMISWpIJalKVaYak1QlqQyEkAakJYjKFYz3kdtgR/CC3dc/6v7ek/rSKzvr7NpV52Tvdcj6nud96tQ6Z5/1rbW+37fWns7+m4GBgUgkUjDewkgkki/ewkgkki/ewkgkki/ewkgkki/ewkgkki/ewkgkki/ewkgkki/ewkgkki/ewkgkki/ewkgkki/ewkgkki/ewkgkki/ewkgkki/ewiyseODhEvfObt9f3CR+KwYCZvGUxq4PyOe9xV5iTzEK/mbQ9JlaaMejE+s7L5Tf+zjt2GNCXcdb9N4ssdX5bGhslZ/1M1uWHyKfveOgzxwrFjrbhMjTasdPE+3Yw9ohtuvDpx0f3sIsUIkcQoSP3DNz6cBN98wbuO7OxiC5/u45Az+btrDUiVPmdF0q3/9WvEbsK0qdqPdW0o6bJzZ7vyMEaMftU1q3taOx6zvye3/xWhKMyrbedd+igRvHN3m3DQF8G3f/Yvz/06wFK94n318v9hOlpKLyz9E2xirkdhDrxIrE+O9NS1cfKd9fJ1492A5LLLkK8SYcuuaO+oEf3DwzeG6dvIAgeEG+v1kcKg4Q+02s77iCAKiVdhAI+Nu0dNVH5P9hev07gtf32dD44a2zBkgYk+o7l8v3IwSzConx1WrHVsbIt11oECvEvhL7v8r3w8XBAkFaci+J0acdH97CLFCROu63BIXrIJC5f3Lv/ELBLwbd9Yv/CeCGhX3flv/vFmSzgybUtff7AoDO9n13ntCOq2+v28k3ZpYZ85f965zFq75Am5JJhLYyq/i+M0/wwfULiA98Vt+fKP5BHD59bs85lPnGjD7wfXee4LPrF+CXZsU/yP/jxTvEYYJVCmIszYw+7fjwFmaBSug4pmpzjE4j21HetKR/oLX7gcKY1tRTyljJQMC/+5uXt8j/M8UJ4ih15jo6222HLWWLbsfsBb0lP1z/AP/UjtamJauu5X33PcvW9IHvO/ME30gabqIgZihX318gPi7eO7mxazxj47aDsQupHfjnJgqnHeeJj4p3CcTIzMgyNRchsl+1gxBxlMB94c8v6yPF2/K1j5Y6yvWRANb+yTL5f7k4WxynpekGN9DZD2Pwf/+H5we/qVh75PH/VWqHm5UH27F8fkf/3bxn5cyeBC9t/6///n+D31Cc4QMxgU8WxE4AXykuEadPbeqe4i6v7TO0IwQjpmmHmyycdrC//kWBGJkZWaayz7iHNvXqJ4m3MAuqhJ3r7UFuy41QRGhGNkNY1nkMdl1b73r5/y/iMnHaxPrOh0yIBDLtCEWEZgQkM0uiHRtautbOxl8r52ATs2hIhhhJbLYb4wTwbQIxXqil6UxXiIwZYxeSEdv4bQnRacfNAjEyM7JMZZ+RWXEvbebVTxJvYRZUyd44YUIkkEPrOGzzr7eUsrENMINdv7DvEfl/u/iuOHdSQ+fDJkTr3NCMxIBfiXY82tqzti1Z/uCjvxrcKhxr73toe0J0AniquElccd/8ZY2uEBkzxi40Y1ZMxor8nyxuEF8WHEA7WrCvuLc28eonibcwC6pkH5woJ8SXXnppoKGhYaC/v3+wZJtR3t3dPfjfrjdfADcs7PuF/J8orhFfmtzQ+fNaFGLDor7NrT3rupPlIQoRn0xoTgA3iDvF92bMXzbfFSLvh7YqwYhxjxDrBIn9W+IT4hhxoNhHm3j1k8RbmAVVsi9OlBPic889NzB69OiBK6+8svTajNfXXXfd4H+73vwBvPIJ+T9d3Cgun9zY+VhtCnHlL9uWrVuRLK8hITaJ8eKf7m9evqCGhUg7xonvC447cNCG0zL7ahOvfpJ4C7NAJTgxlBCnTZtWwiwpRGZI19z/eQ2bNm3aXm7/Z7UUIc4QPxZXSIj/XqNCfFJC7EuW15AQ5wnOw13NEeAaFuLcwXZcJT4j3iPCEuLmzZtLs6ItUV0hUuaK0v3fXt9yyy2lv8CS1l5TnsVShHi/+In4xnCF+PTTT+e6vMaiEMOwMkK0dvyTQIjvFWEJkb+ICjEymw1HiO6ydvz48dvFx/fwXpaZsUwA/1L+j1iI7PtGIQ7PdkMh/p0IS4gYy1MCeDhCdN9jWzDjPT4zlFVbiJYErF15WRRiGFbzQuQvAWzLS6wWhYj/7j5vXlYNIbKCyNJnu8KiENPxFmaBSnAiqxAxdx8PY1/LnV1aW1uDFyLLY/Z787ZKhUhf01+MAa/ztijEdLyFWaASnBiOEDH29VyBMbsgRsoMLEQhIsCsB4mqbZUIkeW07WMDrynL0yoVosUN5L1/7lrNCRFLihAjAJJBQIBblnbfS74u916aVVOIJI2igqASIWKMhYnQNy672ioVIuON35B17HeF1aQQQ7BqCZEAIBsXFQSVCpHVg0veVqkQQ7EoxBFatYTITOgujfO2SoVYtEUhpuMtzAKV4MTuIkRmwyIO0phFIYZhu7UQK9mnqYYQqb/IAwRYFGIYVnNCZF+KpVyl+1SIwHf0NatVQ4ghWBRiGFZzQqxUQGZRiNssCjEMe8UJkdMV7l0VrvEe+2O8l/weyoYzy0YhhmFRiOl4C7NAJTgxEiFyPs5OznIy3w6C8FnOddl7LG3d7wG7TC6rRSGGYVGI6XgLs0AlODFcIXIZGyeVzZgVERezHOW8b+bOiIgVcQ73oEkUYhgWhZiOtzALVIITwxUiYkqeUKbMBJm8DtK+ZyQixKIQw7AoxHS8hVmgEpyolhARme/z9j3MliO56yEKMQyLQkzHW5gFKsGJoYTIDMdrYKmZtjRl/7Dc0pTvQbDDvbolCjEMi0JMx1uYBSrBiaGE6GIicg/WgB2sMbEZiNK+x8RMeTxYE4VYlNWcEDETj8EMZ+aeonCN/yl39xXZ1oz3k9ukWRRiGBaFmI63MAtUghNpQgzBohDDsCjEdLyFWaASnIhCzMeiEMOwKMQRWhRiGBaFmI63MAtUghNRiPlYFGIYFoU4QotCDMOiENPxFmaBSnAiCjEfi0IMw6IQR2hPPfOsL4CjEHO2/o2PD1uIjF1oFrwQecwyD6MM4Sm1rrkBAIMBPKQQQ3vgqu85jz4hhviAT4yHp6YE8E5C5Mm8oTwt2MweuGqPgw9SiDyW2R4ZHYo998cXSh3lPkd/KCECT+YlmENJKrSDAOBpwIl27CREC46QHvJpjx7nacyuj+r7skJkzPgMbQ/FiO0yjyAPR4hu5xHELI+KhE7Dl1snL9juH2QR4jV31Jc6nCzu++48YUZHhMwQFgBOO3YSItBmyugD33fmCbGAL24yzCLEGm1HcUJ0HQOCmA6kU4sm6Rvgc0vX2g3yv6wQgewdSjvwzRUhIExXiMn3ec47y1Tf9+UJPrjJGnxCbFy8chxl7ueAMfR9b94QC8R20rdEO4oR4sT6jk6cdJ0LmZvumVfquI5VG3vk//YHlU6f17OE5WgymEPFArlt2fp18n+exuG/k4kkZBCnkt/L+C5KQly04oEraRNj5NsmRIj9Gc3L/o/Tjh8IE2J+z0ec2bL8NDqPjrX1f6gwwCw369p6n5HvCwWP7v6RuLx91YMXTajr+L/MMqG3g5mOdih5/Kd8XyyaNJs8wDj4Zs6QwDdbbi7oXvuwfOdJu/eIH4qLp8/tWUzbQhcjMULM044lfRtIhrSDR5BfKT4t3i3yE6I4aHbriq8oIz+LU6FT19b3O/ncLRaIKeI6cZn45LyO/tGT6juf8m0XGrMWrPhD99pNvfK7TdSLKVqm9imZ/Jfv8yGhWPnr/M7+zfK5Q8wRdwsC+EJxtsS4yLddaExu7PrLwuXrSSa0o1HcKb4jzhLvFAeJXIS4t3iDeJv4+PyO/jtbutfWtfasa9d+y2otmzbI0Y3ioRAYDFxEyCzSIAgAnnn+eXGq+LA4U5n6+pauNferHYvUjpVqxwPaPph2dKze2C8/accS0SSmCoLgR139D90i/5vk+0L53iPWaJsHk99RJPIT37tEq2A//WYxRnxWfFycoV2HrzZ3rpmktjSrDctYgmvbYMYA5Cft6BQk9fsExxuuELQBTaCNvX3a8eEtzIIq2Uv8rThSnCS+INhZJSjoYKbrFoGjIYAv80WdmCBuFF8XZLATxfvFh8T54nviNsHylWBvFr7vLAraQTKZLPDzWvFd8Y/in8VPBfssswWfDW0c2KeaKUiGV4tLxGmCODpZnC0YG8aIsWLMQmwHMU6sE/PEPhqgDWgCbezl044Pb2EWVMmeYj/xRsGa+EzxFUEg3CoIhEmCJWAIELQMKp12vSALnyc+KI4RZDF2ssloBAazJQHN2n+i8H1nEdAO/LlLsI/Lsu5yQRAwu39ZsEQaK+4Q9wq28X1XERATxMbt4l/E1wTCO0GwpHuXQIyMDWPEWDFmjF2I7SDWiXliHw2gBTSBNvb0aceHtzALqmSUYD9xf0EGOE4wu3xJfEuQIa4R7IeFALMG2ZeZg8A9VzADIsLDxaGCdrxPnC6+KL4pECQBw/a+780ba8f3BbMG+1b0+0fEKQLfCWITJAdCQvEdiAl8+ra4VHxKfECQCBmHIwRjwtgwRowVY0abQ2sHMU6sE/OMARoghtAE2hjl044Pb2EWqESwPEX5B4o3C2YUggGn6EQyNIFCti4SfACWnRzVYtYjAzP4CJCOYylBOwgEshqBQIY7R1wgQmgHWDs4TI7oWAq9R7xd0B5mFNrGfi8zzedESOOALyQKfPuoYJfgKMFRRsaBfSvGhLbQDsaKMaPNbB9SO4hxYp2YJ/bRADGEJtBGLkI0MXLQZr/Zrb3Hzpi/7POzFqy4RK8vr2vr/Ub9wr4x4ltF07R0NUdGybrHCzqMjEvmYvBfJ14lyGD76bNHqh0XzGxZfrHa8dXBdnwz+Z1FIR9pBwHKzE073iIIXI7SHSi/T7+/efkXNQ6Xyv+vaZvRIohxaOlaiwDZH2fmIHnYLEjwvlYwDq8Wr9Pnjx9sx2WhtUP+kfzsuAJJ+63i7wVJBBGiCbTh1Y4Pb2EWqITKJtZ3HHfv7PZVycO7AfLC1KZujtAhwMMEg48IEeBe05q6D9RnaqIdU+Z0sd9H9mXwEeDrJzV0flHvPZ34bHBMqOv4/cyWFSzlWHmwL3WAeI3YR+w1sb7zeH1udXK7wHhB8XKL/GUmJ5HYbG4i3EPkJ0R16lvk1FZOhHOi+Qeek58hwAlYTnbTiZMbuzj4wgxiWXjf6fN6DtJ7j3J1Tcjt4IS4XZgg4XHUrpRQ1KaLaVvoF1ZwiZidCNcs90n5bkIkgPcZTOpbuWIleVlcKLixNKWxi4sRLBluT+qiJELwaceHtzALVCJnZtXSpWF2idvC5etZ2r1JlDpQCeWnBHettINkQTsaFvWx1DtSr3/HFSu+z4YIQpPoNsr3HZZ0asdikrpvm9CwWJrXvprTLszuBwsTI2cUcpsRR8mRrckLq8kY3K5DZxcJgenLqnSe9vs4tM9+CoHwdxLiGvcWI7DZx/fdecIM4rt4nYDVTD5b+yxjaFNyJqTtIVy0Tr8mfbNEor7nIgo7yMGqxNtW4DtoUxH4/AGSt5bZnMclltjf5UJvxMgyO1ch7uCoe/sQt+/4bifJC7ttJTlTEBz3Ny/nWlOOOnK+6u0S4nr3omnawUw/ramn8Ftw2vseKrUDQSbbMbNl+aKmpatv4H33PbsroGlJv/c784RYwBdXYMQMZep797A/uzk7BT4JkbbyXlEQ075dFieWuCqIWEKMzIy5HjXdEyet4+gwHCZwQrmhlptj8dENAjpvdusKLnfjHCGnJj6gZdKDrhCZbQji0G4Mdn0cbEdfc+eae2mjlVuQczNuKGY31NrM6AjRPRH+PjeeDBuLon6/hhiwe1uTviViiVMZHEm184ilWVFf4dVPEm9hFlTJXq5zBDvBEkrwmtGJdJjbeVqacj8iV2xwsvjMSfWdmyzImQ1pV2g/lcHsQjAn2rFxQffaRvy1clYArAZCszI/lWGXhnHxxCnJYLeYCmEsmGCS+6+eWOK87j8IZkVOxeQixL3djqOTQwwA349Hab/q5/KfS8S4POz8SQ2djySDJDTz/XiU2vEYF6cnyxFtaEZCtOW1I0T3YumzKHOFyOfZLgRLxhE4sWR3kDArcm6Ro9ksT/fQpl79JPEWZkGV1MSvuPl//azvcfnPdYtcqnTp5IbOn9eiEBsWrXyCuyyS5SEKEZ/wze1j9T23D5EQuYTtHMpcIYbUlmT/m3+KJW7p4tpTYukiwcl+jqJy0CaXa01rWIgrn5D/228MntzY+ViNCvGXEuKKZHkNCdFuDC6tTCirPSHuEEtcO8ulkVzt9HpRrBB5bBrPQkySfFJwHpYixO0/leH+Zk05IeI7bbBnNuZtZdqR+XdNi/a/jBDdn5j4PGU1KkSLJS605+J7rrjJ7TaoYQmRpwLbA0nztBQhen88yidEHoxqD0glkHk9nGc0VsMqEaL5b2Lkycx52xBC5IBNrQrR/UVAjgCHI8Sk8XjuIgYfKxPAw/qlb0smGAIkqeQ9q4xUiOavmwQRJWOSp+0mQvyqCFeIPDN/OI/brqZVQ4j4TiLhKcY2u9TKjEjC4NHn7hOYbXbM06IQ0/EWZkGVZBIigUBGzjtwzaohRIzn/hPQgS2xMy1NSSL4z1gwE9IGlth5WhRiOt7CLKiSTEJkwG1ZV4RVQ4g2CyJA20eslaUphq+IEQHyF+KMODyraSH69k/ytkqF6GtDEUvtSoRoZqsSSyp5WhRiOt7CLKiSIYVI1iX7FmnVEqI7g9CmWhKiu1tg+7t5WxRiOt7CLKiSIYVYRMAmrVIhYogQMTKTAPtbeVslQmTXwHxnTPJeVmNRiOl4C7OgSjItTYu2aggRoy0c6CgiiLFKhIjvLEXdI6d5WxRiOt7CLKiSTAdrirZqCbFoq0SIIVgUYjrewiyokijEHC0KsViLQqzQqinE5ubmwVf5WxRisRaFWKFVS4jt7e0DY8aMGVi/fv1gSb4WhVisRSFWaNUQ4ssvvzxw1VVXlYQ4duzYga1btw6+k59FIRZrUYgVWjWEWFdXVxKhweyYt0UhFms1K0QOmXP+KnkKg3NyeV5eVakQt2zZsoMIgdnx+efz/TGjSoVo42FkHQPOAydPe4xkDKMQ0/EWZkGVpAqR821cJJ0872aBkJdVKkQE9+STTw709vaWRMhf/q81Idp4WP9zYj/LFTZcBJAU3UjGMAoxHW9hFlRJ1YTIyWZwZ09eG+69c2Rn33WS5corFaIZ4kOI/C3CqiVEGw/6lauFrG/5H8FZn5sNJUT7PPBd7rauRSGm4y3MgiqpWIi8R1a2y6/APs9n3Pe4rIwyXhNA7m08vOd+zrUoxG3mGw/6y5aZ7iV87rW19hnX3DFMjhPb+hJiFGI63sIsqJJMQrQBcgfKBpEBdAXFa+5swPiMvSbLutsx0PxPubsNlrwzIgpxm9l4sHIAu53L+tZmRj7H/8MVos2EfJZtkhaFmI63MAuqJJMQEQWDYyAUBs/e568ZAWICcwcbcwPC3ZZy+04LCne7KMRtZn1Gf1mfUeYTjtvX7mszd2zc15g7Nq5FIabjLcyCKqloaep7f6RCJLvznsH3mEUhbjNff2P011BCTN5Bw7jYSiY5TuXqiUJMx1uYBVVS8T7iUEtTd4DLCdHdBkvWF4W4zcqNB/+T/Gy/zpKh9bX1ry09k59njNz+5/OMa9KiENPxFmZBlVTlYA0CMxhA+3xWIQLbud9jQYNFIW4zt8+SxoyHuGwMkn2N0Ox9/rozJGNk/W64KxKzKMR0vIVZUCWpQsR8g45IXKHwmuyaHDzf51xLfjffAcnPRSH+j/nGw4z3rP8Qk3vKCGN8fKcnLGFS7ut/syjEdLyFWVAlQwoxBItCHNqY/RAaYmRpiRDLCSppyZVLOYtCTMdbmAVVslsJkUvdxo0bV/pbhO1KIZr4gGVo2syZNJapyYM5PotCTMdbmAVVUhNCtIeVpnReJiEWbbtSiHlYmceyRSEO4i3MgirZQYj2XPTQHvDJAybdx14PJUR7UGloRkDyOPFEO3YSIg8q5Qm7IRkPr+VBpTfdM6/kY6VCTO6/5mE1I0QgUEJ65DWPr8ZH9/nnQwnRPkM7QkkqNqsnffQJkcdj838oD/i0R1/ztGMe746PlQqRJfRwls/VsJoSIrMJHc7jlpmJ6MQi6N/4eElI+GdZ2ODxy0MJkYDhc2wfSjuY6dx2lBMi8MhrypiF+A7fd+cBAiQWiAliw/wbqRARHyBEO7iUl4UuxD8lA50gpozAwdGiQFjMDknf6EwF7xr5v4MQb57YvMNngYAuuh345QanweoDIS7ufaCbNiXbyv/0Acty3/fmAXUTCzYTGrYbo77PLESO7HIeNImd79zVFrQQJ9Z3zCUgkh0dKgSmfP5r95pN7fJ/+4NKZ7Ysn5HM2iFjM17Hqo0r5P+8SQ2df3b3g0OH1cb0uT1/xHeBEDM9qDTOiB5Uyb7NnWveJudeRIxkOToxVJjZ6Mj5Hf2/kO9tgsct3yguF5+ZWN/5G8RIkPu2DwWSCe2oa+t9Rn4vEk2tPevaKUOMvm1CgRhBhCTDJX0b1sn3ET26O+4jOqiSfcRB8zr6z5ja1N2DkyEzubHrLwu61z4mn7tFs5gkrhWXiDOXrnzws2pH6Xn0IUM75i5d/Wv5TDtaxWwxUW2bq/ee9W0TEtPn9WyVCDfKZ1YlDeJO8R1xLu9nEWI8auqgSvYWB4i3iY8JZhYe6D9VzBd0dKfoEgRN0eBHh2A2JHh/Jr4nPic+Kk4WpwuEiUAniCaxRITYjoWCQJ4obhPXC/y+WbDcmyUWCD4biu+AL8RGi2BVQgB/XZydVYhFWMhC3Eu8XhwhThTni+8LggIxEiQEMvsBIcAyaI6g08YJgvbLAvEdJ94rPijOEd8WdCyzZp0IrR34M1MgOPzkYMcYMVqwzCMh0sb7RKNgG993FQG+EBuI8HbB/uGF4mNRiCNAlewp9hOH3Ddv2XVaFq0Vm6fO6fqNlnhPT2vq3iJ+L/53CMxasOLR7jUPkSAYfET4DfEZcYJgVj9qdmvvV9WGfvH4lDldv1Y7fqttg2rH/c3Ln2hf+SAzOks6ZsHviss6Vm28dMb8ZSxP8f3JqXO6n5L/z2iboPxvXLxyrfxlv/AW8c+CZPgJcXwU4ghQJaPEvhPqOubgIAdDOJAQKhxQkq9/aVu2brz8ZuZgBv+weIc4bGJ9xzzawQEP3/ahYO2Y276amZpZ8KL2VQ9eIP9/xcEmTnf4tgsBYgQflSz+0NX/0Fj5XjpQJj4gjolCHAGqZNSEuvaf1MphfztJr4B9Xr5/QZwhjhVHaua4jE7miKlv29AgoCXGlzpWb/ya/P/kpIbOf6NttXAayS76mD63h5mRZMjxhXeJo6IQR4AqGSXHnvadCOdkMh1aND6/6My5S1ezD3WaYL/wTQrqDoI7+XkC2/e9eePzi2DWcnu2ZvhSEvF9jqBPflfe+JK0nQdV358nCNx3irck2xGFmAFVghB36DgCxM7XhQDLuGQgUDa7dQUHO1gSnSTeKiGuY+nkfo4E4/vOIkB07vWyQBDMbFm+uGnp6hv4jPsebbZL9EIAX93ZmpihXH3PEeqzBAfL3k5ZFOIwUSV7JDuO/SuuLeQi5aKNC7a5TpQgdi//ovM0k/TI/68IguD9Wq5ucIVoIuSi8aLNLpr2BanasXx+R/9dboDYbMk1qs/98YXBbynOCGCueSUxmI+OEDl9dLE4VRzra2MU4hBQidtxZGH+x+GQjCBwl5103uzWXvZPOORfCoKJ9Z0PmRBt+RqCCF0jqbjBTDvq2nrXtXStud8NENpBMgzlDhiMpIiPtg/uCJHg5WQ+53JPoSwKcZiokr3djiMAyMI+4w7uvC7OTRqCYjnqdl79wr5/k/8cPud84TmTGjofNiFakJhxTaP9HARkuRt9V9hTzzy7QyAMtuORBd1rFyTLuePCZ/hOG7gjP28jkVhCdITIedobBAF8phtP1pYoxCFQJfu4HUcg++7QZ/D55a8sv2uyKyzZgaXOW9jH9ab3iqvFRRLio+WESAIx/4sUorcdi/oeb+1Z15ks9wUvjyLgZzBoD23I+ps01TJ8wje3j9X3nIK5Q5AQP0tZFOIwUSVD/lQGF+YSxARAUEJc1LdZ/k8TpWw8ubHzsTQhcpFx0eZvx8on2patK10f65Yngxfhub89WoSVESIHzTivO6yLvouwmhYig2/LobCEuPIJ+c/lXzeJr7s3BpcTIkkl71nEtTLt+KWE2JssTwYvv1XKOHCxNO0poh1lhMglb5lvgyrSalaIbhYOVIjWeVekCZHgRYiQ/HHdPK1MOzL9eJT5b8tTSyx52hBCHNZPZRRhNSlEW5Lyg7O8NiEWkYnLzSTy3zov86+4IUralXcQY5UK0U0gtlLJ06IQ0/EWZkGVlBUig2xZGAjeomaTagoRoz0s7/K2SoXo+lzECiUKMR1vYRZUyZD7iGZFDLxZpUJ0Zz+bEQOa2TMJkdMVbv+zz5h3MolCTMdbmAVVslsIEb/dmb0W9xFJJu6DepJPVc7DohDT8RZmQZVkFiIzSFFHHCsVIn6XewBLnlaJEM3YZ6ctRVgUYjrewiyoksxCLNIqFWIoVg0hFmlRiOl4C7OgSqIQc7QoxGItCrFCi0IMw6IQ0/EWZkGVRCHmaFGIxVoUYoUWhRiGRSGm4y3MgiqJQszRohCLtSjECi0KMQyLQkzHW5gFVRKFmKNFIRZrUYgVWhRiGBaFmI63MAuqJAoxR4tCLNaiECu0KMQwLAoxHW9hFlRJFGKOFoVYrEUhVmhRiGFYFGI63sIsqJIoxBwtCrFYe8UIccuWLQPPP5//jw9HIYZhUYjpeAuzoEoyCfHll18eqKurGxgzZszAk08+OVian0UhZjOSJMlyV1kUYjrewiyokiGF2N7ePnDVVVeVRAi9vb0lMQ5FNQMiCjGb0e+MEUmT5Flti0JMx1uYBVWSKsTm5ubtAhwu48aNG/yWym13FyJJLZnofJAkrf9JniTRaloUYjrewiyokiFnxPXr1w+MHTt2+wDHGXHkNlIhktSs/4cLybRaFoWYjrcwC6ok0z7i1q1bty9REVnetrsLcSQzIsmTJFpNi0JMx1uYBVWSSYhmHAyIR01HbiMVYlZDjLYkJXlW26IQ0/EWZkGVDEuIRVkUYjbb1YkyCjEdb2EWVMkOQrzpnnmlh4KGZjwrMPmAzyxCDOlBnxhPYXYDYbAdOwmRpzbzhOHQjGdn8iRmt4/V91GIg3gLs6BKdhBiiE/a5Um1PD3XRFam83YQIvDo65CCmaTge/KxT4g8lZf/Q3hst5klEYuVKMSd8RZmQZXsIESwICCIcbxISAiIkNmQ58qndN5OQrz+7jmldvCUW57U6/v+vCCIESHJgWSXaMdOQrT3aDtB7PvOPGFFgn9uEolC3BlvYRZUSUmIBK3rHP8T/LxXJAQug++KECif19H/sPwvK0QgIOho33fnDe1wRQhJISbbSXtoa/K78obHprPb4vqWVYi0u9zj4PO25K4BBCPECXUd69gncZ0LGQuAxb0P9Mn/GYLOu2JaU3ev+5z90LHdgJbutRu712xq5XUy2EOGJKHk97L6PlWINl7MRkUauwYkhGSsByPE6fN6zqOjkrNJiDCozBD3Ny//D/m+UPDE4B+Jr7UtW3+Fksr/9c2goYEIWXFMbep+Ub4vFk2zW1f8grYlVychQsIgZpqWruJhsXPFPeIqcUFSiMCYUF7UMrvcrgEEI0Rx8H3zl42lo3AUx0LElspKHFu7127qld8LxBRxvfiyOLuure9HiDHkdgDtkAj/3LN2E7M6CaVBTFGC+QXv0VbfdiHAqgMf1de/k88dgmfojxPfE5/jvaQQgURv2xaBb9cAaFMIQtxHHCje3tqz7kuzW3vni/76hX0Py7knGhet/I14KhSW9G3YIF97xFIxR4wXLIkuFKeJj7SvevAC+T9D7VipYHmoYVHf42rLr33fVxQLutc+Kl+XiXbBjDJd3C1+snD5+il1bb3r8F3teIwg0TbBjEPT0tVPdqzeuFa+dguSyExxq/im+PSEuvY/18oSm5UTIm3pWktcmRC/InIX4l6Dlb1FnCwuElcLMtxs0SLobFhUMOYHMyEiZDb8sRgtPiVOEicIOvHz4krxM0EHzxdtIqR2tApmk2kCP5nZ8ZmZ5Vpxm5gsmC1ps23n+848MT/wqU6wf4i/l4jTNdPPY0VyzR313uAPCWbJifUdf9U+OgmR4w3EE6urU0SuQtxTvEYcKt4rzhZfF3TsnYJAIFsTzCHAPuFUwT4JnfZdgeg+LN4ljhHHijMEHUpSuV1MFLSDzvZ9b97gBwIkiG8WPxTfEF8SJMOvCUR5kyApknRou++7igBf8OkuQQIhGX5GnLS494GPKrh/hRg5+c8yNTQ4RceS9F7NhoOrE5I08cHxBhLKh8SbxevFnj7t+PAWZkGV7CHYT3yDYFb8gKBDWScTCNcJnGPKDgECk4EncFkKIcKPCUR4hPh7QSY7TnxSXCoQ6zWCdiBe3/fmDX7cIEgU3xII8NPi4+JUge9fEIiTpTdtpu2+7yoC+nKs4AANSeNcwYrqneIdiPG++csaJzd0biHYQ4NZUPvjz2lXZ6P8ZYndLEjWTED0Ozp4k3ityEWIowTL0/3EweJocbxgf4vOJTtfJlg3AwItCupnliNozxdnCQb/HwQCJJnsL2gHSeX9gqAmsdC5iJLtQ2kHmZdEwiqE5TT+0hZm9fcJsvKZgrZeLELxHYgJYuM8werjRPE2cbgggGkHCZLP3ihYWXGaY4noFF0CARQF9eMHB5vYRZgl7hAkbeKF/meViC728GnHh7cwC6oEITIrctAG9R8kmFkIBgKD/S6WfQRKCLB2R3zsCzILMvu9UbCWp9NeJVhqcwCKoHiHoFPJcAQ22/u+N2/wA39ox3vEWwX+HjLIYYK20UYS4wdFSOOAL8SGJY8jBX6TCIkh/qdtnxMEN8tvxMg+JfvFHKBCmEWCH+x/s8zmQBmrJhIMyZu4oR2sFkf5tOPDW5gFVVIS45TGrjdoyq4Tf3Kn8NDQkuLBWQtWMLMRpAQunfU6gQCZ2feaUNf+E3326eS2ITGhruOJGc3Lvi1/rR2lIJ42t/tD8n+Jb5uQ0JKzbe7S1QQs+1EkDRIfifzVgvE4ZOHy9SfWtfWO1RJwgcasc9tRbI4G924QG4ukcfHKNe0rHyQpsP99i2AX4XLBQT+SC2PC/uHeIh8hTqzvPECd+wg71xx29u3chgAnurkqgkCY1tTNfhNLB5ajzIBkrj2tHZyz8n1HKNgJ7smNXZx+oR0HTp/b82GV/YmDCLTVt10IcKBj8HzgCwpoZmqbCVmRMA6vklC/xfu00c4/hoSdz5w2t+fxzv6HmAlZQpcONgl2z0gsJBUOZuYjRDk0i+AN/WoUYzCIX2xbto6jo2Tjkhg1W15RK4fNwa5O0czCvtThev27WrnUkFjhooNJDZ0r5DuzIrsHJTFKhGfSLsYp5JgiqRAvU5u6N8nvcwRLbnYFiClmQ3bX2HXzaseHtzALVKRO+63vBCyZj5mlSPAreTWEnYRtWNT3j/Kf/SsC4WAt6foZfPezwOzi++688V3VQWaeMX/Zv85ZvOqLtMnXVvrA9315QiwkRUW/4rP6nv1vjpZykIZdnJ/XSkJBjLRhfmf/d+Q7++wcG2GFwvK6tCwVXu348BZmgYpwBIfMOWYUu5yMu/WLhOsD8YNAMP8A/9j3kP8c5uegwNFcvE7Q2GcIHJYhbM/Fvr7vzwtrh91Ua+Cf2tHatGTVtbzvvkegk7G5Fcr3nXmCD8nVhgWx+p4jvxxl56DYEZThu9sWYDyKSu6+hG7QLu3DcvHK6YJVFgcrmd1ZZnMg06sdH97CLFARHecKkSAncLkhNwSze+FcHwlgdd5y+c85LHawT9DSdAOd7n6GAArl5lq7BcddfQy2Y8X8jv5xvGflBA0Bwj2hIfzKgN25gE82MzpC5Hxz6aoa8e7kWAECtv0yn9B3NeUSITAGM1tWcBqDU1wcgGJ2Z6nNsQcOAOayj7iX23G23AhFhGZ0prvcofPq2nofkP+cgOX82umT6js3mRAZeNrBlfchGUmFgEy0Y0NL91qOWG8vJ2AInpAMMZLYLJE4QuTKJcTIzHiyG0+AcBEwQi4yqXCTOb4lV1eMwezW3lXyneXpBYIDUBzNPkCU9hO1uVc/SbyFWVAle7sdRyAT9K49/fTTA93d3QP9/cXd3MlswmC6nVe/sO8R+W8nYc+b1ND5sAnRgsTspZdeKrWhoaFhoLW1deC5554bfCdfIzHgV6IdP2/tWbcwWZ68qx2f8Z020JYijF87sIToCJFL9bjqh9XJGW48AcJFwCHM7Kww3EQI25Jh30Py3a5b5iIKDtpwNJgjp7kIcR+345JCZMCvvPLKEgRAUeYLYO6qkP+TROmC48kNnT8vJ0R8nzZtWimZ8Pq6664riTNvK9OOzRJid7I8KUTGwhLi+PHjS+3J2/AJ39w+Vt9zUpzrkjl49hnKXCHy+VB+OyjZ/+Yfd7nId7uThyuZuIiCc4ksT3O5sib15xTJwgQswRueEFdyUyoX6nIJ1eWTGzsfS5sRXUOIRczwZdrxy7Zl61Yky9N+5wXfaUPeVkaIXKFCELM83el+xKHakqeVEyLJUL5zMwHX9HI5IctTrg7i6Gku15qmCtEsYCHarStXuL9ZkxSia4iSGZ4ld95Wph3D/l1TlqgBzYhcLsZdJD8QO92hP1Rb8rTyQizFEpe6scTmMjcu4eN6Zc4n5nOHvttxNShEbsnhboDMPzBcVBBjlQiRBMIsaCRn+TxsCCF6f7PG15aibAghWixxlQ0n9zlgk9v9iLUsRPfnDTIJkX0sgjikgzVZhYjhNzM5yaQIMb6ChejGUhRiOauGEIsWIVapEM2KWl7vJkLkdq8oRJ9VKsQQRIhVIkRXdJs3by4JMc6Iw7OaFaIFsJ3C4PWmTZsG383PKhEi4hs9enTJd5eA2pFJiJyyMN8ZC8Ymb4tCTMdbmAVVkipEMi6B7FKEVSJELNmGwNqReWnKrMhsWMSBGiwKMR1vYRZUSaaladFWqRBDsUqFWLRFIabjLcyCKolCzNGiEIu1KMQKLQoxDItCTMdbmAVVEoWYo0UhFmtRiBVaFGIYFoWYjrcwC6okCjFHi0Is1qIQK7QoxDAsCjEdb2EWVMluKcQtW7YMjBs3rvQ3T4tCLNaiECu0agvxySefHBgzZkzpb54WhVis7fZCrPRKkCjEMCwKMR1vYRZUSaoQEZBd8G0M94r/atxNHoW4zZLjkfVXBrgu1bbh9Uivs62GEKsRUyO1mhUi12RywXQlnRaF+D9WqRCT43HLLbeUGMrofy4at+24aJzthnvNbTWEOJKYQrz4X+2VlflXM0L0DZiVcRGyryMphyjE/7FqCdH6nsBEVDbD8T/9zV83aOl/d/bkPX6lgOA2s234Lndb16opxOHEFK/Zhr+ub/zPZ12z7/B9/ytOiFZut+a4t+XQUe4tO0YlFoW4zXzjQd8iMrBb1YDXJj77jGsW3HwX7/EZZknbNhng2K4UopUnY4p44n/e46/FGYmE/8F++iT5HcmEUvNCtAZb46zcBpcsSsfxHj/j4GZa+1mHSiwKcZtZvyMicH8yg/63mZHPDSVE+y7+8h6f5zWWHEOzagrR4sn8t3JfTLm+Ykn/eI1Ak9+RtJoXIo2kcdbAZMe4/ycHndeUVWJRiNvM+tkCmACkzNfH7ji4r83cMUtuX27MqinE4cRU8j18o+22j8lMzt/k55JW80JMNixZ7v6fHPRygzoci0LcZsl+N/P1sTsOyTHBEIId6EluX27MqinEZBuS5e7/yffwjVkRPw1WCMnPJa3mhWiNBN9Swf2fzOQuG/jfN6jDsWoJ8fnnny+Jr7e3tyRE/vI/5XnYrhIi/7OMs/06xiu5NLWlG/Da/XxSeMn/zaopxOHEVPK95NLUt43Pal6ILr4lgPs/MIgGHeYb1OFYtYTIJW0I0OWqq66qeSFiJi762g66uEK08eMzvO8ejClCiC5DxRRmcWQJxdpo+MSctJoVIkajXGiwlbvm/s9nGGgrs21GatUSIlZXV7eDENvbyy9hq22VChFL9rtrvEe/098Ep3tag/eg3Fgky32fq4YQMfMl6ROvXUv+zyzq+kVbrb1myW1cq2khhmDVFOLLL79cmgUR4dixYwe2bt06+M6ut2oIsZwxi9lyzz2aWk2rlhCLsijECu2pZ56tmhAxZkGEuH79+sGSfGxXCtHEByzj0maGkRrPd8Q3t4/V91GIg3gLs6BKdhAiD3EM5Vl2rvFYLwuAMp3nFWLaA1ebm5sHX+VnPCwz+ZxHnxB5BmGICZGHpyb7WH0fhTiItzALqmQHIdrTXUN5nh1mnec+6XUoIQIPpCz6KbWu8Qhxkpz7+OhyQrQg5wGtoZg9Qt2eRR+FuDPewiyokh2ECDy+GzGS/ejAIiEh4N+tkxcM1Xk7CZHHd4fUDkR4132Ltj+D3mnHTkIEBEsZM6PvO/MEH/DFTYZRiDvjLcyCKikJMflccbIewY+TRcISLekb4HNL19oN8n8HIbqzDRD0lPm+O2/s2fMuCNMVos02BgFNH/i+L0+IBVdc5hs+q++jEAfxFmZBlew7sb6jk4BwnQsZAprO7Fi1sUf+b39Q6Yz5y+YyA7ozTshYIC/ufWCV/J+ncfhvd0YPHRLE1KbuF/FdRCEKb2EWVMm+M1uWnybnXqRjkxk5JBCYibCurfcZ+b5Q8OjuH4nL21c9eNGEuvY/k1SS2Ts0mOVJGvc3L/8P+b5YNM1tX72atiHGkJOJrZbwdeHy9Q/K97niHnGVOJ/yKMRhokr2FQfJkfOVkZ/FydBpXLzyt/K5WywQU8R14lLxyXkd/aO1RH3Mt11o1LX1/a577aZe+d0m6sXkpqWruibUdfyX7/MhMbmx6y8Lutc+Jp87RKO4S3xXnMv7UYjDRJXsLd4g3iZOVefe1NK9tq61Z91S7besblu2foOy3kbxUAgMBi4iZBZpEHeLK8UF4lTBs88/oXZc39K15n61Y5HasVLteEDbh9iOJWKOIKH8TNworpf/c+T7QvneI9ZomwdFMP7LR3zvFCRDdg9+Kq4QZ0chjgAqETyw/0hxkrhQsNa/U9DBTaJZ0OEh0CLmizoxQdwgvibOEieK94sPic8JMvStYpog2ENsBzPhJIGf/yL+UXxb/FAQFOx7zRLsh7GN77uKAF9YkhK8zIb/LC4Sp0YhjgBVsqfYT7xRvEt8QnxZEAi3CNb+EwUZOwQmCwRIorhejBHnCpLIMYKZ/T2C2fFLgv0WOnecCLUdzILfFwQAifB8wVIbQbLsvl0gSATr+64iwBd8uk1cLS4XJMMTohBHgCoZJdhP3F8wKzKjnCkuFgT5DwSZ+lpBUBQNfpB9me3oMETIDPgOcbg4VNCO94rTxRfEaIEgQ2sHAfw9QRCztKbfTxG05zRB20iKzJIkxmuE77uKAF9YOZEsLhFnixPEMVGII0CVIESWp8yKBwoLYva1CAyCgSAhUxPURYIPwLLz04JZj8FnFmRGJ5mwzKYdbxLM8AQ17ThHhNYOZj7ageiY0d89d+nqUyc1dLZOqOv4PQETIhPrO56bNrdndcfqjSSQz4qPi+MEgXs4n4lCHCaqJCnGA8Rh4mhBIB8rCHb2v0IAX5i1WX6+XRwhDhavE68SzO60A1EyO9KZ7xTvE8cL33cWAe0geEl6zOZHzmxZcYaC5E9cmsdpGoI5RPANHznKvrRvAzMh40EypL8PiUIcAarEhDhqckPn0crE9QQDzkaqj4J3w4z5y1jyM8isPv5eHCL2n1DX3p+8BC5U8BExTpnTxekLkhyJm3YcRDujEIeJKikhAb5fDm4NPRvXMlzDayfCtfzkiDQzyEHib6c2dX+Qcq6PdYME2I6T/EWCD0m/uCgBn+U/y/93C1Ynh1JGe+1zUYgZUCWlGVHO/RaHauXysFrGAnhmy3IOiHGA6cCpc7o+lQwQRElipJyLrouCO1jwgdnaTRSIjXL5z74u++sss4+mLApxmKgSmw13ysZ2KROXYvF+ZPgwyL6L1glqzYKcGywt67RcvYDP2/v0Pf3e3vdQELdxcV8ngiQxWLJ2hMiRX5IKYjyWsijEYaJKJMT2jyeds1uI6HxuZqUBkeHBrwqUu42LO0ImN3ZtVv9/Spw8u7X3q+4Y8D63b4V0gza+TGvqKe264KMjRC5GQIzMjB+hLApxmKiSURPrO05POkfmIxtHq9y4uTcZnOx3TZ3T/ZT6n3Oc5zUuXvl9dwxCCl7XiAluDsBHR4ic4C9deC/OTLY1CjEDqkRC7OSw+XbHrIPTfmYi2vDMDWBAiNOaureo/7lEb3TT0tU3uGMQqhDxCd/cOJH/XPPLdbKc3D+HsijEYaJKOG1RymLmGEsPlkVmK1euLP0W5rXXXjvw1FNPDZZGG465AQwlIc7teVb9P15cPa+9/7YaFiLXI9MOLr6Pt0GNBFUySvsqZ7nOESQcLcP4XUx+FYwfdeVHYO0n2qMNz3xCnD635zn1P/dT/mR+Z//4Ghai3RjM5ZDxxuCRoEpShYjwEKGZ+6O10bJbGSE+r/6fLW5v7lwz8RUgxHiHvq8wC6pk1JTGrk/6hMiP07Ik5UdrzXgOHb+fGW14liJEboO6U0KcPJQQQ0iAUYjpeAuzoEr2KCdEfqA2+RwBlqcQbXiWQYhThhLiUUcdNXD77bcP/leMRSGm4y3MgiqJQszBUoTIEcc7m7vWTB1KiCEcKItCTMdbmAVVUlaItjR1nxrET7m7+4zRslk1hBiCRSGm4y3MgiopK0QM4dkMyMyIMN0ZMlo2i0KMQkxFlaQKEdHZg03sNEa04VsUYhRiKqokVYgYS1SO2FX7EV+7k0UhRiGmokqGFGK0yi0KMQoxFVUShZiDRSFGIaaiSqIQc7AoxCjEVFRJFGIOFoUYhZiKKolCzMGiEKMQU1ElUYg5WBRiFGIqqiQKMQcLQYicfqr0FFQUYjrewiyoklQhMnBcWRPPIVZm1RKijYfBBRbuJYhpZttUYlGI6XgLs6BKUoXou/A72vCtWkK08TBRcVsalx3ydyiLQnwFCdFmRu5RTGZi3uMKnCjana3aQnT7mNfJyw8ZC8bHvZc0CvEVJEQGnAvB+etmYgsGK3cDJdquFSKGCOl7LDkWJtAoxFeYEG0wKWOgybzctW+ijPuTO9uuFmJ/f/92IfLzJvYrCjZGzIxRiK8wITLoZvY/A82AM9DJIImWnxDtfRMdMC68b/9XYlGI6XgLs6BKqiJEDDGybGXgk4Gyu9uuFiKrEURm77McZVwMyqMQdwMhuoGR/Ey06guRpMdr/rIMpc9tDNylKcZnsCjE3UCIFgxAIMT9xB2t2kI0WH2wCrHxwdhnp9zGg/exKMQaFiLmDnJSYO7/ZN6sJ5d3N6uWEDHGwyiX8CjnVJLNhhhl5T6f1aIQ0/EWZkGVDCnEaJVbNYVYpEUhpuMtzIIqiULMwaIQoxBTUSVRiDnYK0WI/Rsfj0JMwVuYBVUShZiDDVeIPMItxOdT8uBafMfHKMSd8RZmQZXsJEQey8aTYaNVz4YrxOvvnlMKGB5yGorx5Gh8ske8D0eIzKQhWE0J0To4Pqi0esYKw31891BCBD5PGY//5jHgBFERkAyYnfHFHtsNWYXIY8iZSUMw2sIj6c03CFaIwKO76byQnuFeq1bu0d0+If7w1lk7jMON45tKgcJ7RUHgslRmlnZ9yyrEq2+vK32OGbVIe+6PL5RWeiQGtx1BC5HlBwPAk4NZVkVGBjMhfZscfP53hSh+OKGu4yXb/6oFmLEnN3a+LN9ThQgkFMrpD18/7WpYGiPCu+5btFOyC0aI05q6T/Z1HpmMgMHRyMhgJkn2K7Di0OA/qf4vPZZN/NPMluWLGAd3+RciBDIJA18XdK99WL7PFfeIq8QFvlgCyugPXz/lQbl+RZwhCHGUeI2y8XpftohUHwKCYO1YtbFXfV8nfiYI4svub16+gPfAF0xFQ4zg28T6jr/O7+zfLJ87xBxxt/iuOE+x9IfkCiBUbNnctmzdGvluQvyKKESI+81asOJMOfQimZpsF9k1EMwM/PyO/sfV70vELHGrIIgvEud3rN74jebONZPq2nrX1S/se5Rs3bho5W/EUyGwcPn6TT1rN/XJ127RJgjgW8Ro8SktuWfSRt+sGBJMOiSWqU3dL8rvhWKGuEl8WZwi8heiOHRx7wOnqBMXT5nT9WstV7dMm9vzLPsx0+f1/GekOmjG+w8F8r+pvwniBWKa+JG4Qpwrzhr8+3UxVrDvxfK1RRD0BAwsKgirH1+axWwxTlwtLhanipMUQx33SowsRX0JqWiYsTkGwsy+pG/DA/K5VTAWN4hLxMniSPE6sadPOz68hVlQJQhxX3GweKc4U5DZfipwbL5YLJaK9kjF0I/MhIiQIL5LcJCD2fA08SHxMXGe+Ka4XvCZyWK6IGszAxUJPuDLJMGy+lpB4jhbnCDey1/N5j9W8lmvGeeZaXO7/6Ck/lwyMRVJ09LVv9LMvlK+srzmgNO9goTyeUE7DhevFXv4tOPDW5gFVYIQ9xH7C6ZiAuELgn0WlkwEwEzBvgyZmaN8kZFDHyJAApn9KoL4csFMyOC/SxDIHxbnCN67UvA5Zs4fC/ZjigQfbhT49D3BUu7T4gPi7YI4oh0fFZeJ68QE0SiYTUlERSd26gcmGSYbxoPl9bfFp8R7xBsFq8XchLiXQPmHineL08WXBPstZGQcvF3cIciAkZFB/wEJDlExEyK0z4gTxdsEWfhNgoBGmIwFgvyiYMlE0HMwgSN7RUDd+IAvJOzPCpajxwkESAwRwG8eLOP9MYL2ssxmNiURFZ3UqZ/JhUmGyeY2wXiwvOZAzVvFgYLV4iifdnx4C7OgSmCPwQqZFQkCMjKdy74KHc7+C8ukb0UqhqD8hiCgLxTsCiA4Bv7vBGMAhwj2UY4Rx4qTBKsVDiIQKEWCD/jCDPg+8Q5B3BC47FO9XuA/iYXPnS+IH5Z9zKYEfdGJnbrx4WbBZMOkQ6yfIYj/wwRtYZLKTYg2K75aHCDIygQAGY0lEqIkM+PkJyIVQR+yL0hAE8gs4Zg92Edn4F8lSIosiThiRzmzDIHO55h1QgBf8AnfDhKIj/hhNwf/aQszI3HEgQ/2H5nVmVU5BkFC8iWqPCE5sG+LAJl0iHNEeIQgGdIOJimvdnx4C7NAJYO4YrSMhiDfIshsZD06NVI5th/FgBOsJD+ERxDvKRh8/u4tTJQENiDOEMAXdmfwDR/x1fXdxMgsT1sJcGZ19htJREUndepnckF8zNpMOowNMc94oIPSbCi82vHhLcwClQxChUAnEhA4QkfT6TjGsiNSHd4gyLgEqgUyg04QlwZ+EBsTC27gcyFg/pjPSb95j3YRQ7SXmZOl9tGCRJRMTkXA5MIkw2SDAFl9MAmxKqGN29vk044Pb2EWrCIH61QbfBwi2wECjVSG9aUFtC+QXwlYDNFGd1YnASFMX4LKG/xgkmGyIWEw+djMvsOY+LTjw1uYBasoEtkFWDC7ogwpsbsJsdzsXsKnHR/ewkgkki/ewkgkki/ewkgkki/ewkgkkicDf/P/Abm89AKWzh4YAAAAAElFTkSuQmCC;movable=1;resizable=1;rotatable=1;deletable=1;editable=1;locked=0;connectable=1;" vertex="1" parent="1">
          <mxGeometry x="300" y="300" width="226" height="277" as="geometry" />
        </mxCell>
        <mxCell id="OlI_2qXUzGhfWNakAulT-6" style="rounded=0;sketch=1;hachureGap=4;jiggle=2;curveFitting=1;orthogonalLoop=1;jettySize=auto;html=1;exitX=1;exitY=0.5;exitDx=0;exitDy=0;fontFamily=Helvetica;movable=1;resizable=1;rotatable=1;deletable=1;editable=1;locked=0;connectable=1;" edge="1" parent="1" source="OlI_2qXUzGhfWNakAulT-4">
          <mxGeometry relative="1" as="geometry">
            <mxPoint x="320" y="390" as="targetPoint" />
          </mxGeometry>
        </mxCell>
        <mxCell id="OlI_2qXUzGhfWNakAulT-4" value="&lt;font face=&quot;Helvetica&quot;&gt;Rotate CCW&lt;/font&gt;" style="rounded=0;whiteSpace=wrap;html=1;sketch=1;hachureGap=4;jiggle=2;curveFitting=1;fontFamily=Architects Daughter;fontSource=https%3A%2F%2Ffonts.googleapis.com%2Fcss%3Ffamily%3DArchitects%2BDaughter;movable=1;resizable=1;rotatable=1;deletable=1;editable=1;locked=0;connectable=1;" vertex="1" parent="1">
          <mxGeometry x="200" y="360" width="100" height="20" as="geometry" />
        </mxCell>
        <mxCell id="OlI_2qXUzGhfWNakAulT-8" style="edgeStyle=none;rounded=0;sketch=1;hachureGap=4;jiggle=2;curveFitting=1;orthogonalLoop=1;jettySize=auto;html=1;exitX=0;exitY=0.5;exitDx=0;exitDy=0;strokeColor=default;align=center;verticalAlign=middle;fontFamily=Architects Daughter;fontSource=https%3A%2F%2Ffonts.googleapis.com%2Fcss%3Ffamily%3DArchitects%2BDaughter;fontSize=12;fontColor=default;labelBackgroundColor=default;endArrow=classic;movable=1;resizable=1;rotatable=1;deletable=1;editable=1;locked=0;connectable=1;" edge="1" parent="1" source="OlI_2qXUzGhfWNakAulT-7">
          <mxGeometry relative="1" as="geometry">
            <mxPoint x="450" y="390" as="targetPoint" />
          </mxGeometry>
        </mxCell>
        <mxCell id="OlI_2qXUzGhfWNakAulT-7" value="&lt;font face=&quot;Helvetica&quot;&gt;Rotate&amp;nbsp;&lt;/font&gt;&lt;span style=&quot;font-family: Helvetica; background-color: initial;&quot;&gt;CW&lt;/span&gt;" style="rounded=0;whiteSpace=wrap;html=1;sketch=1;hachureGap=4;jiggle=2;curveFitting=1;fontFamily=Architects Daughter;fontSource=https%3A%2F%2Ffonts.googleapis.com%2Fcss%3Ffamily%3DArchitects%2BDaughter;movable=1;resizable=1;rotatable=1;deletable=1;editable=1;locked=0;connectable=1;" vertex="1" parent="1">
          <mxGeometry x="526" y="360" width="100" height="20" as="geometry" />
        </mxCell>
        <mxCell id="OlI_2qXUzGhfWNakAulT-10" style="edgeStyle=none;rounded=0;sketch=1;hachureGap=4;jiggle=2;curveFitting=1;orthogonalLoop=1;jettySize=auto;html=1;exitX=0.5;exitY=1;exitDx=0;exitDy=0;strokeColor=default;align=center;verticalAlign=middle;fontFamily=Helvetica;fontSource=https%3A%2F%2Ffonts.googleapis.com%2Fcss%3Ffamily%3DArchitects%2BDaughter;fontSize=12;fontColor=default;labelBackgroundColor=default;endArrow=classic;movable=1;resizable=1;rotatable=1;deletable=1;editable=1;locked=0;connectable=1;" edge="1" parent="1" source="OlI_2qXUzGhfWNakAulT-9">
          <mxGeometry relative="1" as="geometry">
            <mxPoint x="380.20000000000005" y="370" as="targetPoint" />
          </mxGeometry>
        </mxCell>
        <mxCell id="OlI_2qXUzGhfWNakAulT-9" value="Move Up" style="rounded=0;whiteSpace=wrap;html=1;sketch=1;hachureGap=4;jiggle=2;curveFitting=1;fontFamily=Helvetica;movable=1;resizable=1;rotatable=1;deletable=1;editable=1;locked=0;connectable=1;" vertex="1" parent="1">
          <mxGeometry x="200" y="290" width="100" height="20" as="geometry" />
        </mxCell>
        <mxCell id="OlI_2qXUzGhfWNakAulT-12" style="edgeStyle=none;rounded=0;sketch=1;hachureGap=4;jiggle=2;curveFitting=1;orthogonalLoop=1;jettySize=auto;html=1;exitX=0.5;exitY=1;exitDx=0;exitDy=0;strokeColor=default;align=center;verticalAlign=middle;fontFamily=Helvetica;fontSource=https%3A%2F%2Ffonts.googleapis.com%2Fcss%3Ffamily%3DArchitects%2BDaughter;fontSize=12;fontColor=default;labelBackgroundColor=default;endArrow=classic;movable=1;resizable=1;rotatable=1;deletable=1;editable=1;locked=0;connectable=1;" edge="1" parent="1" source="OlI_2qXUzGhfWNakAulT-11">
          <mxGeometry relative="1" as="geometry">
            <mxPoint x="380" y="320" as="targetPoint" />
          </mxGeometry>
        </mxCell>
        <mxCell id="OlI_2qXUzGhfWNakAulT-11" value="Front View" style="rounded=0;whiteSpace=wrap;html=1;sketch=1;hachureGap=4;jiggle=2;curveFitting=1;fontFamily=Helvetica;movable=1;resizable=1;rotatable=1;deletable=1;editable=1;locked=0;connectable=1;" vertex="1" parent="1">
          <mxGeometry x="260" y="250" width="100" height="20" as="geometry" />
        </mxCell>
        <mxCell id="OlI_2qXUzGhfWNakAulT-14" style="edgeStyle=none;rounded=0;sketch=1;hachureGap=4;jiggle=2;curveFitting=1;orthogonalLoop=1;jettySize=auto;html=1;exitX=0.5;exitY=1;exitDx=0;exitDy=0;strokeColor=default;align=center;verticalAlign=middle;fontFamily=Helvetica;fontSource=https%3A%2F%2Ffonts.googleapis.com%2Fcss%3Ffamily%3DArchitects%2BDaughter;fontSize=12;fontColor=default;labelBackgroundColor=default;endArrow=classic;movable=1;resizable=1;rotatable=1;deletable=1;editable=1;locked=0;connectable=1;" edge="1" parent="1" source="OlI_2qXUzGhfWNakAulT-13">
          <mxGeometry relative="1" as="geometry">
            <mxPoint x="430.20000000000005" y="320" as="targetPoint" />
          </mxGeometry>
        </mxCell>
        <mxCell id="OlI_2qXUzGhfWNakAulT-13" value="Side View" style="rounded=0;whiteSpace=wrap;html=1;sketch=1;hachureGap=4;jiggle=2;curveFitting=1;fontFamily=Helvetica;movable=1;resizable=1;rotatable=1;deletable=1;editable=1;locked=0;connectable=1;" vertex="1" parent="1">
          <mxGeometry x="380" y="250" width="100" height="20" as="geometry" />
        </mxCell>
        <mxCell id="OlI_2qXUzGhfWNakAulT-16" style="edgeStyle=none;rounded=0;sketch=1;hachureGap=4;jiggle=2;curveFitting=1;orthogonalLoop=1;jettySize=auto;html=1;exitX=0.5;exitY=1;exitDx=0;exitDy=0;strokeColor=default;align=center;verticalAlign=middle;fontFamily=Helvetica;fontSource=https%3A%2F%2Ffonts.googleapis.com%2Fcss%3Ffamily%3DArchitects%2BDaughter;fontSize=12;fontColor=default;labelBackgroundColor=default;endArrow=classic;movable=1;resizable=1;rotatable=1;deletable=1;editable=1;locked=0;connectable=1;" edge="1" parent="1" source="OlI_2qXUzGhfWNakAulT-15">
          <mxGeometry relative="1" as="geometry">
            <mxPoint x="500" y="320" as="targetPoint" />
          </mxGeometry>
        </mxCell>
        <mxCell id="OlI_2qXUzGhfWNakAulT-15" value="Top View" style="rounded=0;whiteSpace=wrap;html=1;sketch=1;hachureGap=4;jiggle=2;curveFitting=1;fontFamily=Helvetica;movable=1;resizable=1;rotatable=1;deletable=1;editable=1;locked=0;connectable=1;" vertex="1" parent="1">
          <mxGeometry x="500" y="250" width="100" height="20" as="geometry" />
        </mxCell>
        <mxCell id="OlI_2qXUzGhfWNakAulT-18" style="edgeStyle=none;rounded=0;sketch=1;hachureGap=4;jiggle=2;curveFitting=1;orthogonalLoop=1;jettySize=auto;html=1;exitX=0;exitY=0.5;exitDx=0;exitDy=0;strokeColor=default;align=center;verticalAlign=middle;fontFamily=Helvetica;fontSource=https%3A%2F%2Ffonts.googleapis.com%2Fcss%3Ffamily%3DArchitects%2BDaughter;fontSize=12;fontColor=default;labelBackgroundColor=default;endArrow=classic;movable=1;resizable=1;rotatable=1;deletable=1;editable=1;locked=0;connectable=1;" edge="1" parent="1" source="OlI_2qXUzGhfWNakAulT-17">
          <mxGeometry relative="1" as="geometry">
            <mxPoint x="490" y="410" as="targetPoint" />
          </mxGeometry>
        </mxCell>
        <mxCell id="OlI_2qXUzGhfWNakAulT-17" value="Cycle Axis Lock" style="rounded=0;whiteSpace=wrap;html=1;sketch=1;hachureGap=4;jiggle=2;curveFitting=1;fontFamily=Helvetica;movable=1;resizable=1;rotatable=1;deletable=1;editable=1;locked=0;connectable=1;" vertex="1" parent="1">
          <mxGeometry x="530" y="400" width="100" height="20" as="geometry" />
        </mxCell>
        <mxCell id="OlI_2qXUzGhfWNakAulT-20" style="edgeStyle=none;rounded=0;sketch=1;hachureGap=4;jiggle=2;curveFitting=1;orthogonalLoop=1;jettySize=auto;html=1;exitX=0;exitY=0.5;exitDx=0;exitDy=0;strokeColor=default;align=center;verticalAlign=middle;fontFamily=Helvetica;fontSource=https%3A%2F%2Ffonts.googleapis.com%2Fcss%3Ffamily%3DArchitects%2BDaughter;fontSize=12;fontColor=default;labelBackgroundColor=default;endArrow=classic;movable=1;resizable=1;rotatable=1;deletable=1;editable=1;locked=0;connectable=1;" edge="1" parent="1" source="OlI_2qXUzGhfWNakAulT-19">
          <mxGeometry relative="1" as="geometry">
            <mxPoint x="500" y="490" as="targetPoint" />
          </mxGeometry>
        </mxCell>
        <mxCell id="OlI_2qXUzGhfWNakAulT-19" value="Toggle fixed camera" style="rounded=0;whiteSpace=wrap;html=1;sketch=1;hachureGap=4;jiggle=2;curveFitting=1;fontFamily=Helvetica;movable=1;resizable=1;rotatable=1;deletable=1;editable=1;locked=0;connectable=1;" vertex="1" parent="1">
          <mxGeometry x="540" y="480" width="120" height="20" as="geometry" />
        </mxCell>
        <mxCell id="OlI_2qXUzGhfWNakAulT-22" style="edgeStyle=none;rounded=0;sketch=1;hachureGap=4;jiggle=2;curveFitting=1;orthogonalLoop=1;jettySize=auto;html=1;exitX=1;exitY=0.5;exitDx=0;exitDy=0;strokeColor=default;align=center;verticalAlign=middle;fontFamily=Helvetica;fontSource=https%3A%2F%2Ffonts.googleapis.com%2Fcss%3Ffamily%3DArchitects%2BDaughter;fontSize=12;fontColor=default;labelBackgroundColor=default;endArrow=classic;movable=1;resizable=1;rotatable=1;deletable=1;editable=1;locked=0;connectable=1;" edge="1" parent="1" source="OlI_2qXUzGhfWNakAulT-21">
          <mxGeometry relative="1" as="geometry">
            <mxPoint x="320" y="440" as="targetPoint" />
          </mxGeometry>
        </mxCell>
        <mxCell id="OlI_2qXUzGhfWNakAulT-21" value="Move Left" style="rounded=0;whiteSpace=wrap;html=1;sketch=1;hachureGap=4;jiggle=2;curveFitting=1;fontFamily=Helvetica;movable=1;resizable=1;rotatable=1;deletable=1;editable=1;locked=0;connectable=1;" vertex="1" parent="1">
          <mxGeometry x="200" y="428.5" width="100" height="20" as="geometry" />
        </mxCell>
        <mxCell id="OlI_2qXUzGhfWNakAulT-24" style="edgeStyle=none;rounded=0;sketch=1;hachureGap=4;jiggle=2;curveFitting=1;orthogonalLoop=1;jettySize=auto;html=1;exitX=0;exitY=0.5;exitDx=0;exitDy=0;strokeColor=default;align=center;verticalAlign=middle;fontFamily=Helvetica;fontSource=https%3A%2F%2Ffonts.googleapis.com%2Fcss%3Ffamily%3DArchitects%2BDaughter;fontSize=12;fontColor=default;labelBackgroundColor=default;endArrow=classic;movable=1;resizable=1;rotatable=1;deletable=1;editable=1;locked=0;connectable=1;" edge="1" parent="1" source="OlI_2qXUzGhfWNakAulT-23">
          <mxGeometry relative="1" as="geometry">
            <mxPoint x="450" y="440" as="targetPoint" />
          </mxGeometry>
        </mxCell>
        <mxCell id="OlI_2qXUzGhfWNakAulT-23" value="Move Right" style="rounded=0;whiteSpace=wrap;html=1;sketch=1;hachureGap=4;jiggle=2;curveFitting=1;fontFamily=Helvetica;movable=1;resizable=1;rotatable=1;deletable=1;editable=1;locked=0;connectable=1;" vertex="1" parent="1">
          <mxGeometry x="526" y="428.5" width="100" height="20" as="geometry" />
        </mxCell>
        <mxCell id="OlI_2qXUzGhfWNakAulT-26" style="edgeStyle=none;rounded=0;sketch=1;hachureGap=4;jiggle=2;curveFitting=1;orthogonalLoop=1;jettySize=auto;html=1;exitX=0;exitY=0.5;exitDx=0;exitDy=0;strokeColor=default;align=center;verticalAlign=middle;fontFamily=Helvetica;fontSource=https%3A%2F%2Ffonts.googleapis.com%2Fcss%3Ffamily%3DArchitects%2BDaughter;fontSize=12;fontColor=default;labelBackgroundColor=default;endArrow=classic;movable=1;resizable=1;rotatable=1;deletable=1;editable=1;locked=0;connectable=1;" edge="1" parent="1" source="OlI_2qXUzGhfWNakAulT-25">
          <mxGeometry relative="1" as="geometry">
            <mxPoint x="390" y="440" as="targetPoint" />
          </mxGeometry>
        </mxCell>
        <mxCell id="OlI_2qXUzGhfWNakAulT-25" value="Toggle rotation of fixed camera" style="rounded=0;whiteSpace=wrap;html=1;sketch=1;hachureGap=4;jiggle=2;curveFitting=1;fontFamily=Helvetica;movable=1;resizable=1;rotatable=1;deletable=1;editable=1;locked=0;connectable=1;" vertex="1" parent="1">
          <mxGeometry x="200" y="470" width="100" height="40" as="geometry" />
        </mxCell>
        <mxCell id="OlI_2qXUzGhfWNakAulT-28" style="edgeStyle=none;rounded=0;sketch=1;hachureGap=4;jiggle=2;curveFitting=1;orthogonalLoop=1;jettySize=auto;html=1;exitX=0.502;exitY=-0.13;exitDx=0;exitDy=0;strokeColor=default;align=center;verticalAlign=middle;fontFamily=Helvetica;fontSource=https%3A%2F%2Ffonts.googleapis.com%2Fcss%3Ffamily%3DArchitects%2BDaughter;fontSize=12;fontColor=default;labelBackgroundColor=default;endArrow=classic;exitPerimeter=0;movable=1;resizable=1;rotatable=1;deletable=1;editable=1;locked=0;connectable=1;" edge="1" parent="1" source="OlI_2qXUzGhfWNakAulT-27">
          <mxGeometry relative="1" as="geometry">
            <mxPoint x="390" y="500" as="targetPoint" />
          </mxGeometry>
        </mxCell>
        <mxCell id="OlI_2qXUzGhfWNakAulT-27" value="Move Down" style="rounded=0;whiteSpace=wrap;html=1;sketch=1;hachureGap=4;jiggle=2;curveFitting=1;fontFamily=Helvetica;movable=1;resizable=1;rotatable=1;deletable=1;editable=1;locked=0;connectable=1;" vertex="1" parent="1">
          <mxGeometry x="340" y="590" width="100" height="20" as="geometry" />
        </mxCell>
        <mxCell id="OlI_2qXUzGhfWNakAulT-30" style="edgeStyle=none;rounded=0;sketch=1;hachureGap=4;jiggle=2;curveFitting=1;orthogonalLoop=1;jettySize=auto;html=1;exitX=1;exitY=0.5;exitDx=0;exitDy=0;strokeColor=default;align=center;verticalAlign=middle;fontFamily=Helvetica;fontSource=https%3A%2F%2Ffonts.googleapis.com%2Fcss%3Ffamily%3DArchitects%2BDaughter;fontSize=12;fontColor=default;labelBackgroundColor=default;endArrow=classic;movable=1;resizable=1;rotatable=1;deletable=1;editable=1;locked=0;connectable=1;" edge="1" parent="1" source="OlI_2qXUzGhfWNakAulT-29">
          <mxGeometry relative="1" as="geometry">
            <mxPoint x="340" y="490" as="targetPoint" />
          </mxGeometry>
        </mxCell>
        <mxCell id="OlI_2qXUzGhfWNakAulT-29" value="Reduce precision amount" style="rounded=0;whiteSpace=wrap;html=1;sketch=1;hachureGap=4;jiggle=2;curveFitting=1;fontFamily=Helvetica;movable=1;resizable=1;rotatable=1;deletable=1;editable=1;locked=0;connectable=1;" vertex="1" parent="1">
          <mxGeometry x="200" y="530" width="100" height="30" as="geometry" />
        </mxCell>
        <mxCell id="OlI_2qXUzGhfWNakAulT-32" style="edgeStyle=none;rounded=0;sketch=1;hachureGap=4;jiggle=2;curveFitting=1;orthogonalLoop=1;jettySize=auto;html=1;exitX=0;exitY=0;exitDx=0;exitDy=0;strokeColor=default;align=center;verticalAlign=middle;fontFamily=Helvetica;fontSource=https%3A%2F%2Ffonts.googleapis.com%2Fcss%3Ffamily%3DArchitects%2BDaughter;fontSize=12;fontColor=default;labelBackgroundColor=default;endArrow=classic;movable=1;resizable=1;rotatable=1;deletable=1;editable=1;locked=0;connectable=1;" edge="1" parent="1" source="OlI_2qXUzGhfWNakAulT-31">
          <mxGeometry relative="1" as="geometry">
            <mxPoint x="450" y="500" as="targetPoint" />
          </mxGeometry>
        </mxCell>
        <mxCell id="OlI_2qXUzGhfWNakAulT-31" value="Raise precision amount" style="rounded=0;whiteSpace=wrap;html=1;sketch=1;hachureGap=4;jiggle=2;curveFitting=1;fontFamily=Helvetica;movable=1;resizable=1;rotatable=1;deletable=1;editable=1;locked=0;connectable=1;" vertex="1" parent="1">
          <mxGeometry x="540" y="530" width="100" height="30" as="geometry" />
        </mxCell>
        <mxCell id="OlI_2qXUzGhfWNakAulT-34" style="edgeStyle=none;rounded=0;sketch=1;hachureGap=4;jiggle=2;curveFitting=1;orthogonalLoop=1;jettySize=auto;html=1;exitX=0.5;exitY=0;exitDx=0;exitDy=0;strokeColor=default;align=center;verticalAlign=middle;fontFamily=Helvetica;fontSource=https%3A%2F%2Ffonts.googleapis.com%2Fcss%3Ffamily%3DArchitects%2BDaughter;fontSize=12;fontColor=default;labelBackgroundColor=default;endArrow=classic;movable=1;resizable=1;rotatable=1;deletable=1;editable=1;locked=0;connectable=1;" edge="1" parent="1" source="OlI_2qXUzGhfWNakAulT-33">
          <mxGeometry relative="1" as="geometry">
            <mxPoint x="350" y="550" as="targetPoint" />
          </mxGeometry>
        </mxCell>
        <mxCell id="OlI_2qXUzGhfWNakAulT-33" value="Previous item/text" style="rounded=0;whiteSpace=wrap;html=1;sketch=1;hachureGap=4;jiggle=2;curveFitting=1;fontFamily=Helvetica;movable=1;resizable=1;rotatable=1;deletable=1;editable=1;locked=0;connectable=1;" vertex="1" parent="1">
          <mxGeometry x="220" y="585" width="90" height="30" as="geometry" />
        </mxCell>
        <mxCell id="OlI_2qXUzGhfWNakAulT-36" style="edgeStyle=none;rounded=0;sketch=1;hachureGap=4;jiggle=2;curveFitting=1;orthogonalLoop=1;jettySize=auto;html=1;exitX=0.5;exitY=0;exitDx=0;exitDy=0;strokeColor=default;align=center;verticalAlign=middle;fontFamily=Helvetica;fontSource=https%3A%2F%2Ffonts.googleapis.com%2Fcss%3Ffamily%3DArchitects%2BDaughter;fontSize=12;fontColor=default;labelBackgroundColor=default;endArrow=classic;movable=1;resizable=1;rotatable=1;deletable=1;editable=1;locked=0;connectable=1;" edge="1" parent="1" source="OlI_2qXUzGhfWNakAulT-35">
          <mxGeometry relative="1" as="geometry">
            <mxPoint x="440" y="550" as="targetPoint" />
          </mxGeometry>
        </mxCell>
        <mxCell id="OlI_2qXUzGhfWNakAulT-35" value="Next item/text" style="rounded=0;whiteSpace=wrap;html=1;sketch=1;hachureGap=4;jiggle=2;curveFitting=1;fontFamily=Helvetica;movable=1;resizable=1;rotatable=1;deletable=1;editable=1;locked=0;connectable=1;" vertex="1" parent="1">
          <mxGeometry x="470" y="585" width="70" height="30" as="geometry" />
        </mxCell>
        <mxCell id="OlI_2qXUzGhfWNakAulT-72" value="" style="whiteSpace=wrap;html=1;aspect=fixed;rounded=0;sketch=1;hachureGap=4;jiggle=2;curveFitting=1;strokeColor=default;align=center;verticalAlign=middle;fontFamily=Helvetica;fontSize=12;fontColor=default;fillColor=default;movable=1;resizable=1;rotatable=1;deletable=1;editable=1;locked=0;connectable=1;" vertex="1" parent="1">
          <mxGeometry x="690" y="180" width="490" height="490" as="geometry" />
        </mxCell>
        <mxCell id="OlI_2qXUzGhfWNakAulT-73" value="" style="shape=image;verticalLabelPosition=bottom;labelBackgroundColor=default;verticalAlign=top;aspect=fixed;imageAspect=0;image=data:image/png,iVBORw0KGgoAAAANSUhEUgAAAOIAAAEVCAYAAAD98DnCAAAABGdBTUEAALGOfPtRkwAAACBjSFJNAACHDwAAjA8AAP1SAACBQAAAfXkAAOmLAAA85QAAGcxzPIV3AAAKOWlDQ1BQaG90b3Nob3AgSUNDIHByb2ZpbGUAAEjHnZZ3VFTXFofPvXd6oc0wAlKG3rvAANJ7k15FYZgZYCgDDjM0sSGiAhFFRJoiSFDEgNFQJFZEsRAUVLAHJAgoMRhFVCxvRtaLrqy89/Ly++Osb+2z97n77L3PWhcAkqcvl5cGSwGQyhPwgzyc6RGRUXTsAIABHmCAKQBMVka6X7B7CBDJy82FniFyAl8EAfB6WLwCcNPQM4BOB/+fpFnpfIHomAARm7M5GSwRF4g4JUuQLrbPipgalyxmGCVmvihBEcuJOWGRDT77LLKjmNmpPLaIxTmns1PZYu4V8bZMIUfEiK+ICzO5nCwR3xKxRoowlSviN+LYVA4zAwAUSWwXcFiJIjYRMYkfEuQi4uUA4EgJX3HcVyzgZAvEl3JJS8/hcxMSBXQdli7d1NqaQffkZKVwBALDACYrmcln013SUtOZvBwAFu/8WTLi2tJFRbY0tba0NDQzMv2qUP91829K3NtFehn4uWcQrf+L7a/80hoAYMyJarPziy2uCoDOLQDI3fti0zgAgKSobx3Xv7oPTTwviQJBuo2xcVZWlhGXwzISF/QP/U+Hv6GvvmckPu6P8tBdOfFMYYqALq4bKy0lTcinZ6QzWRy64Z+H+B8H/nUeBkGceA6fwxNFhImmjMtLELWbx+YKuGk8Opf3n5r4D8P+pMW5FonS+BFQY4yA1HUqQH7tBygKESDR+8Vd/6NvvvgwIH554SqTi3P/7zf9Z8Gl4iWDm/A5ziUohM4S8jMX98TPEqABAUgCKpAHykAd6ABDYAasgC1wBG7AG/iDEBAJVgMWSASpgA+yQB7YBApBMdgJ9oBqUAcaQTNoBcdBJzgFzoNL4Bq4AW6D+2AUTIBnYBa8BgsQBGEhMkSB5CEVSBPSh8wgBmQPuUG+UBAUCcVCCRAPEkJ50GaoGCqDqqF6qBn6HjoJnYeuQIPQXWgMmoZ+h97BCEyCqbASrAUbwwzYCfaBQ+BVcAK8Bs6FC+AdcCXcAB+FO+Dz8DX4NjwKP4PnEIAQERqiihgiDMQF8UeikHiEj6xHipAKpAFpRbqRPuQmMorMIG9RGBQFRUcZomxRnqhQFAu1BrUeVYKqRh1GdaB6UTdRY6hZ1Ec0Ga2I1kfboL3QEegEdBa6EF2BbkK3oy+ib6Mn0K8xGAwNo42xwnhiIjFJmLWYEsw+TBvmHGYQM46Zw2Kx8lh9rB3WH8vECrCF2CrsUexZ7BB2AvsGR8Sp4Mxw7rgoHA+Xj6vAHcGdwQ3hJnELeCm8Jt4G749n43PwpfhGfDf+On4Cv0CQJmgT7AghhCTCJkIloZVwkfCA8JJIJKoRrYmBRC5xI7GSeIx4mThGfEuSIemRXEjRJCFpB+kQ6RzpLuklmUzWIjuSo8gC8g5yM/kC+RH5jQRFwkjCS4ItsUGiRqJDYkjiuSReUlPSSXK1ZK5kheQJyeuSM1J4KS0pFymm1HqpGqmTUiNSc9IUaVNpf+lU6RLpI9JXpKdksDJaMm4ybJkCmYMyF2TGKQhFneJCYVE2UxopFykTVAxVm+pFTaIWU7+jDlBnZWVkl8mGyWbL1sielh2lITQtmhcthVZKO04bpr1borTEaQlnyfYlrUuGlszLLZVzlOPIFcm1yd2WeydPl3eTT5bfJd8p/1ABpaCnEKiQpbBf4aLCzFLqUtulrKVFS48vvacIK+opBimuVTyo2K84p6Ss5KGUrlSldEFpRpmm7KicpFyufEZ5WoWiYq/CVSlXOavylC5Ld6Kn0CvpvfRZVUVVT1Whar3qgOqCmrZaqFq+WpvaQ3WCOkM9Xr1cvUd9VkNFw08jT6NF454mXpOhmai5V7NPc15LWytca6tWp9aUtpy2l3audov2Ax2yjoPOGp0GnVu6GF2GbrLuPt0berCehV6iXo3edX1Y31Kfq79Pf9AAbWBtwDNoMBgxJBk6GWYathiOGdGMfI3yjTqNnhtrGEcZ7zLuM/5oYmGSYtJoct9UxtTbNN+02/R3Mz0zllmN2S1zsrm7+QbzLvMXy/SXcZbtX3bHgmLhZ7HVosfig6WVJd+y1XLaSsMq1qrWaoRBZQQwShiXrdHWztYbrE9Zv7WxtBHYHLf5zdbQNtn2iO3Ucu3lnOWNy8ft1OyYdvV2o/Z0+1j7A/ajDqoOTIcGh8eO6o5sxybHSSddpySno07PnU2c+c7tzvMuNi7rXM65Iq4erkWuA24ybqFu1W6P3NXcE9xb3Gc9LDzWepzzRHv6eO7yHPFS8mJ5NXvNelt5r/Pu9SH5BPtU+zz21fPl+3b7wX7efrv9HqzQXMFb0ekP/L38d/s/DNAOWBPwYyAmMCCwJvBJkGlQXlBfMCU4JvhI8OsQ55DSkPuhOqHC0J4wybDosOaw+XDX8LLw0QjjiHUR1yIVIrmRXVHYqLCopqi5lW4r96yciLaILoweXqW9KnvVldUKq1NWn46RjGHGnIhFx4bHHol9z/RnNjDn4rziauNmWS6svaxnbEd2OXuaY8cp40zG28WXxU8l2CXsTphOdEisSJzhunCruS+SPJPqkuaT/ZMPJX9KCU9pS8Wlxqae5Mnwknm9acpp2WmD6frphemja2zW7Fkzy/fhN2VAGasyugRU0c9Uv1BHuEU4lmmfWZP5Jiss60S2dDYvuz9HL2d7zmSue+63a1FrWWt78lTzNuWNrXNaV78eWh+3vmeD+oaCDRMbPTYe3kTYlLzpp3yT/LL8V5vDN3cXKBVsLBjf4rGlpVCikF84stV2a9021DbutoHt5turtn8sYhddLTYprih+X8IqufqN6TeV33zaEb9joNSydP9OzE7ezuFdDrsOl0mX5ZaN7/bb3VFOLy8qf7UnZs+VimUVdXsJe4V7Ryt9K7uqNKp2Vr2vTqy+XeNc01arWLu9dn4fe9/Qfsf9rXVKdcV17w5wD9yp96jvaNBqqDiIOZh58EljWGPft4xvm5sUmoqbPhziHRo9HHS4t9mqufmI4pHSFrhF2DJ9NProje9cv+tqNWytb6O1FR8Dx4THnn4f+/3wcZ/jPScYJ1p/0Pyhtp3SXtQBdeR0zHYmdo52RXYNnvQ+2dNt293+o9GPh06pnqo5LXu69AzhTMGZT2dzz86dSz83cz7h/HhPTM/9CxEXbvUG9g5c9Ll4+ZL7pQt9Tn1nL9tdPnXF5srJq4yrndcsr3X0W/S3/2TxU/uA5UDHdavrXTesb3QPLh88M+QwdP6m681Lt7xuXbu94vbgcOjwnZHokdE77DtTd1PuvriXeW/h/sYH6AdFD6UeVjxSfNTws+7PbaOWo6fHXMf6Hwc/vj/OGn/2S8Yv7ycKnpCfVEyqTDZPmU2dmnafvvF05dOJZ+nPFmYKf5X+tfa5zvMffnP8rX82YnbiBf/Fp99LXsq/PPRq2aueuYC5R69TXy/MF72Rf3P4LeNt37vwd5MLWe+x7ys/6H7o/ujz8cGn1E+f/gUDmPP8usTo0wAAAAlwSFlzAAAOxAAADsQBlSsOGwAAP61JREFUeF7tnXmYXVWZrzuMikODDC00goID7YgMIoqKgCAOgCAKAiqKMdoOYNs0EEBURoGEJnMISWpIJalKVaYak1QlqQyEkAakJYjKFYz3kdtgR/CC3dc/6v7ek/rSKzvr7NpV52Tvdcj6nud96tQ6Z5/1rbW+37fWns7+m4GBgUgkUjDewkgkki/ewkgkki/ewkgkki/ewkgkki/ewkgkki/ewkgkki/ewkgkki/ewkgkki/ewkgkki/ewkgkki/ewkgkki/ewkgkki/ewkgkki/ewiyseODhEvfObt9f3CR+KwYCZvGUxq4PyOe9xV5iTzEK/mbQ9JlaaMejE+s7L5Tf+zjt2GNCXcdb9N4ssdX5bGhslZ/1M1uWHyKfveOgzxwrFjrbhMjTasdPE+3Yw9ohtuvDpx0f3sIsUIkcQoSP3DNz6cBN98wbuO7OxiC5/u45Az+btrDUiVPmdF0q3/9WvEbsK0qdqPdW0o6bJzZ7vyMEaMftU1q3taOx6zvye3/xWhKMyrbedd+igRvHN3m3DQF8G3f/Yvz/06wFK94n318v9hOlpKLyz9E2xirkdhDrxIrE+O9NS1cfKd9fJ1492A5LLLkK8SYcuuaO+oEf3DwzeG6dvIAgeEG+v1kcKg4Q+02s77iCAKiVdhAI+Nu0dNVH5P9hev07gtf32dD44a2zBkgYk+o7l8v3IwSzConx1WrHVsbIt11oECvEvhL7v8r3w8XBAkFaci+J0acdH97CLFCROu63BIXrIJC5f3Lv/ELBLwbd9Yv/CeCGhX3flv/vFmSzgybUtff7AoDO9n13ntCOq2+v28k3ZpYZ85f965zFq75Am5JJhLYyq/i+M0/wwfULiA98Vt+fKP5BHD59bs85lPnGjD7wfXee4LPrF+CXZsU/yP/jxTvEYYJVCmIszYw+7fjwFmaBSug4pmpzjE4j21HetKR/oLX7gcKY1tRTyljJQMC/+5uXt8j/M8UJ4ih15jo6222HLWWLbsfsBb0lP1z/AP/UjtamJauu5X33PcvW9IHvO/ME30gabqIgZihX318gPi7eO7mxazxj47aDsQupHfjnJgqnHeeJj4p3CcTIzMgyNRchsl+1gxBxlMB94c8v6yPF2/K1j5Y6yvWRANb+yTL5f7k4WxynpekGN9DZD2Pwf/+H5we/qVh75PH/VWqHm5UH27F8fkf/3bxn5cyeBC9t/6///n+D31Cc4QMxgU8WxE4AXykuEadPbeqe4i6v7TO0IwQjpmmHmyycdrC//kWBGJkZWaayz7iHNvXqJ4m3MAuqhJ3r7UFuy41QRGhGNkNY1nkMdl1b73r5/y/iMnHaxPrOh0yIBDLtCEWEZgQkM0uiHRtautbOxl8r52ATs2hIhhhJbLYb4wTwbQIxXqil6UxXiIwZYxeSEdv4bQnRacfNAjEyM7JMZZ+RWXEvbebVTxJvYRZUyd44YUIkkEPrOGzzr7eUsrENMINdv7DvEfl/u/iuOHdSQ+fDJkTr3NCMxIBfiXY82tqzti1Z/uCjvxrcKhxr73toe0J0AniquElccd/8ZY2uEBkzxi40Y1ZMxor8nyxuEF8WHEA7WrCvuLc28eonibcwC6pkH5woJ8SXXnppoKGhYaC/v3+wZJtR3t3dPfjfrjdfADcs7PuF/J8orhFfmtzQ+fNaFGLDor7NrT3rupPlIQoRn0xoTgA3iDvF92bMXzbfFSLvh7YqwYhxjxDrBIn9W+IT4hhxoNhHm3j1k8RbmAVVsi9OlBPic889NzB69OiBK6+8svTajNfXXXfd4H+73vwBvPIJ+T9d3Cgun9zY+VhtCnHlL9uWrVuRLK8hITaJ8eKf7m9evqCGhUg7xonvC447cNCG0zL7ahOvfpJ4C7NAJTgxlBCnTZtWwiwpRGZI19z/eQ2bNm3aXm7/Z7UUIc4QPxZXSIj/XqNCfFJC7EuW15AQ5wnOw13NEeAaFuLcwXZcJT4j3iPCEuLmzZtLs6ItUV0hUuaK0v3fXt9yyy2lv8CS1l5TnsVShHi/+In4xnCF+PTTT+e6vMaiEMOwMkK0dvyTQIjvFWEJkb+ICjEymw1HiO6ydvz48dvFx/fwXpaZsUwA/1L+j1iI7PtGIQ7PdkMh/p0IS4gYy1MCeDhCdN9jWzDjPT4zlFVbiJYErF15WRRiGFbzQuQvAWzLS6wWhYj/7j5vXlYNIbKCyNJnu8KiENPxFmaBSnAiqxAxdx8PY1/LnV1aW1uDFyLLY/Z787ZKhUhf01+MAa/ztijEdLyFWaASnBiOEDH29VyBMbsgRsoMLEQhIsCsB4mqbZUIkeW07WMDrynL0yoVosUN5L1/7lrNCRFLihAjAJJBQIBblnbfS74u916aVVOIJI2igqASIWKMhYnQNy672ioVIuON35B17HeF1aQQQ7BqCZEAIBsXFQSVCpHVg0veVqkQQ7EoxBFatYTITOgujfO2SoVYtEUhpuMtzAKV4MTuIkRmwyIO0phFIYZhu7UQK9mnqYYQqb/IAwRYFGIYVnNCZF+KpVyl+1SIwHf0NatVQ4ghWBRiGFZzQqxUQGZRiNssCjEMe8UJkdMV7l0VrvEe+2O8l/weyoYzy0YhhmFRiOl4C7NAJTgxEiFyPs5OznIy3w6C8FnOddl7LG3d7wG7TC6rRSGGYVGI6XgLs0AlODFcIXIZGyeVzZgVERezHOW8b+bOiIgVcQ73oEkUYhgWhZiOtzALVIITwxUiYkqeUKbMBJm8DtK+ZyQixKIQw7AoxHS8hVmgEpyolhARme/z9j3MliO56yEKMQyLQkzHW5gFKsGJoYTIDMdrYKmZtjRl/7Dc0pTvQbDDvbolCjEMi0JMx1uYBSrBiaGE6GIicg/WgB2sMbEZiNK+x8RMeTxYE4VYlNWcEDETj8EMZ+aeonCN/yl39xXZ1oz3k9ukWRRiGBaFmI63MAtUghNpQgzBohDDsCjEdLyFWaASnIhCzMeiEMOwKMQRWhRiGBaFmI63MAtUghNRiPlYFGIYFoU4QotCDMOiENPxFmaBSnAiCjEfi0IMw6IQR2hPPfOsL4CjEHO2/o2PD1uIjF1oFrwQecwyD6MM4Sm1rrkBAIMBPKQQQ3vgqu85jz4hhviAT4yHp6YE8E5C5Mm8oTwt2MweuGqPgw9SiDyW2R4ZHYo998cXSh3lPkd/KCECT+YlmENJKrSDAOBpwIl27CREC46QHvJpjx7nacyuj+r7skJkzPgMbQ/FiO0yjyAPR4hu5xHELI+KhE7Dl1snL9juH2QR4jV31Jc6nCzu++48YUZHhMwQFgBOO3YSItBmyugD33fmCbGAL24yzCLEGm1HcUJ0HQOCmA6kU4sm6Rvgc0vX2g3yv6wQgewdSjvwzRUhIExXiMn3ec47y1Tf9+UJPrjJGnxCbFy8chxl7ueAMfR9b94QC8R20rdEO4oR4sT6jk6cdJ0LmZvumVfquI5VG3vk//YHlU6f17OE5WgymEPFArlt2fp18n+exuG/k4kkZBCnkt/L+C5KQly04oEraRNj5NsmRIj9Gc3L/o/Tjh8IE2J+z0ec2bL8NDqPjrX1f6gwwCw369p6n5HvCwWP7v6RuLx91YMXTajr+L/MMqG3g5mOdih5/Kd8XyyaNJs8wDj4Zs6QwDdbbi7oXvuwfOdJu/eIH4qLp8/tWUzbQhcjMULM044lfRtIhrSDR5BfKT4t3i3yE6I4aHbriq8oIz+LU6FT19b3O/ncLRaIKeI6cZn45LyO/tGT6juf8m0XGrMWrPhD99pNvfK7TdSLKVqm9imZ/Jfv8yGhWPnr/M7+zfK5Q8wRdwsC+EJxtsS4yLddaExu7PrLwuXrSSa0o1HcKb4jzhLvFAeJXIS4t3iDeJv4+PyO/jtbutfWtfasa9d+y2otmzbI0Y3ioRAYDFxEyCzSIAgAnnn+eXGq+LA4U5n6+pauNferHYvUjpVqxwPaPph2dKze2C8/accS0SSmCoLgR139D90i/5vk+0L53iPWaJsHk99RJPIT37tEq2A//WYxRnxWfFycoV2HrzZ3rpmktjSrDctYgmvbYMYA5Cft6BQk9fsExxuuELQBTaCNvX3a8eEtzIIq2Uv8rThSnCS+INhZJSjoYKbrFoGjIYAv80WdmCBuFF8XZLATxfvFh8T54nviNsHylWBvFr7vLAraQTKZLPDzWvFd8Y/in8VPBfssswWfDW0c2KeaKUiGV4tLxGmCODpZnC0YG8aIsWLMQmwHMU6sE/PEPhqgDWgCbezl044Pb2EWVMmeYj/xRsGa+EzxFUEg3CoIhEmCJWAIELQMKp12vSALnyc+KI4RZDF2ssloBAazJQHN2n+i8H1nEdAO/LlLsI/Lsu5yQRAwu39ZsEQaK+4Q9wq28X1XERATxMbt4l/E1wTCO0GwpHuXQIyMDWPEWDFmjF2I7SDWiXliHw2gBTSBNvb0aceHtzALqmSUYD9xf0EGOE4wu3xJfEuQIa4R7IeFALMG2ZeZg8A9VzADIsLDxaGCdrxPnC6+KL4pECQBw/a+780ba8f3BbMG+1b0+0fEKQLfCWITJAdCQvEdiAl8+ra4VHxKfECQCBmHIwRjwtgwRowVY0abQ2sHMU6sE/OMARoghtAE2hjl044Pb2EWqESwPEX5B4o3C2YUggGn6EQyNIFCti4SfACWnRzVYtYjAzP4CJCOYylBOwgEshqBQIY7R1wgQmgHWDs4TI7oWAq9R7xd0B5mFNrGfi8zzedESOOALyQKfPuoYJfgKMFRRsaBfSvGhLbQDsaKMaPNbB9SO4hxYp2YJ/bRADGEJtBGLkI0MXLQZr/Zrb3Hzpi/7POzFqy4RK8vr2vr/Ub9wr4x4ltF07R0NUdGybrHCzqMjEvmYvBfJ14lyGD76bNHqh0XzGxZfrHa8dXBdnwz+Z1FIR9pBwHKzE073iIIXI7SHSi/T7+/efkXNQ6Xyv+vaZvRIohxaOlaiwDZH2fmIHnYLEjwvlYwDq8Wr9Pnjx9sx2WhtUP+kfzsuAJJ+63i7wVJBBGiCbTh1Y4Pb2EWqITKJtZ3HHfv7PZVycO7AfLC1KZujtAhwMMEg48IEeBe05q6D9RnaqIdU+Z0sd9H9mXwEeDrJzV0flHvPZ34bHBMqOv4/cyWFSzlWHmwL3WAeI3YR+w1sb7zeH1udXK7wHhB8XKL/GUmJ5HYbG4i3EPkJ0R16lvk1FZOhHOi+Qeek58hwAlYTnbTiZMbuzj4wgxiWXjf6fN6DtJ7j3J1Tcjt4IS4XZgg4XHUrpRQ1KaLaVvoF1ZwiZidCNcs90n5bkIkgPcZTOpbuWIleVlcKLixNKWxi4sRLBluT+qiJELwaceHtzALVCJnZtXSpWF2idvC5etZ2r1JlDpQCeWnBHettINkQTsaFvWx1DtSr3/HFSu+z4YIQpPoNsr3HZZ0asdikrpvm9CwWJrXvprTLszuBwsTI2cUcpsRR8mRrckLq8kY3K5DZxcJgenLqnSe9vs4tM9+CoHwdxLiGvcWI7DZx/fdecIM4rt4nYDVTD5b+yxjaFNyJqTtIVy0Tr8mfbNEor7nIgo7yMGqxNtW4DtoUxH4/AGSt5bZnMclltjf5UJvxMgyO1ch7uCoe/sQt+/4bifJC7ttJTlTEBz3Ny/nWlOOOnK+6u0S4nr3omnawUw/ramn8Ftw2vseKrUDQSbbMbNl+aKmpatv4H33PbsroGlJv/c784RYwBdXYMQMZep797A/uzk7BT4JkbbyXlEQ075dFieWuCqIWEKMzIy5HjXdEyet4+gwHCZwQrmhlptj8dENAjpvdusKLnfjHCGnJj6gZdKDrhCZbQji0G4Mdn0cbEdfc+eae2mjlVuQczNuKGY31NrM6AjRPRH+PjeeDBuLon6/hhiwe1uTviViiVMZHEm184ilWVFf4dVPEm9hFlTJXq5zBDvBEkrwmtGJdJjbeVqacj8iV2xwsvjMSfWdmyzImQ1pV2g/lcHsQjAn2rFxQffaRvy1clYArAZCszI/lWGXhnHxxCnJYLeYCmEsmGCS+6+eWOK87j8IZkVOxeQixL3djqOTQwwA349Hab/q5/KfS8S4POz8SQ2djySDJDTz/XiU2vEYF6cnyxFtaEZCtOW1I0T3YumzKHOFyOfZLgRLxhE4sWR3kDArcm6Ro9ksT/fQpl79JPEWZkGV1MSvuPl//azvcfnPdYtcqnTp5IbOn9eiEBsWrXyCuyyS5SEKEZ/wze1j9T23D5EQuYTtHMpcIYbUlmT/m3+KJW7p4tpTYukiwcl+jqJy0CaXa01rWIgrn5D/228MntzY+ViNCvGXEuKKZHkNCdFuDC6tTCirPSHuEEtcO8ulkVzt9HpRrBB5bBrPQkySfFJwHpYixO0/leH+Zk05IeI7bbBnNuZtZdqR+XdNi/a/jBDdn5j4PGU1KkSLJS605+J7rrjJ7TaoYQmRpwLbA0nztBQhen88yidEHoxqD0glkHk9nGc0VsMqEaL5b2Lkycx52xBC5IBNrQrR/UVAjgCHI8Sk8XjuIgYfKxPAw/qlb0smGAIkqeQ9q4xUiOavmwQRJWOSp+0mQvyqCFeIPDN/OI/brqZVQ4j4TiLhKcY2u9TKjEjC4NHn7hOYbXbM06IQ0/EWZkGVZBIigUBGzjtwzaohRIzn/hPQgS2xMy1NSSL4z1gwE9IGlth5WhRiOt7CLKiSTEJkwG1ZV4RVQ4g2CyJA20eslaUphq+IEQHyF+KMODyraSH69k/ytkqF6GtDEUvtSoRoZqsSSyp5WhRiOt7CLKiSIYVI1iX7FmnVEqI7g9CmWhKiu1tg+7t5WxRiOt7CLKiSIYVYRMAmrVIhYogQMTKTAPtbeVslQmTXwHxnTPJeVmNRiOl4C7OgSjItTYu2aggRoy0c6CgiiLFKhIjvLEXdI6d5WxRiOt7CLKiSTAdrirZqCbFoq0SIIVgUYjrewiyokijEHC0KsViLQqzQqinE5ubmwVf5WxRisRaFWKFVS4jt7e0DY8aMGVi/fv1gSb4WhVisRSFWaNUQ4ssvvzxw1VVXlYQ4duzYga1btw6+k59FIRZrUYgVWjWEWFdXVxKhweyYt0UhFms1K0QOmXP+KnkKg3NyeV5eVakQt2zZsoMIgdnx+efz/TGjSoVo42FkHQPOAydPe4xkDKMQ0/EWZkGVpAqR821cJJ0872aBkJdVKkQE9+STTw709vaWRMhf/q81Idp4WP9zYj/LFTZcBJAU3UjGMAoxHW9hFlRJ1YTIyWZwZ09eG+69c2Rn33WS5corFaIZ4kOI/C3CqiVEGw/6lauFrG/5H8FZn5sNJUT7PPBd7rauRSGm4y3MgiqpWIi8R1a2y6/APs9n3Pe4rIwyXhNA7m08vOd+zrUoxG3mGw/6y5aZ7iV87rW19hnX3DFMjhPb+hJiFGI63sIsqJJMQrQBcgfKBpEBdAXFa+5swPiMvSbLutsx0PxPubsNlrwzIgpxm9l4sHIAu53L+tZmRj7H/8MVos2EfJZtkhaFmI63MAuqJJMQEQWDYyAUBs/e568ZAWICcwcbcwPC3ZZy+04LCne7KMRtZn1Gf1mfUeYTjtvX7mszd2zc15g7Nq5FIabjLcyCKqloaep7f6RCJLvznsH3mEUhbjNff2P011BCTN5Bw7jYSiY5TuXqiUJMx1uYBVVS8T7iUEtTd4DLCdHdBkvWF4W4zcqNB/+T/Gy/zpKh9bX1ry09k59njNz+5/OMa9KiENPxFmZBlVTlYA0CMxhA+3xWIQLbud9jQYNFIW4zt8+SxoyHuGwMkn2N0Ox9/rozJGNk/W64KxKzKMR0vIVZUCWpQsR8g45IXKHwmuyaHDzf51xLfjffAcnPRSH+j/nGw4z3rP8Qk3vKCGN8fKcnLGFS7ut/syjEdLyFWVAlQwoxBItCHNqY/RAaYmRpiRDLCSppyZVLOYtCTMdbmAVVslsJkUvdxo0bV/pbhO1KIZr4gGVo2syZNJapyYM5PotCTMdbmAVVUhNCtIeVpnReJiEWbbtSiHlYmceyRSEO4i3MgirZQYj2XPTQHvDJAybdx14PJUR7UGloRkDyOPFEO3YSIg8q5Qm7IRkPr+VBpTfdM6/kY6VCTO6/5mE1I0QgUEJ65DWPr8ZH9/nnQwnRPkM7QkkqNqsnffQJkcdj838oD/i0R1/ztGMe746PlQqRJfRwls/VsJoSIrMJHc7jlpmJ6MQi6N/4eElI+GdZ2ODxy0MJkYDhc2wfSjuY6dx2lBMi8MhrypiF+A7fd+cBAiQWiAliw/wbqRARHyBEO7iUl4UuxD8lA50gpozAwdGiQFjMDknf6EwF7xr5v4MQb57YvMNngYAuuh345QanweoDIS7ufaCbNiXbyv/0Acty3/fmAXUTCzYTGrYbo77PLESO7HIeNImd79zVFrQQJ9Z3zCUgkh0dKgSmfP5r95pN7fJ/+4NKZ7Ysn5HM2iFjM17Hqo0r5P+8SQ2df3b3g0OH1cb0uT1/xHeBEDM9qDTOiB5Uyb7NnWveJudeRIxkOToxVJjZ6Mj5Hf2/kO9tgsct3yguF5+ZWN/5G8RIkPu2DwWSCe2oa+t9Rn4vEk2tPevaKUOMvm1CgRhBhCTDJX0b1sn3ET26O+4jOqiSfcRB8zr6z5ja1N2DkyEzubHrLwu61z4mn7tFs5gkrhWXiDOXrnzws2pH6Xn0IUM75i5d/Wv5TDtaxWwxUW2bq/ee9W0TEtPn9WyVCDfKZ1YlDeJO8R1xLu9nEWI8auqgSvYWB4i3iY8JZhYe6D9VzBd0dKfoEgRN0eBHh2A2JHh/Jr4nPic+Kk4WpwuEiUAniCaxRITYjoWCQJ4obhPXC/y+WbDcmyUWCD4biu+AL8RGi2BVQgB/XZydVYhFWMhC3Eu8XhwhThTni+8LggIxEiQEMvsBIcAyaI6g08YJgvbLAvEdJ94rPijOEd8WdCyzZp0IrR34M1MgOPzkYMcYMVqwzCMh0sb7RKNgG993FQG+EBuI8HbB/uGF4mNRiCNAlewp9hOH3Ddv2XVaFq0Vm6fO6fqNlnhPT2vq3iJ+L/53CMxasOLR7jUPkSAYfET4DfEZcYJgVj9qdmvvV9WGfvH4lDldv1Y7fqttg2rH/c3Ln2hf+SAzOks6ZsHviss6Vm28dMb8ZSxP8f3JqXO6n5L/z2iboPxvXLxyrfxlv/AW8c+CZPgJcXwU4ghQJaPEvhPqOubgIAdDOJAQKhxQkq9/aVu2brz8ZuZgBv+weIc4bGJ9xzzawQEP3/ahYO2Y276amZpZ8KL2VQ9eIP9/xcEmTnf4tgsBYgQflSz+0NX/0Fj5XjpQJj4gjolCHAGqZNSEuvaf1MphfztJr4B9Xr5/QZwhjhVHaua4jE7miKlv29AgoCXGlzpWb/ya/P/kpIbOf6NttXAayS76mD63h5mRZMjxhXeJo6IQR4AqGSXHnvadCOdkMh1aND6/6My5S1ezD3WaYL/wTQrqDoI7+XkC2/e9eePzi2DWcnu2ZvhSEvF9jqBPflfe+JK0nQdV358nCNx3irck2xGFmAFVghB36DgCxM7XhQDLuGQgUDa7dQUHO1gSnSTeKiGuY+nkfo4E4/vOIkB07vWyQBDMbFm+uGnp6hv4jPsebbZL9EIAX93ZmpihXH3PEeqzBAfL3k5ZFOIwUSV7JDuO/SuuLeQi5aKNC7a5TpQgdi//ovM0k/TI/68IguD9Wq5ucIVoIuSi8aLNLpr2BanasXx+R/9dboDYbMk1qs/98YXBbynOCGCueSUxmI+OEDl9dLE4VRzra2MU4hBQidtxZGH+x+GQjCBwl5103uzWXvZPOORfCoKJ9Z0PmRBt+RqCCF0jqbjBTDvq2nrXtXStud8NENpBMgzlDhiMpIiPtg/uCJHg5WQ+53JPoSwKcZiokr3djiMAyMI+4w7uvC7OTRqCYjnqdl79wr5/k/8cPud84TmTGjofNiFakJhxTaP9HARkuRt9V9hTzzy7QyAMtuORBd1rFyTLuePCZ/hOG7gjP28jkVhCdITIedobBAF8phtP1pYoxCFQJfu4HUcg++7QZ/D55a8sv2uyKyzZgaXOW9jH9ab3iqvFRRLio+WESAIx/4sUorcdi/oeb+1Z15ks9wUvjyLgZzBoD23I+ps01TJ8wje3j9X3nIK5Q5AQP0tZFOIwUSVD/lQGF+YSxARAUEJc1LdZ/k8TpWw8ubHzsTQhcpFx0eZvx8on2patK10f65Yngxfhub89WoSVESIHzTivO6yLvouwmhYig2/LobCEuPIJ+c/lXzeJr7s3BpcTIkkl71nEtTLt+KWE2JssTwYvv1XKOHCxNO0poh1lhMglb5lvgyrSalaIbhYOVIjWeVekCZHgRYiQ/HHdPK1MOzL9eJT5b8tTSyx52hBCHNZPZRRhNSlEW5Lyg7O8NiEWkYnLzSTy3zov86+4IUralXcQY5UK0U0gtlLJ06IQ0/EWZkGVlBUig2xZGAjeomaTagoRoz0s7/K2SoXo+lzECiUKMR1vYRZUyZD7iGZFDLxZpUJ0Zz+bEQOa2TMJkdMVbv+zz5h3MolCTMdbmAVVslsIEb/dmb0W9xFJJu6DepJPVc7DohDT8RZmQZVkFiIzSFFHHCsVIn6XewBLnlaJEM3YZ6ctRVgUYjrewiyoksxCLNIqFWIoVg0hFmlRiOl4C7OgSqIQc7QoxGItCrFCi0IMw6IQ0/EWZkGVRCHmaFGIxVoUYoUWhRiGRSGm4y3MgiqJQszRohCLtSjECi0KMQyLQkzHW5gFVRKFmKNFIRZrUYgVWhRiGBaFmI63MAuqJAoxR4tCLNaiECu0KMQwLAoxHW9hFlRJFGKOFoVYrEUhVmhRiGFYFGI63sIsqJIoxBwtCrFYe8UIccuWLQPPP5//jw9HIYZhUYjpeAuzoEoyCfHll18eqKurGxgzZszAk08+OVian0UhZjOSJMlyV1kUYjrewiyokiGF2N7ePnDVVVeVRAi9vb0lMQ5FNQMiCjGb0e+MEUmT5Flti0JMx1uYBVWSKsTm5ubtAhwu48aNG/yWym13FyJJLZnofJAkrf9JniTRaloUYjrewiyokiFnxPXr1w+MHTt2+wDHGXHkNlIhktSs/4cLybRaFoWYjrcwC6ok0z7i1q1bty9REVnetrsLcSQzIsmTJFpNi0JMx1uYBVWSSYhmHAyIR01HbiMVYlZDjLYkJXlW26IQ0/EWZkGVDEuIRVkUYjbb1YkyCjEdb2EWVMkOQrzpnnmlh4KGZjwrMPmAzyxCDOlBnxhPYXYDYbAdOwmRpzbzhOHQjGdn8iRmt4/V91GIg3gLs6BKdhBiiE/a5Um1PD3XRFam83YQIvDo65CCmaTge/KxT4g8lZf/Q3hst5klEYuVKMSd8RZmQZXsIESwICCIcbxISAiIkNmQ58qndN5OQrz+7jmldvCUW57U6/v+vCCIESHJgWSXaMdOQrT3aDtB7PvOPGFFgn9uEolC3BlvYRZUSUmIBK3rHP8T/LxXJAQug++KECif19H/sPwvK0QgIOho33fnDe1wRQhJISbbSXtoa/K78obHprPb4vqWVYi0u9zj4PO25K4BBCPECXUd69gncZ0LGQuAxb0P9Mn/GYLOu2JaU3ev+5z90LHdgJbutRu712xq5XUy2EOGJKHk97L6PlWINl7MRkUauwYkhGSsByPE6fN6zqOjkrNJiDCozBD3Ny//D/m+UPDE4B+Jr7UtW3+Fksr/9c2goYEIWXFMbep+Ub4vFk2zW1f8grYlVychQsIgZpqWruJhsXPFPeIqcUFSiMCYUF7UMrvcrgEEI0Rx8H3zl42lo3AUx0LElspKHFu7127qld8LxBRxvfiyOLuure9HiDHkdgDtkAj/3LN2E7M6CaVBTFGC+QXv0VbfdiHAqgMf1de/k88dgmfojxPfE5/jvaQQgURv2xaBb9cAaFMIQtxHHCje3tqz7kuzW3vni/76hX0Py7knGhet/I14KhSW9G3YIF97xFIxR4wXLIkuFKeJj7SvevAC+T9D7VipYHmoYVHf42rLr33fVxQLutc+Kl+XiXbBjDJd3C1+snD5+il1bb3r8F3teIwg0TbBjEPT0tVPdqzeuFa+dguSyExxq/im+PSEuvY/18oSm5UTIm3pWktcmRC/InIX4l6Dlb1FnCwuElcLMtxs0SLobFhUMOYHMyEiZDb8sRgtPiVOEicIOvHz4krxM0EHzxdtIqR2tApmk2kCP5nZ8ZmZ5Vpxm5gsmC1ps23n+848MT/wqU6wf4i/l4jTNdPPY0VyzR313uAPCWbJifUdf9U+OgmR4w3EE6urU0SuQtxTvEYcKt4rzhZfF3TsnYJAIFsTzCHAPuFUwT4JnfZdgeg+LN4ljhHHijMEHUpSuV1MFLSDzvZ9b97gBwIkiG8WPxTfEF8SJMOvCUR5kyApknRou++7igBf8OkuQQIhGX5GnLS494GPKrh/hRg5+c8yNTQ4RceS9F7NhoOrE5I08cHxBhLKh8SbxevFnj7t+PAWZkGV7CHYT3yDYFb8gKBDWScTCNcJnGPKDgECk4EncFkKIcKPCUR4hPh7QSY7TnxSXCoQ6zWCdiBe3/fmDX7cIEgU3xII8NPi4+JUge9fEIiTpTdtpu2+7yoC+nKs4AANSeNcwYrqneIdiPG++csaJzd0biHYQ4NZUPvjz2lXZ6P8ZYndLEjWTED0Ozp4k3ityEWIowTL0/3EweJocbxgf4vOJTtfJlg3AwItCupnliNozxdnCQb/HwQCJJnsL2gHSeX9gqAmsdC5iJLtQ2kHmZdEwiqE5TT+0hZm9fcJsvKZgrZeLELxHYgJYuM8werjRPE2cbgggGkHCZLP3ihYWXGaY4noFF0CARQF9eMHB5vYRZgl7hAkbeKF/meViC728GnHh7cwC6oEITIrctAG9R8kmFkIBgKD/S6WfQRKCLB2R3zsCzILMvu9UbCWp9NeJVhqcwCKoHiHoFPJcAQ22/u+N2/wA39ox3vEWwX+HjLIYYK20UYS4wdFSOOAL8SGJY8jBX6TCIkh/qdtnxMEN8tvxMg+JfvFHKBCmEWCH+x/s8zmQBmrJhIMyZu4oR2sFkf5tOPDW5gFVVIS45TGrjdoyq4Tf3Kn8NDQkuLBWQtWMLMRpAQunfU6gQCZ2feaUNf+E3326eS2ITGhruOJGc3Lvi1/rR2lIJ42t/tD8n+Jb5uQ0JKzbe7S1QQs+1EkDRIfifzVgvE4ZOHy9SfWtfWO1RJwgcasc9tRbI4G924QG4ukcfHKNe0rHyQpsP99i2AX4XLBQT+SC2PC/uHeIh8hTqzvPECd+wg71xx29u3chgAnurkqgkCY1tTNfhNLB5ajzIBkrj2tHZyz8n1HKNgJ7smNXZx+oR0HTp/b82GV/YmDCLTVt10IcKBj8HzgCwpoZmqbCVmRMA6vklC/xfu00c4/hoSdz5w2t+fxzv6HmAlZQpcONgl2z0gsJBUOZuYjRDk0i+AN/WoUYzCIX2xbto6jo2Tjkhg1W15RK4fNwa5O0czCvtThev27WrnUkFjhooNJDZ0r5DuzIrsHJTFKhGfSLsYp5JgiqRAvU5u6N8nvcwRLbnYFiClmQ3bX2HXzaseHtzALVKRO+63vBCyZj5mlSPAreTWEnYRtWNT3j/Kf/SsC4WAt6foZfPezwOzi++688V3VQWaeMX/Zv85ZvOqLtMnXVvrA9315QiwkRUW/4rP6nv1vjpZykIZdnJ/XSkJBjLRhfmf/d+Q7++wcG2GFwvK6tCwVXu348BZmgYpwBIfMOWYUu5yMu/WLhOsD8YNAMP8A/9j3kP8c5uegwNFcvE7Q2GcIHJYhbM/Fvr7vzwtrh91Ua+Cf2tHatGTVtbzvvkegk7G5Fcr3nXmCD8nVhgWx+p4jvxxl56DYEZThu9sWYDyKSu6+hG7QLu3DcvHK6YJVFgcrmd1ZZnMg06sdH97CLFARHecKkSAncLkhNwSze+FcHwlgdd5y+c85LHawT9DSdAOd7n6GAArl5lq7BcddfQy2Y8X8jv5xvGflBA0Bwj2hIfzKgN25gE82MzpC5Hxz6aoa8e7kWAECtv0yn9B3NeUSITAGM1tWcBqDU1wcgGJ2Z6nNsQcOAOayj7iX23G23AhFhGZ0prvcofPq2nofkP+cgOX82umT6js3mRAZeNrBlfchGUmFgEy0Y0NL91qOWG8vJ2AInpAMMZLYLJE4QuTKJcTIzHiyG0+AcBEwQi4yqXCTOb4lV1eMwezW3lXyneXpBYIDUBzNPkCU9hO1uVc/SbyFWVAle7sdRyAT9K49/fTTA93d3QP9/cXd3MlswmC6nVe/sO8R+W8nYc+b1ND5sAnRgsTspZdeKrWhoaFhoLW1deC5554bfCdfIzHgV6IdP2/tWbcwWZ68qx2f8Z020JYijF87sIToCJFL9bjqh9XJGW48AcJFwCHM7Kww3EQI25Jh30Py3a5b5iIKDtpwNJgjp7kIcR+345JCZMCvvPLKEgRAUeYLYO6qkP+TROmC48kNnT8vJ0R8nzZtWimZ8Pq6664riTNvK9OOzRJid7I8KUTGwhLi+PHjS+3J2/AJ39w+Vt9zUpzrkjl49hnKXCHy+VB+OyjZ/+Yfd7nId7uThyuZuIiCc4ksT3O5sib15xTJwgQswRueEFdyUyoX6nIJ1eWTGzsfS5sRXUOIRczwZdrxy7Zl61Yky9N+5wXfaUPeVkaIXKFCELM83el+xKHakqeVEyLJUL5zMwHX9HI5IctTrg7i6Gku15qmCtEsYCHarStXuL9ZkxSia4iSGZ4ld95Wph3D/l1TlqgBzYhcLsZdJD8QO92hP1Rb8rTyQizFEpe6scTmMjcu4eN6Zc4n5nOHvttxNShEbsnhboDMPzBcVBBjlQiRBMIsaCRn+TxsCCF6f7PG15aibAghWixxlQ0n9zlgk9v9iLUsRPfnDTIJkX0sgjikgzVZhYjhNzM5yaQIMb6ChejGUhRiOauGEIsWIVapEM2KWl7vJkLkdq8oRJ9VKsQQRIhVIkRXdJs3by4JMc6Iw7OaFaIFsJ3C4PWmTZsG383PKhEi4hs9enTJd5eA2pFJiJyyMN8ZC8Ymb4tCTMdbmAVVkipEMi6B7FKEVSJELNmGwNqReWnKrMhsWMSBGiwKMR1vYRZUSaaladFWqRBDsUqFWLRFIabjLcyCKolCzNGiEIu1KMQKLQoxDItCTMdbmAVVEoWYo0UhFmtRiBVaFGIYFoWYjrcwC6okCjFHi0Is1qIQK7QoxDAsCjEdb2EWVMluKcQtW7YMjBs3rvQ3T4tCLNaiECu0agvxySefHBgzZkzpb54WhVis7fZCrPRKkCjEMCwKMR1vYRZUSaoQEZBd8G0M94r/atxNHoW4zZLjkfVXBrgu1bbh9Uivs62GEKsRUyO1mhUi12RywXQlnRaF+D9WqRCT43HLLbeUGMrofy4at+24aJzthnvNbTWEOJKYQrz4X+2VlflXM0L0DZiVcRGyryMphyjE/7FqCdH6nsBEVDbD8T/9zV83aOl/d/bkPX6lgOA2s234Lndb16opxOHEFK/Zhr+ub/zPZ12z7/B9/ytOiFZut+a4t+XQUe4tO0YlFoW4zXzjQd8iMrBb1YDXJj77jGsW3HwX7/EZZknbNhng2K4UopUnY4p44n/e46/FGYmE/8F++iT5HcmEUvNCtAZb46zcBpcsSsfxHj/j4GZa+1mHSiwKcZtZvyMicH8yg/63mZHPDSVE+y7+8h6f5zWWHEOzagrR4sn8t3JfTLm+Ykn/eI1Ak9+RtJoXIo2kcdbAZMe4/ycHndeUVWJRiNvM+tkCmACkzNfH7ji4r83cMUtuX27MqinE4cRU8j18o+22j8lMzt/k55JW80JMNixZ7v6fHPRygzoci0LcZsl+N/P1sTsOyTHBEIId6EluX27MqinEZBuS5e7/yffwjVkRPw1WCMnPJa3mhWiNBN9Swf2fzOQuG/jfN6jDsWoJ8fnnny+Jr7e3tyRE/vI/5XnYrhIi/7OMs/06xiu5NLWlG/Da/XxSeMn/zaopxOHEVPK95NLUt43Pal6ILr4lgPs/MIgGHeYb1OFYtYTIJW0I0OWqq66qeSFiJi762g66uEK08eMzvO8ejClCiC5DxRRmcWQJxdpo+MSctJoVIkajXGiwlbvm/s9nGGgrs21GatUSIlZXV7eDENvbyy9hq22VChFL9rtrvEe/098Ep3tag/eg3Fgky32fq4YQMfMl6ROvXUv+zyzq+kVbrb1myW1cq2khhmDVFOLLL79cmgUR4dixYwe2bt06+M6ut2oIsZwxi9lyzz2aWk2rlhCLsijECu2pZ56tmhAxZkGEuH79+sGSfGxXCtHEByzj0maGkRrPd8Q3t4/V91GIg3gLs6BKdhAiD3EM5Vl2rvFYLwuAMp3nFWLaA1ebm5sHX+VnPCwz+ZxHnxB5BmGICZGHpyb7WH0fhTiItzALqmQHIdrTXUN5nh1mnec+6XUoIQIPpCz6KbWu8Qhxkpz7+OhyQrQg5wGtoZg9Qt2eRR+FuDPewiyokh2ECDy+GzGS/ejAIiEh4N+tkxcM1Xk7CZHHd4fUDkR4132Ltj+D3mnHTkIEBEsZM6PvO/MEH/DFTYZRiDvjLcyCKikJMflccbIewY+TRcISLekb4HNL19oN8n8HIbqzDRD0lPm+O2/s2fMuCNMVos02BgFNH/i+L0+IBVdc5hs+q++jEAfxFmZBlew7sb6jk4BwnQsZAprO7Fi1sUf+b39Q6Yz5y+YyA7ozTshYIC/ufWCV/J+ncfhvd0YPHRLE1KbuF/FdRCEKb2EWVMm+M1uWnybnXqRjkxk5JBCYibCurfcZ+b5Q8OjuH4nL21c9eNGEuvY/k1SS2Ts0mOVJGvc3L/8P+b5YNM1tX72atiHGkJOJrZbwdeHy9Q/K97niHnGVOJ/yKMRhokr2FQfJkfOVkZ/FydBpXLzyt/K5WywQU8R14lLxyXkd/aO1RH3Mt11o1LX1/a577aZe+d0m6sXkpqWruibUdfyX7/MhMbmx6y8Lutc+Jp87RKO4S3xXnMv7UYjDRJXsLd4g3iZOVefe1NK9tq61Z91S7besblu2foOy3kbxUAgMBi4iZBZpEHeLK8UF4lTBs88/oXZc39K15n61Y5HasVLteEDbh9iOJWKOIKH8TNworpf/c+T7QvneI9ZomwdFMP7LR3zvFCRDdg9+Kq4QZ0chjgAqETyw/0hxkrhQsNa/U9DBTaJZ0OEh0CLmizoxQdwgvibOEieK94sPic8JMvStYpog2ENsBzPhJIGf/yL+UXxb/FAQFOx7zRLsh7GN77uKAF9YkhK8zIb/LC4Sp0YhjgBVsqfYT7xRvEt8QnxZEAi3CNb+EwUZOwQmCwRIorhejBHnCpLIMYKZ/T2C2fFLgv0WOnecCLUdzILfFwQAifB8wVIbQbLsvl0gSATr+64iwBd8uk1cLS4XJMMTohBHgCoZJdhP3F8wKzKjnCkuFgT5DwSZ+lpBUBQNfpB9me3oMETIDPgOcbg4VNCO94rTxRfEaIEgQ2sHAfw9QRCztKbfTxG05zRB20iKzJIkxmuE77uKAF9YOZEsLhFnixPEMVGII0CVIESWp8yKBwoLYva1CAyCgSAhUxPURYIPwLLz04JZj8FnFmRGJ5mwzKYdbxLM8AQ17ThHhNYOZj7ageiY0d89d+nqUyc1dLZOqOv4PQETIhPrO56bNrdndcfqjSSQz4qPi+MEgXs4n4lCHCaqJCnGA8Rh4mhBIB8rCHb2v0IAX5i1WX6+XRwhDhavE68SzO60A1EyO9KZ7xTvE8cL33cWAe0geEl6zOZHzmxZcYaC5E9cmsdpGoI5RPANHznKvrRvAzMh40EypL8PiUIcAarEhDhqckPn0crE9QQDzkaqj4J3w4z5y1jyM8isPv5eHCL2n1DX3p+8BC5U8BExTpnTxekLkhyJm3YcRDujEIeJKikhAb5fDm4NPRvXMlzDayfCtfzkiDQzyEHib6c2dX+Qcq6PdYME2I6T/EWCD0m/uCgBn+U/y/93C1Ynh1JGe+1zUYgZUCWlGVHO/RaHauXysFrGAnhmy3IOiHGA6cCpc7o+lQwQRElipJyLrouCO1jwgdnaTRSIjXL5z74u++sss4+mLApxmKgSmw13ysZ2KROXYvF+ZPgwyL6L1glqzYKcGywt67RcvYDP2/v0Pf3e3vdQELdxcV8ngiQxWLJ2hMiRX5IKYjyWsijEYaJKJMT2jyeds1uI6HxuZqUBkeHBrwqUu42LO0ImN3ZtVv9/Spw8u7X3q+4Y8D63b4V0gza+TGvqKe264KMjRC5GQIzMjB+hLApxmKiSURPrO05POkfmIxtHq9y4uTcZnOx3TZ3T/ZT6n3Oc5zUuXvl9dwxCCl7XiAluDsBHR4ic4C9deC/OTLY1CjEDqkRC7OSw+XbHrIPTfmYi2vDMDWBAiNOaureo/7lEb3TT0tU3uGMQqhDxCd/cOJH/XPPLdbKc3D+HsijEYaJKOG1RymLmGEsPlkVmK1euLP0W5rXXXjvw1FNPDZZGG465AQwlIc7teVb9P15cPa+9/7YaFiLXI9MOLr6Pt0GNBFUySvsqZ7nOESQcLcP4XUx+FYwfdeVHYO0n2qMNz3xCnD635zn1P/dT/mR+Z//4Ghai3RjM5ZDxxuCRoEpShYjwEKGZ+6O10bJbGSE+r/6fLW5v7lwz8RUgxHiHvq8wC6pk1JTGrk/6hMiP07Ik5UdrzXgOHb+fGW14liJEboO6U0KcPJQQQ0iAUYjpeAuzoEr2KCdEfqA2+RwBlqcQbXiWQYhThhLiUUcdNXD77bcP/leMRSGm4y3MgiqJQszBUoTIEcc7m7vWTB1KiCEcKItCTMdbmAVVUlaItjR1nxrET7m7+4zRslk1hBiCRSGm4y3MgiopK0QM4dkMyMyIMN0ZMlo2i0KMQkxFlaQKEdHZg03sNEa04VsUYhRiKqokVYgYS1SO2FX7EV+7k0UhRiGmokqGFGK0yi0KMQoxFVUShZiDRSFGIaaiSqIQc7AoxCjEVFRJFGIOFoUYhZiKKolCzMGiEKMQU1ElUYg5WBRiFGIqqiQKMQcLQYicfqr0FFQUYjrewiyoklQhMnBcWRPPIVZm1RKijYfBBRbuJYhpZttUYlGI6XgLs6BKUoXou/A72vCtWkK08TBRcVsalx3ydyiLQnwFCdFmRu5RTGZi3uMKnCjana3aQnT7mNfJyw8ZC8bHvZc0CvEVJEQGnAvB+etmYgsGK3cDJdquFSKGCOl7LDkWJtAoxFeYEG0wKWOgybzctW+ijPuTO9uuFmJ/f/92IfLzJvYrCjZGzIxRiK8wITLoZvY/A82AM9DJIImWnxDtfRMdMC68b/9XYlGI6XgLs6BKqiJEDDGybGXgk4Gyu9uuFiKrEURm77McZVwMyqMQdwMhuoGR/Ey06guRpMdr/rIMpc9tDNylKcZnsCjE3UCIFgxAIMT9xB2t2kI0WH2wCrHxwdhnp9zGg/exKMQaFiLmDnJSYO7/ZN6sJ5d3N6uWEDHGwyiX8CjnVJLNhhhl5T6f1aIQ0/EWZkGVDCnEaJVbNYVYpEUhpuMtzIIqiULMwaIQoxBTUSVRiDnYK0WI/Rsfj0JMwVuYBVUShZiDDVeIPMItxOdT8uBafMfHKMSd8RZmQZXsJEQey8aTYaNVz4YrxOvvnlMKGB5yGorx5Gh8ske8D0eIzKQhWE0J0To4Pqi0esYKw31891BCBD5PGY//5jHgBFERkAyYnfHFHtsNWYXIY8iZSUMw2sIj6c03CFaIwKO76byQnuFeq1bu0d0+If7w1lk7jMON45tKgcJ7RUHgslRmlnZ9yyrEq2+vK32OGbVIe+6PL5RWeiQGtx1BC5HlBwPAk4NZVkVGBjMhfZscfP53hSh+OKGu4yXb/6oFmLEnN3a+LN9ThQgkFMrpD18/7WpYGiPCu+5btFOyC0aI05q6T/Z1HpmMgMHRyMhgJkn2K7Di0OA/qf4vPZZN/NPMluWLGAd3+RciBDIJA18XdK99WL7PFfeIq8QFvlgCyugPXz/lQbl+RZwhCHGUeI2y8XpftohUHwKCYO1YtbFXfV8nfiYI4svub16+gPfAF0xFQ4zg28T6jr/O7+zfLJ87xBxxt/iuOE+x9IfkCiBUbNnctmzdGvluQvyKKESI+81asOJMOfQimZpsF9k1EMwM/PyO/sfV70vELHGrIIgvEud3rN74jebONZPq2nrX1S/se5Rs3bho5W/EUyGwcPn6TT1rN/XJ127RJgjgW8Ro8SktuWfSRt+sGBJMOiSWqU3dL8rvhWKGuEl8WZwi8heiOHRx7wOnqBMXT5nT9WstV7dMm9vzLPsx0+f1/GekOmjG+w8F8r+pvwniBWKa+JG4Qpwrzhr8+3UxVrDvxfK1RRD0BAwsKgirH1+axWwxTlwtLhanipMUQx33SowsRX0JqWiYsTkGwsy+pG/DA/K5VTAWN4hLxMniSPE6sadPOz68hVlQJQhxX3GweKc4U5DZfipwbL5YLJaK9kjF0I/MhIiQIL5LcJCD2fA08SHxMXGe+Ka4XvCZyWK6IGszAxUJPuDLJMGy+lpB4jhbnCDey1/N5j9W8lmvGeeZaXO7/6Ck/lwyMRVJ09LVv9LMvlK+srzmgNO9goTyeUE7DhevFXv4tOPDW5gFVYIQ9xH7C6ZiAuELgn0WlkwEwEzBvgyZmaN8kZFDHyJAApn9KoL4csFMyOC/SxDIHxbnCN67UvA5Zs4fC/ZjigQfbhT49D3BUu7T4gPi7YI4oh0fFZeJ68QE0SiYTUlERSd26gcmGSYbxoPl9bfFp8R7xBsFq8XchLiXQPmHineL08WXBPstZGQcvF3cIciAkZFB/wEJDlExEyK0z4gTxdsEWfhNgoBGmIwFgvyiYMlE0HMwgSN7RUDd+IAvJOzPCpajxwkESAwRwG8eLOP9MYL2ssxmNiURFZ3UqZ/JhUmGyeY2wXiwvOZAzVvFgYLV4iifdnx4C7OgSmCPwQqZFQkCMjKdy74KHc7+C8ukb0UqhqD8hiCgLxTsCiA4Bv7vBGMAhwj2UY4Rx4qTBKsVDiIQKEWCD/jCDPg+8Q5B3BC47FO9XuA/iYXPnS+IH5Z9zKYEfdGJnbrx4WbBZMOkQ6yfIYj/wwRtYZLKTYg2K75aHCDIygQAGY0lEqIkM+PkJyIVQR+yL0hAE8gs4Zg92Edn4F8lSIosiThiRzmzDIHO55h1QgBf8AnfDhKIj/hhNwf/aQszI3HEgQ/2H5nVmVU5BkFC8iWqPCE5sG+LAJl0iHNEeIQgGdIOJimvdnx4C7NAJYO4YrSMhiDfIshsZD06NVI5th/FgBOsJD+ERxDvKRh8/u4tTJQENiDOEMAXdmfwDR/x1fXdxMgsT1sJcGZ19htJREUndepnckF8zNpMOowNMc94oIPSbCi82vHhLcwClQxChUAnEhA4QkfT6TjGsiNSHd4gyLgEqgUyg04QlwZ+EBsTC27gcyFg/pjPSb95j3YRQ7SXmZOl9tGCRJRMTkXA5MIkw2SDAFl9MAmxKqGN29vk044Pb2EWrCIH61QbfBwi2wECjVSG9aUFtC+QXwlYDNFGd1YnASFMX4LKG/xgkmGyIWEw+djMvsOY+LTjw1uYBasoEtkFWDC7ogwpsbsJsdzsXsKnHR/ewkgkki/ewkgkki/ewkgkki/ewkgkkicDf/P/Abm89AKWzh4YAAAAAElFTkSuQmCC;movable=1;resizable=1;rotatable=1;deletable=1;editable=1;locked=0;connectable=1;" vertex="1" parent="1">
          <mxGeometry x="810" y="300" width="226" height="277" as="geometry" />
        </mxCell>
        <mxCell id="OlI_2qXUzGhfWNakAulT-74" style="rounded=0;sketch=1;hachureGap=4;jiggle=2;curveFitting=1;orthogonalLoop=1;jettySize=auto;html=1;fontFamily=Helvetica;movable=1;resizable=1;rotatable=1;deletable=1;editable=1;locked=0;connectable=1;" edge="1" parent="1" source="OlI_2qXUzGhfWNakAulT-75">
          <mxGeometry relative="1" as="geometry">
            <mxPoint x="1010" y="350" as="targetPoint" />
          </mxGeometry>
        </mxCell>
        <mxCell id="OlI_2qXUzGhfWNakAulT-75" value="&lt;font face=&quot;Helvetica&quot;&gt;Rotate CCW&lt;/font&gt;" style="rounded=0;whiteSpace=wrap;html=1;sketch=1;hachureGap=4;jiggle=2;curveFitting=1;fontFamily=Architects Daughter;fontSource=https%3A%2F%2Ffonts.googleapis.com%2Fcss%3Ffamily%3DArchitects%2BDaughter;movable=1;resizable=1;rotatable=1;deletable=1;editable=1;locked=0;connectable=1;" vertex="1" parent="1">
          <mxGeometry x="1040" y="350" width="100" height="20" as="geometry" />
        </mxCell>
        <mxCell id="OlI_2qXUzGhfWNakAulT-76" style="edgeStyle=none;rounded=0;sketch=1;hachureGap=4;jiggle=2;curveFitting=1;orthogonalLoop=1;jettySize=auto;html=1;exitX=0;exitY=0.5;exitDx=0;exitDy=0;strokeColor=default;align=center;verticalAlign=middle;fontFamily=Architects Daughter;fontSource=https%3A%2F%2Ffonts.googleapis.com%2Fcss%3Ffamily%3DArchitects%2BDaughter;fontSize=12;fontColor=default;labelBackgroundColor=default;endArrow=classic;movable=1;resizable=1;rotatable=1;deletable=1;editable=1;locked=0;connectable=1;" edge="1" parent="1" source="OlI_2qXUzGhfWNakAulT-77">
          <mxGeometry relative="1" as="geometry">
            <mxPoint x="1000" y="390" as="targetPoint" />
          </mxGeometry>
        </mxCell>
        <mxCell id="OlI_2qXUzGhfWNakAulT-77" value="&lt;font face=&quot;Helvetica&quot;&gt;Rotate&amp;nbsp;&lt;/font&gt;&lt;span style=&quot;font-family: Helvetica; background-color: initial;&quot;&gt;CW&lt;/span&gt;" style="rounded=0;whiteSpace=wrap;html=1;sketch=1;hachureGap=4;jiggle=2;curveFitting=1;fontFamily=Architects Daughter;fontSource=https%3A%2F%2Ffonts.googleapis.com%2Fcss%3Ffamily%3DArchitects%2BDaughter;movable=1;resizable=1;rotatable=1;deletable=1;editable=1;locked=0;connectable=1;" vertex="1" parent="1">
          <mxGeometry x="1040" y="390" width="100" height="20" as="geometry" />
        </mxCell>
        <mxCell id="OlI_2qXUzGhfWNakAulT-78" style="edgeStyle=none;rounded=0;sketch=1;hachureGap=4;jiggle=2;curveFitting=1;orthogonalLoop=1;jettySize=auto;html=1;exitX=0.5;exitY=1;exitDx=0;exitDy=0;strokeColor=default;align=center;verticalAlign=middle;fontFamily=Helvetica;fontSource=https%3A%2F%2Ffonts.googleapis.com%2Fcss%3Ffamily%3DArchitects%2BDaughter;fontSize=12;fontColor=default;labelBackgroundColor=default;endArrow=classic;movable=1;resizable=1;rotatable=1;deletable=1;editable=1;locked=0;connectable=1;" edge="1" parent="1" source="OlI_2qXUzGhfWNakAulT-79">
          <mxGeometry relative="1" as="geometry">
            <mxPoint x="890" y="340" as="targetPoint" />
          </mxGeometry>
        </mxCell>
        <mxCell id="OlI_2qXUzGhfWNakAulT-79" value="Move Up" style="rounded=0;whiteSpace=wrap;html=1;sketch=1;hachureGap=4;jiggle=2;curveFitting=1;fontFamily=Helvetica;movable=1;resizable=1;rotatable=1;deletable=1;editable=1;locked=0;connectable=1;" vertex="1" parent="1">
          <mxGeometry x="840" y="260" width="100" height="20" as="geometry" />
        </mxCell>
        <mxCell id="OlI_2qXUzGhfWNakAulT-80" style="edgeStyle=none;rounded=0;sketch=1;hachureGap=4;jiggle=2;curveFitting=1;orthogonalLoop=1;jettySize=auto;html=1;strokeColor=default;align=center;verticalAlign=middle;fontFamily=Helvetica;fontSource=https%3A%2F%2Ffonts.googleapis.com%2Fcss%3Ffamily%3DArchitects%2BDaughter;fontSize=12;fontColor=default;labelBackgroundColor=default;endArrow=classic;movable=1;resizable=1;rotatable=1;deletable=1;editable=1;locked=0;connectable=1;" edge="1" parent="1" source="OlI_2qXUzGhfWNakAulT-81">
          <mxGeometry relative="1" as="geometry">
            <mxPoint x="860" y="490" as="targetPoint" />
          </mxGeometry>
        </mxCell>
        <mxCell id="OlI_2qXUzGhfWNakAulT-81" value="Front View" style="rounded=0;whiteSpace=wrap;html=1;sketch=1;hachureGap=4;jiggle=2;curveFitting=1;fontFamily=Helvetica;movable=1;resizable=1;rotatable=1;deletable=1;editable=1;locked=0;connectable=1;" vertex="1" parent="1">
          <mxGeometry x="695" y="615" width="100" height="20" as="geometry" />
        </mxCell>
        <mxCell id="OlI_2qXUzGhfWNakAulT-82" style="edgeStyle=none;rounded=0;sketch=1;hachureGap=4;jiggle=2;curveFitting=1;orthogonalLoop=1;jettySize=auto;html=1;strokeColor=default;align=center;verticalAlign=middle;fontFamily=Helvetica;fontSource=https%3A%2F%2Ffonts.googleapis.com%2Fcss%3Ffamily%3DArchitects%2BDaughter;fontSize=12;fontColor=default;labelBackgroundColor=default;endArrow=classic;movable=1;resizable=1;rotatable=1;deletable=1;editable=1;locked=0;connectable=1;" edge="1" parent="1" source="OlI_2qXUzGhfWNakAulT-83">
          <mxGeometry relative="1" as="geometry">
            <mxPoint x="900" y="500" as="targetPoint" />
          </mxGeometry>
        </mxCell>
        <mxCell id="OlI_2qXUzGhfWNakAulT-83" value="Side View" style="rounded=0;whiteSpace=wrap;html=1;sketch=1;hachureGap=4;jiggle=2;curveFitting=1;fontFamily=Helvetica;movable=1;resizable=1;rotatable=1;deletable=1;editable=1;locked=0;connectable=1;" vertex="1" parent="1">
          <mxGeometry x="850" y="615" width="100" height="20" as="geometry" />
        </mxCell>
        <mxCell id="OlI_2qXUzGhfWNakAulT-84" style="edgeStyle=none;rounded=0;sketch=1;hachureGap=4;jiggle=2;curveFitting=1;orthogonalLoop=1;jettySize=auto;html=1;strokeColor=default;align=center;verticalAlign=middle;fontFamily=Helvetica;fontSource=https%3A%2F%2Ffonts.googleapis.com%2Fcss%3Ffamily%3DArchitects%2BDaughter;fontSize=12;fontColor=default;labelBackgroundColor=default;endArrow=classic;movable=1;resizable=1;rotatable=1;deletable=1;editable=1;locked=0;connectable=1;" edge="1" parent="1" source="OlI_2qXUzGhfWNakAulT-85">
          <mxGeometry relative="1" as="geometry">
            <mxPoint x="950" y="490" as="targetPoint" />
            <mxPoint x="990" y="630" as="sourcePoint" />
          </mxGeometry>
        </mxCell>
        <mxCell id="OlI_2qXUzGhfWNakAulT-85" value="Top View" style="rounded=0;whiteSpace=wrap;html=1;sketch=1;hachureGap=4;jiggle=2;curveFitting=1;fontFamily=Helvetica;movable=1;resizable=1;rotatable=1;deletable=1;editable=1;locked=0;connectable=1;" vertex="1" parent="1">
          <mxGeometry x="1010" y="615" width="100" height="20" as="geometry" />
        </mxCell>
        <mxCell id="OlI_2qXUzGhfWNakAulT-86" style="edgeStyle=none;rounded=0;sketch=1;hachureGap=4;jiggle=2;curveFitting=1;orthogonalLoop=1;jettySize=auto;html=1;strokeColor=default;align=center;verticalAlign=middle;fontFamily=Helvetica;fontSource=https%3A%2F%2Ffonts.googleapis.com%2Fcss%3Ffamily%3DArchitects%2BDaughter;fontSize=12;fontColor=default;labelBackgroundColor=default;endArrow=classic;movable=1;resizable=1;rotatable=1;deletable=1;editable=1;locked=0;connectable=1;" edge="1" parent="1" source="OlI_2qXUzGhfWNakAulT-87">
          <mxGeometry relative="1" as="geometry">
            <mxPoint x="950" y="340" as="targetPoint" />
          </mxGeometry>
        </mxCell>
        <mxCell id="OlI_2qXUzGhfWNakAulT-87" value="Cycle Axis Lock" style="rounded=0;whiteSpace=wrap;html=1;sketch=1;hachureGap=4;jiggle=2;curveFitting=1;fontFamily=Helvetica;movable=1;resizable=1;rotatable=1;deletable=1;editable=1;locked=0;connectable=1;" vertex="1" parent="1">
          <mxGeometry x="950" y="260" width="100" height="20" as="geometry" />
        </mxCell>
        <mxCell id="OlI_2qXUzGhfWNakAulT-88" style="edgeStyle=none;rounded=0;sketch=1;hachureGap=4;jiggle=2;curveFitting=1;orthogonalLoop=1;jettySize=auto;html=1;exitX=0;exitY=0.5;exitDx=0;exitDy=0;strokeColor=default;align=center;verticalAlign=middle;fontFamily=Helvetica;fontSource=https%3A%2F%2Ffonts.googleapis.com%2Fcss%3Ffamily%3DArchitects%2BDaughter;fontSize=12;fontColor=default;labelBackgroundColor=default;endArrow=classic;movable=1;resizable=1;rotatable=1;deletable=1;editable=1;locked=0;connectable=1;" edge="1" parent="1" source="OlI_2qXUzGhfWNakAulT-89">
          <mxGeometry relative="1" as="geometry">
            <mxPoint x="1010" y="490" as="targetPoint" />
          </mxGeometry>
        </mxCell>
        <mxCell id="OlI_2qXUzGhfWNakAulT-89" value="Toggle fixed camera" style="rounded=0;whiteSpace=wrap;html=1;sketch=1;hachureGap=4;jiggle=2;curveFitting=1;fontFamily=Helvetica;movable=1;resizable=1;rotatable=1;deletable=1;editable=1;locked=0;connectable=1;" vertex="1" parent="1">
          <mxGeometry x="1050" y="480" width="120" height="20" as="geometry" />
        </mxCell>
        <mxCell id="OlI_2qXUzGhfWNakAulT-90" style="edgeStyle=none;rounded=0;sketch=1;hachureGap=4;jiggle=2;curveFitting=1;orthogonalLoop=1;jettySize=auto;html=1;exitX=1;exitY=0.5;exitDx=0;exitDy=0;strokeColor=default;align=center;verticalAlign=middle;fontFamily=Helvetica;fontSource=https%3A%2F%2Ffonts.googleapis.com%2Fcss%3Ffamily%3DArchitects%2BDaughter;fontSize=12;fontColor=default;labelBackgroundColor=default;endArrow=classic;movable=1;resizable=1;rotatable=1;deletable=1;editable=1;locked=0;connectable=1;" edge="1" parent="1" source="OlI_2qXUzGhfWNakAulT-91">
          <mxGeometry relative="1" as="geometry">
            <mxPoint x="840" y="390" as="targetPoint" />
          </mxGeometry>
        </mxCell>
        <mxCell id="OlI_2qXUzGhfWNakAulT-91" value="Move Left" style="rounded=0;whiteSpace=wrap;html=1;sketch=1;hachureGap=4;jiggle=2;curveFitting=1;fontFamily=Helvetica;movable=1;resizable=1;rotatable=1;deletable=1;editable=1;locked=0;connectable=1;" vertex="1" parent="1">
          <mxGeometry x="700" y="360" width="100" height="20" as="geometry" />
        </mxCell>
        <mxCell id="OlI_2qXUzGhfWNakAulT-92" style="edgeStyle=none;rounded=0;sketch=1;hachureGap=4;jiggle=2;curveFitting=1;orthogonalLoop=1;jettySize=auto;html=1;exitX=0;exitY=0.5;exitDx=0;exitDy=0;strokeColor=default;align=center;verticalAlign=middle;fontFamily=Helvetica;fontSource=https%3A%2F%2Ffonts.googleapis.com%2Fcss%3Ffamily%3DArchitects%2BDaughter;fontSize=12;fontColor=default;labelBackgroundColor=default;endArrow=classic;movable=1;resizable=1;rotatable=1;deletable=1;editable=1;locked=0;connectable=1;" edge="1" parent="1" source="OlI_2qXUzGhfWNakAulT-93">
          <mxGeometry relative="1" as="geometry">
            <mxPoint x="940" y="390" as="targetPoint" />
          </mxGeometry>
        </mxCell>
        <mxCell id="OlI_2qXUzGhfWNakAulT-93" value="Move Right" style="rounded=0;whiteSpace=wrap;html=1;sketch=1;hachureGap=4;jiggle=2;curveFitting=1;fontFamily=Helvetica;movable=1;resizable=1;rotatable=1;deletable=1;editable=1;locked=0;connectable=1;" vertex="1" parent="1">
          <mxGeometry x="1000" y="290" width="100" height="20" as="geometry" />
        </mxCell>
        <mxCell id="OlI_2qXUzGhfWNakAulT-94" style="edgeStyle=none;rounded=0;sketch=1;hachureGap=4;jiggle=2;curveFitting=1;orthogonalLoop=1;jettySize=auto;html=1;strokeColor=default;align=center;verticalAlign=middle;fontFamily=Helvetica;fontSource=https%3A%2F%2Ffonts.googleapis.com%2Fcss%3Ffamily%3DArchitects%2BDaughter;fontSize=12;fontColor=default;labelBackgroundColor=default;endArrow=classic;movable=1;resizable=1;rotatable=1;deletable=1;editable=1;locked=0;connectable=1;" edge="1" parent="1" source="OlI_2qXUzGhfWNakAulT-95">
          <mxGeometry relative="1" as="geometry">
            <mxPoint x="910" y="450" as="targetPoint" />
          </mxGeometry>
        </mxCell>
        <mxCell id="OlI_2qXUzGhfWNakAulT-95" value="Toggle rotation of fixed camera" style="rounded=0;whiteSpace=wrap;html=1;sketch=1;hachureGap=4;jiggle=2;curveFitting=1;fontFamily=Helvetica;movable=1;resizable=1;rotatable=1;deletable=1;editable=1;locked=0;connectable=1;" vertex="1" parent="1">
          <mxGeometry x="1036" y="520" width="100" height="40" as="geometry" />
        </mxCell>
        <mxCell id="OlI_2qXUzGhfWNakAulT-96" style="edgeStyle=none;rounded=0;sketch=1;hachureGap=4;jiggle=2;curveFitting=1;orthogonalLoop=1;jettySize=auto;html=1;strokeColor=default;align=center;verticalAlign=middle;fontFamily=Helvetica;fontSource=https%3A%2F%2Ffonts.googleapis.com%2Fcss%3Ffamily%3DArchitects%2BDaughter;fontSize=12;fontColor=default;labelBackgroundColor=default;endArrow=classic;movable=1;resizable=1;rotatable=1;deletable=1;editable=1;locked=0;connectable=1;" edge="1" parent="1" source="OlI_2qXUzGhfWNakAulT-97">
          <mxGeometry relative="1" as="geometry">
            <mxPoint x="900" y="400" as="targetPoint" />
          </mxGeometry>
        </mxCell>
        <mxCell id="OlI_2qXUzGhfWNakAulT-97" value="Move Down" style="rounded=0;whiteSpace=wrap;html=1;sketch=1;hachureGap=4;jiggle=2;curveFitting=1;fontFamily=Helvetica;movable=1;resizable=1;rotatable=1;deletable=1;editable=1;locked=0;connectable=1;" vertex="1" parent="1">
          <mxGeometry x="720" y="290" width="100" height="20" as="geometry" />
        </mxCell>
        <mxCell id="OlI_2qXUzGhfWNakAulT-98" style="edgeStyle=none;rounded=0;sketch=1;hachureGap=4;jiggle=2;curveFitting=1;orthogonalLoop=1;jettySize=auto;html=1;strokeColor=default;align=center;verticalAlign=middle;fontFamily=Helvetica;fontSource=https%3A%2F%2Ffonts.googleapis.com%2Fcss%3Ffamily%3DArchitects%2BDaughter;fontSize=12;fontColor=default;labelBackgroundColor=default;endArrow=classic;movable=1;resizable=1;rotatable=1;deletable=1;editable=1;locked=0;connectable=1;" edge="1" parent="1" source="OlI_2qXUzGhfWNakAulT-99">
          <mxGeometry relative="1" as="geometry">
            <mxPoint x="880" y="540" as="targetPoint" />
          </mxGeometry>
        </mxCell>
        <mxCell id="OlI_2qXUzGhfWNakAulT-99" value="Reduce precision amount" style="rounded=0;whiteSpace=wrap;html=1;sketch=1;hachureGap=4;jiggle=2;curveFitting=1;fontFamily=Helvetica;movable=1;resizable=1;rotatable=1;deletable=1;editable=1;locked=0;connectable=1;" vertex="1" parent="1">
          <mxGeometry x="790" y="577" width="100" height="30" as="geometry" />
        </mxCell>
        <mxCell id="OlI_2qXUzGhfWNakAulT-100" style="edgeStyle=none;rounded=0;sketch=1;hachureGap=4;jiggle=2;curveFitting=1;orthogonalLoop=1;jettySize=auto;html=1;strokeColor=default;align=center;verticalAlign=middle;fontFamily=Helvetica;fontSource=https%3A%2F%2Ffonts.googleapis.com%2Fcss%3Ffamily%3DArchitects%2BDaughter;fontSize=12;fontColor=default;labelBackgroundColor=default;endArrow=classic;movable=1;resizable=1;rotatable=1;deletable=1;editable=1;locked=0;connectable=1;" edge="1" parent="1" source="OlI_2qXUzGhfWNakAulT-101">
          <mxGeometry relative="1" as="geometry">
            <mxPoint x="950" y="550" as="targetPoint" />
          </mxGeometry>
        </mxCell>
        <mxCell id="OlI_2qXUzGhfWNakAulT-101" value="Raise precision amount" style="rounded=0;whiteSpace=wrap;html=1;sketch=1;hachureGap=4;jiggle=2;curveFitting=1;fontFamily=Helvetica;movable=1;resizable=1;rotatable=1;deletable=1;editable=1;locked=0;connectable=1;" vertex="1" parent="1">
          <mxGeometry x="910" y="577" width="100" height="30" as="geometry" />
        </mxCell>
        <mxCell id="OlI_2qXUzGhfWNakAulT-102" style="edgeStyle=none;rounded=0;sketch=1;hachureGap=4;jiggle=2;curveFitting=1;orthogonalLoop=1;jettySize=auto;html=1;strokeColor=default;align=center;verticalAlign=middle;fontFamily=Helvetica;fontSource=https%3A%2F%2Ffonts.googleapis.com%2Fcss%3Ffamily%3DArchitects%2BDaughter;fontSize=12;fontColor=default;labelBackgroundColor=default;endArrow=classic;movable=1;resizable=1;rotatable=1;deletable=1;editable=1;locked=0;connectable=1;" edge="1" parent="1" source="OlI_2qXUzGhfWNakAulT-103">
          <mxGeometry relative="1" as="geometry">
            <mxPoint x="850" y="440" as="targetPoint" />
          </mxGeometry>
        </mxCell>
        <mxCell id="OlI_2qXUzGhfWNakAulT-103" value="Previous item/text" style="rounded=0;whiteSpace=wrap;html=1;sketch=1;hachureGap=4;jiggle=2;curveFitting=1;fontFamily=Helvetica;movable=1;resizable=1;rotatable=1;deletable=1;editable=1;locked=0;connectable=1;" vertex="1" parent="1">
          <mxGeometry x="700" y="428.5" width="90" height="30" as="geometry" />
        </mxCell>
        <mxCell id="OlI_2qXUzGhfWNakAulT-104" style="edgeStyle=none;rounded=0;sketch=1;hachureGap=4;jiggle=2;curveFitting=1;orthogonalLoop=1;jettySize=auto;html=1;strokeColor=default;align=center;verticalAlign=middle;fontFamily=Helvetica;fontSource=https%3A%2F%2Ffonts.googleapis.com%2Fcss%3Ffamily%3DArchitects%2BDaughter;fontSize=12;fontColor=default;labelBackgroundColor=default;endArrow=classic;movable=1;resizable=1;rotatable=1;deletable=1;editable=1;locked=0;connectable=1;" edge="1" parent="1" source="OlI_2qXUzGhfWNakAulT-105">
          <mxGeometry relative="1" as="geometry">
            <mxPoint x="960" y="440" as="targetPoint" />
          </mxGeometry>
        </mxCell>
        <mxCell id="OlI_2qXUzGhfWNakAulT-105" value="Next item/text" style="rounded=0;whiteSpace=wrap;html=1;sketch=1;hachureGap=4;jiggle=2;curveFitting=1;fontFamily=Helvetica;movable=1;resizable=1;rotatable=1;deletable=1;editable=1;locked=0;connectable=1;" vertex="1" parent="1">
          <mxGeometry x="1051" y="428.5" width="70" height="30" as="geometry" />
        </mxCell>
        <mxCell id="OlI_2qXUzGhfWNakAulT-106" style="edgeStyle=none;rounded=0;sketch=1;hachureGap=4;jiggle=2;curveFitting=1;orthogonalLoop=1;jettySize=auto;html=1;exitX=0;exitY=0.75;exitDx=0;exitDy=0;strokeColor=default;align=center;verticalAlign=middle;fontFamily=Helvetica;fontSource=https%3A%2F%2Ffonts.googleapis.com%2Fcss%3Ffamily%3DArchitects%2BDaughter;fontSize=12;fontColor=default;labelBackgroundColor=default;endArrow=classic;movable=1;resizable=1;rotatable=1;deletable=1;editable=1;locked=0;connectable=1;" edge="1" parent="1" source="OlI_2qXUzGhfWNakAulT-87" target="OlI_2qXUzGhfWNakAulT-87">
          <mxGeometry relative="1" as="geometry" />
        </mxCell>
        <mxCell id="OlI_2qXUzGhfWNakAulT-107" value="" style="whiteSpace=wrap;html=1;aspect=fixed;rounded=0;sketch=1;hachureGap=4;jiggle=2;curveFitting=1;strokeColor=default;align=center;verticalAlign=middle;fontFamily=Helvetica;fontSize=12;fontColor=default;fillColor=default;movable=0;resizable=0;rotatable=0;deletable=0;editable=0;locked=1;connectable=0;" vertex="1" parent="1">
          <mxGeometry x="1190" y="180" width="490" height="490" as="geometry" />
        </mxCell>
        <mxCell id="OlI_2qXUzGhfWNakAulT-108" value="" style="shape=image;verticalLabelPosition=bottom;labelBackgroundColor=default;verticalAlign=top;aspect=fixed;imageAspect=0;image=data:image/png,iVBORw0KGgoAAAANSUhEUgAAAOIAAAEVCAYAAAD98DnCAAAABGdBTUEAALGOfPtRkwAAACBjSFJNAACHDwAAjA8AAP1SAACBQAAAfXkAAOmLAAA85QAAGcxzPIV3AAAKOWlDQ1BQaG90b3Nob3AgSUNDIHByb2ZpbGUAAEjHnZZ3VFTXFofPvXd6oc0wAlKG3rvAANJ7k15FYZgZYCgDDjM0sSGiAhFFRJoiSFDEgNFQJFZEsRAUVLAHJAgoMRhFVCxvRtaLrqy89/Ly++Osb+2z97n77L3PWhcAkqcvl5cGSwGQyhPwgzyc6RGRUXTsAIABHmCAKQBMVka6X7B7CBDJy82FniFyAl8EAfB6WLwCcNPQM4BOB/+fpFnpfIHomAARm7M5GSwRF4g4JUuQLrbPipgalyxmGCVmvihBEcuJOWGRDT77LLKjmNmpPLaIxTmns1PZYu4V8bZMIUfEiK+ICzO5nCwR3xKxRoowlSviN+LYVA4zAwAUSWwXcFiJIjYRMYkfEuQi4uUA4EgJX3HcVyzgZAvEl3JJS8/hcxMSBXQdli7d1NqaQffkZKVwBALDACYrmcln013SUtOZvBwAFu/8WTLi2tJFRbY0tba0NDQzMv2qUP91829K3NtFehn4uWcQrf+L7a/80hoAYMyJarPziy2uCoDOLQDI3fti0zgAgKSobx3Xv7oPTTwviQJBuo2xcVZWlhGXwzISF/QP/U+Hv6GvvmckPu6P8tBdOfFMYYqALq4bKy0lTcinZ6QzWRy64Z+H+B8H/nUeBkGceA6fwxNFhImmjMtLELWbx+YKuGk8Opf3n5r4D8P+pMW5FonS+BFQY4yA1HUqQH7tBygKESDR+8Vd/6NvvvgwIH554SqTi3P/7zf9Z8Gl4iWDm/A5ziUohM4S8jMX98TPEqABAUgCKpAHykAd6ABDYAasgC1wBG7AG/iDEBAJVgMWSASpgA+yQB7YBApBMdgJ9oBqUAcaQTNoBcdBJzgFzoNL4Bq4AW6D+2AUTIBnYBa8BgsQBGEhMkSB5CEVSBPSh8wgBmQPuUG+UBAUCcVCCRAPEkJ50GaoGCqDqqF6qBn6HjoJnYeuQIPQXWgMmoZ+h97BCEyCqbASrAUbwwzYCfaBQ+BVcAK8Bs6FC+AdcCXcAB+FO+Dz8DX4NjwKP4PnEIAQERqiihgiDMQF8UeikHiEj6xHipAKpAFpRbqRPuQmMorMIG9RGBQFRUcZomxRnqhQFAu1BrUeVYKqRh1GdaB6UTdRY6hZ1Ec0Ga2I1kfboL3QEegEdBa6EF2BbkK3oy+ib6Mn0K8xGAwNo42xwnhiIjFJmLWYEsw+TBvmHGYQM46Zw2Kx8lh9rB3WH8vECrCF2CrsUexZ7BB2AvsGR8Sp4Mxw7rgoHA+Xj6vAHcGdwQ3hJnELeCm8Jt4G749n43PwpfhGfDf+On4Cv0CQJmgT7AghhCTCJkIloZVwkfCA8JJIJKoRrYmBRC5xI7GSeIx4mThGfEuSIemRXEjRJCFpB+kQ6RzpLuklmUzWIjuSo8gC8g5yM/kC+RH5jQRFwkjCS4ItsUGiRqJDYkjiuSReUlPSSXK1ZK5kheQJyeuSM1J4KS0pFymm1HqpGqmTUiNSc9IUaVNpf+lU6RLpI9JXpKdksDJaMm4ybJkCmYMyF2TGKQhFneJCYVE2UxopFykTVAxVm+pFTaIWU7+jDlBnZWVkl8mGyWbL1sielh2lITQtmhcthVZKO04bpr1borTEaQlnyfYlrUuGlszLLZVzlOPIFcm1yd2WeydPl3eTT5bfJd8p/1ABpaCnEKiQpbBf4aLCzFLqUtulrKVFS48vvacIK+opBimuVTyo2K84p6Ss5KGUrlSldEFpRpmm7KicpFyufEZ5WoWiYq/CVSlXOavylC5Ld6Kn0CvpvfRZVUVVT1Whar3qgOqCmrZaqFq+WpvaQ3WCOkM9Xr1cvUd9VkNFw08jT6NF454mXpOhmai5V7NPc15LWytca6tWp9aUtpy2l3audov2Ax2yjoPOGp0GnVu6GF2GbrLuPt0berCehV6iXo3edX1Y31Kfq79Pf9AAbWBtwDNoMBgxJBk6GWYathiOGdGMfI3yjTqNnhtrGEcZ7zLuM/5oYmGSYtJoct9UxtTbNN+02/R3Mz0zllmN2S1zsrm7+QbzLvMXy/SXcZbtX3bHgmLhZ7HVosfig6WVJd+y1XLaSsMq1qrWaoRBZQQwShiXrdHWztYbrE9Zv7WxtBHYHLf5zdbQNtn2iO3Ucu3lnOWNy8ft1OyYdvV2o/Z0+1j7A/ajDqoOTIcGh8eO6o5sxybHSSddpySno07PnU2c+c7tzvMuNi7rXM65Iq4erkWuA24ybqFu1W6P3NXcE9xb3Gc9LDzWepzzRHv6eO7yHPFS8mJ5NXvNelt5r/Pu9SH5BPtU+zz21fPl+3b7wX7efrv9HqzQXMFb0ekP/L38d/s/DNAOWBPwYyAmMCCwJvBJkGlQXlBfMCU4JvhI8OsQ55DSkPuhOqHC0J4wybDosOaw+XDX8LLw0QjjiHUR1yIVIrmRXVHYqLCopqi5lW4r96yciLaILoweXqW9KnvVldUKq1NWn46RjGHGnIhFx4bHHol9z/RnNjDn4rziauNmWS6svaxnbEd2OXuaY8cp40zG28WXxU8l2CXsTphOdEisSJzhunCruS+SPJPqkuaT/ZMPJX9KCU9pS8Wlxqae5Mnwknm9acpp2WmD6frphemja2zW7Fkzy/fhN2VAGasyugRU0c9Uv1BHuEU4lmmfWZP5Jiss60S2dDYvuz9HL2d7zmSue+63a1FrWWt78lTzNuWNrXNaV78eWh+3vmeD+oaCDRMbPTYe3kTYlLzpp3yT/LL8V5vDN3cXKBVsLBjf4rGlpVCikF84stV2a9021DbutoHt5turtn8sYhddLTYprih+X8IqufqN6TeV33zaEb9joNSydP9OzE7ezuFdDrsOl0mX5ZaN7/bb3VFOLy8qf7UnZs+VimUVdXsJe4V7Ryt9K7uqNKp2Vr2vTqy+XeNc01arWLu9dn4fe9/Qfsf9rXVKdcV17w5wD9yp96jvaNBqqDiIOZh58EljWGPft4xvm5sUmoqbPhziHRo9HHS4t9mqufmI4pHSFrhF2DJ9NProje9cv+tqNWytb6O1FR8Dx4THnn4f+/3wcZ/jPScYJ1p/0Pyhtp3SXtQBdeR0zHYmdo52RXYNnvQ+2dNt293+o9GPh06pnqo5LXu69AzhTMGZT2dzz86dSz83cz7h/HhPTM/9CxEXbvUG9g5c9Ll4+ZL7pQt9Tn1nL9tdPnXF5srJq4yrndcsr3X0W/S3/2TxU/uA5UDHdavrXTesb3QPLh88M+QwdP6m681Lt7xuXbu94vbgcOjwnZHokdE77DtTd1PuvriXeW/h/sYH6AdFD6UeVjxSfNTws+7PbaOWo6fHXMf6Hwc/vj/OGn/2S8Yv7ycKnpCfVEyqTDZPmU2dmnafvvF05dOJZ+nPFmYKf5X+tfa5zvMffnP8rX82YnbiBf/Fp99LXsq/PPRq2aueuYC5R69TXy/MF72Rf3P4LeNt37vwd5MLWe+x7ys/6H7o/ujz8cGn1E+f/gUDmPP8usTo0wAAAAlwSFlzAAAOxAAADsQBlSsOGwAAP61JREFUeF7tnXmYXVWZrzuMikODDC00goID7YgMIoqKgCAOgCAKAiqKMdoOYNs0EEBURoGEJnMISWpIJalKVaYak1QlqQyEkAakJYjKFYz3kdtgR/CC3dc/6v7ek/rSKzvr7NpV52Tvdcj6nud96tQ6Z5/1rbW+37fWns7+m4GBgUgkUjDewkgkki/ewkgkki/ewkgkki/ewkgkki/ewkgkki/ewkgkki/ewkgkki/ewkgkki/ewkgkki/ewkgkki/ewkgkki/ewkgkki/ewkgkki/ewiyseODhEvfObt9f3CR+KwYCZvGUxq4PyOe9xV5iTzEK/mbQ9JlaaMejE+s7L5Tf+zjt2GNCXcdb9N4ssdX5bGhslZ/1M1uWHyKfveOgzxwrFjrbhMjTasdPE+3Yw9ohtuvDpx0f3sIsUIkcQoSP3DNz6cBN98wbuO7OxiC5/u45Az+btrDUiVPmdF0q3/9WvEbsK0qdqPdW0o6bJzZ7vyMEaMftU1q3taOx6zvye3/xWhKMyrbedd+igRvHN3m3DQF8G3f/Yvz/06wFK94n318v9hOlpKLyz9E2xirkdhDrxIrE+O9NS1cfKd9fJ1492A5LLLkK8SYcuuaO+oEf3DwzeG6dvIAgeEG+v1kcKg4Q+02s77iCAKiVdhAI+Nu0dNVH5P9hev07gtf32dD44a2zBkgYk+o7l8v3IwSzConx1WrHVsbIt11oECvEvhL7v8r3w8XBAkFaci+J0acdH97CLFCROu63BIXrIJC5f3Lv/ELBLwbd9Yv/CeCGhX3flv/vFmSzgybUtff7AoDO9n13ntCOq2+v28k3ZpYZ85f965zFq75Am5JJhLYyq/i+M0/wwfULiA98Vt+fKP5BHD59bs85lPnGjD7wfXee4LPrF+CXZsU/yP/jxTvEYYJVCmIszYw+7fjwFmaBSug4pmpzjE4j21HetKR/oLX7gcKY1tRTyljJQMC/+5uXt8j/M8UJ4ih15jo6222HLWWLbsfsBb0lP1z/AP/UjtamJauu5X33PcvW9IHvO/ME30gabqIgZihX318gPi7eO7mxazxj47aDsQupHfjnJgqnHeeJj4p3CcTIzMgyNRchsl+1gxBxlMB94c8v6yPF2/K1j5Y6yvWRANb+yTL5f7k4WxynpekGN9DZD2Pwf/+H5we/qVh75PH/VWqHm5UH27F8fkf/3bxn5cyeBC9t/6///n+D31Cc4QMxgU8WxE4AXykuEadPbeqe4i6v7TO0IwQjpmmHmyycdrC//kWBGJkZWaayz7iHNvXqJ4m3MAuqhJ3r7UFuy41QRGhGNkNY1nkMdl1b73r5/y/iMnHaxPrOh0yIBDLtCEWEZgQkM0uiHRtautbOxl8r52ATs2hIhhhJbLYb4wTwbQIxXqil6UxXiIwZYxeSEdv4bQnRacfNAjEyM7JMZZ+RWXEvbebVTxJvYRZUyd44YUIkkEPrOGzzr7eUsrENMINdv7DvEfl/u/iuOHdSQ+fDJkTr3NCMxIBfiXY82tqzti1Z/uCjvxrcKhxr73toe0J0AniquElccd/8ZY2uEBkzxi40Y1ZMxor8nyxuEF8WHEA7WrCvuLc28eonibcwC6pkH5woJ8SXXnppoKGhYaC/v3+wZJtR3t3dPfjfrjdfADcs7PuF/J8orhFfmtzQ+fNaFGLDor7NrT3rupPlIQoRn0xoTgA3iDvF92bMXzbfFSLvh7YqwYhxjxDrBIn9W+IT4hhxoNhHm3j1k8RbmAVVsi9OlBPic889NzB69OiBK6+8svTajNfXXXfd4H+73vwBvPIJ+T9d3Cgun9zY+VhtCnHlL9uWrVuRLK8hITaJ8eKf7m9evqCGhUg7xonvC447cNCG0zL7ahOvfpJ4C7NAJTgxlBCnTZtWwiwpRGZI19z/eQ2bNm3aXm7/Z7UUIc4QPxZXSIj/XqNCfFJC7EuW15AQ5wnOw13NEeAaFuLcwXZcJT4j3iPCEuLmzZtLs6ItUV0hUuaK0v3fXt9yyy2lv8CS1l5TnsVShHi/+In4xnCF+PTTT+e6vMaiEMOwMkK0dvyTQIjvFWEJkb+ICjEymw1HiO6ydvz48dvFx/fwXpaZsUwA/1L+j1iI7PtGIQ7PdkMh/p0IS4gYy1MCeDhCdN9jWzDjPT4zlFVbiJYErF15WRRiGFbzQuQvAWzLS6wWhYj/7j5vXlYNIbKCyNJnu8KiENPxFmaBSnAiqxAxdx8PY1/LnV1aW1uDFyLLY/Z787ZKhUhf01+MAa/ztijEdLyFWaASnBiOEDH29VyBMbsgRsoMLEQhIsCsB4mqbZUIkeW07WMDrynL0yoVosUN5L1/7lrNCRFLihAjAJJBQIBblnbfS74u916aVVOIJI2igqASIWKMhYnQNy672ioVIuON35B17HeF1aQQQ7BqCZEAIBsXFQSVCpHVg0veVqkQQ7EoxBFatYTITOgujfO2SoVYtEUhpuMtzAKV4MTuIkRmwyIO0phFIYZhu7UQK9mnqYYQqb/IAwRYFGIYVnNCZF+KpVyl+1SIwHf0NatVQ4ghWBRiGFZzQqxUQGZRiNssCjEMe8UJkdMV7l0VrvEe+2O8l/weyoYzy0YhhmFRiOl4C7NAJTgxEiFyPs5OznIy3w6C8FnOddl7LG3d7wG7TC6rRSGGYVGI6XgLs0AlODFcIXIZGyeVzZgVERezHOW8b+bOiIgVcQ73oEkUYhgWhZiOtzALVIITwxUiYkqeUKbMBJm8DtK+ZyQixKIQw7AoxHS8hVmgEpyolhARme/z9j3MliO56yEKMQyLQkzHW5gFKsGJoYTIDMdrYKmZtjRl/7Dc0pTvQbDDvbolCjEMi0JMx1uYBSrBiaGE6GIicg/WgB2sMbEZiNK+x8RMeTxYE4VYlNWcEDETj8EMZ+aeonCN/yl39xXZ1oz3k9ukWRRiGBaFmI63MAtUghNpQgzBohDDsCjEdLyFWaASnIhCzMeiEMOwKMQRWhRiGBaFmI63MAtUghNRiPlYFGIYFoU4QotCDMOiENPxFmaBSnAiCjEfi0IMw6IQR2hPPfOsL4CjEHO2/o2PD1uIjF1oFrwQecwyD6MM4Sm1rrkBAIMBPKQQQ3vgqu85jz4hhviAT4yHp6YE8E5C5Mm8oTwt2MweuGqPgw9SiDyW2R4ZHYo998cXSh3lPkd/KCECT+YlmENJKrSDAOBpwIl27CREC46QHvJpjx7nacyuj+r7skJkzPgMbQ/FiO0yjyAPR4hu5xHELI+KhE7Dl1snL9juH2QR4jV31Jc6nCzu++48YUZHhMwQFgBOO3YSItBmyugD33fmCbGAL24yzCLEGm1HcUJ0HQOCmA6kU4sm6Rvgc0vX2g3yv6wQgewdSjvwzRUhIExXiMn3ec47y1Tf9+UJPrjJGnxCbFy8chxl7ueAMfR9b94QC8R20rdEO4oR4sT6jk6cdJ0LmZvumVfquI5VG3vk//YHlU6f17OE5WgymEPFArlt2fp18n+exuG/k4kkZBCnkt/L+C5KQly04oEraRNj5NsmRIj9Gc3L/o/Tjh8IE2J+z0ec2bL8NDqPjrX1f6gwwCw369p6n5HvCwWP7v6RuLx91YMXTajr+L/MMqG3g5mOdih5/Kd8XyyaNJs8wDj4Zs6QwDdbbi7oXvuwfOdJu/eIH4qLp8/tWUzbQhcjMULM044lfRtIhrSDR5BfKT4t3i3yE6I4aHbriq8oIz+LU6FT19b3O/ncLRaIKeI6cZn45LyO/tGT6juf8m0XGrMWrPhD99pNvfK7TdSLKVqm9imZ/Jfv8yGhWPnr/M7+zfK5Q8wRdwsC+EJxtsS4yLddaExu7PrLwuXrSSa0o1HcKb4jzhLvFAeJXIS4t3iDeJv4+PyO/jtbutfWtfasa9d+y2otmzbI0Y3ioRAYDFxEyCzSIAgAnnn+eXGq+LA4U5n6+pauNferHYvUjpVqxwPaPph2dKze2C8/accS0SSmCoLgR139D90i/5vk+0L53iPWaJsHk99RJPIT37tEq2A//WYxRnxWfFycoV2HrzZ3rpmktjSrDctYgmvbYMYA5Cft6BQk9fsExxuuELQBTaCNvX3a8eEtzIIq2Uv8rThSnCS+INhZJSjoYKbrFoGjIYAv80WdmCBuFF8XZLATxfvFh8T54nviNsHylWBvFr7vLAraQTKZLPDzWvFd8Y/in8VPBfssswWfDW0c2KeaKUiGV4tLxGmCODpZnC0YG8aIsWLMQmwHMU6sE/PEPhqgDWgCbezl044Pb2EWVMmeYj/xRsGa+EzxFUEg3CoIhEmCJWAIELQMKp12vSALnyc+KI4RZDF2ssloBAazJQHN2n+i8H1nEdAO/LlLsI/Lsu5yQRAwu39ZsEQaK+4Q9wq28X1XERATxMbt4l/E1wTCO0GwpHuXQIyMDWPEWDFmjF2I7SDWiXliHw2gBTSBNvb0aceHtzALqmSUYD9xf0EGOE4wu3xJfEuQIa4R7IeFALMG2ZeZg8A9VzADIsLDxaGCdrxPnC6+KL4pECQBw/a+780ba8f3BbMG+1b0+0fEKQLfCWITJAdCQvEdiAl8+ra4VHxKfECQCBmHIwRjwtgwRowVY0abQ2sHMU6sE/OMARoghtAE2hjl044Pb2EWqESwPEX5B4o3C2YUggGn6EQyNIFCti4SfACWnRzVYtYjAzP4CJCOYylBOwgEshqBQIY7R1wgQmgHWDs4TI7oWAq9R7xd0B5mFNrGfi8zzedESOOALyQKfPuoYJfgKMFRRsaBfSvGhLbQDsaKMaPNbB9SO4hxYp2YJ/bRADGEJtBGLkI0MXLQZr/Zrb3Hzpi/7POzFqy4RK8vr2vr/Ub9wr4x4ltF07R0NUdGybrHCzqMjEvmYvBfJ14lyGD76bNHqh0XzGxZfrHa8dXBdnwz+Z1FIR9pBwHKzE073iIIXI7SHSi/T7+/efkXNQ6Xyv+vaZvRIohxaOlaiwDZH2fmIHnYLEjwvlYwDq8Wr9Pnjx9sx2WhtUP+kfzsuAJJ+63i7wVJBBGiCbTh1Y4Pb2EWqITKJtZ3HHfv7PZVycO7AfLC1KZujtAhwMMEg48IEeBe05q6D9RnaqIdU+Z0sd9H9mXwEeDrJzV0flHvPZ34bHBMqOv4/cyWFSzlWHmwL3WAeI3YR+w1sb7zeH1udXK7wHhB8XKL/GUmJ5HYbG4i3EPkJ0R16lvk1FZOhHOi+Qeek58hwAlYTnbTiZMbuzj4wgxiWXjf6fN6DtJ7j3J1Tcjt4IS4XZgg4XHUrpRQ1KaLaVvoF1ZwiZidCNcs90n5bkIkgPcZTOpbuWIleVlcKLixNKWxi4sRLBluT+qiJELwaceHtzALVCJnZtXSpWF2idvC5etZ2r1JlDpQCeWnBHettINkQTsaFvWx1DtSr3/HFSu+z4YIQpPoNsr3HZZ0asdikrpvm9CwWJrXvprTLszuBwsTI2cUcpsRR8mRrckLq8kY3K5DZxcJgenLqnSe9vs4tM9+CoHwdxLiGvcWI7DZx/fdecIM4rt4nYDVTD5b+yxjaFNyJqTtIVy0Tr8mfbNEor7nIgo7yMGqxNtW4DtoUxH4/AGSt5bZnMclltjf5UJvxMgyO1ch7uCoe/sQt+/4bifJC7ttJTlTEBz3Ny/nWlOOOnK+6u0S4nr3omnawUw/ramn8Ftw2vseKrUDQSbbMbNl+aKmpatv4H33PbsroGlJv/c784RYwBdXYMQMZep797A/uzk7BT4JkbbyXlEQ075dFieWuCqIWEKMzIy5HjXdEyet4+gwHCZwQrmhlptj8dENAjpvdusKLnfjHCGnJj6gZdKDrhCZbQji0G4Mdn0cbEdfc+eae2mjlVuQczNuKGY31NrM6AjRPRH+PjeeDBuLon6/hhiwe1uTviViiVMZHEm184ilWVFf4dVPEm9hFlTJXq5zBDvBEkrwmtGJdJjbeVqacj8iV2xwsvjMSfWdmyzImQ1pV2g/lcHsQjAn2rFxQffaRvy1clYArAZCszI/lWGXhnHxxCnJYLeYCmEsmGCS+6+eWOK87j8IZkVOxeQixL3djqOTQwwA349Hab/q5/KfS8S4POz8SQ2djySDJDTz/XiU2vEYF6cnyxFtaEZCtOW1I0T3YumzKHOFyOfZLgRLxhE4sWR3kDArcm6Ro9ksT/fQpl79JPEWZkGV1MSvuPl//azvcfnPdYtcqnTp5IbOn9eiEBsWrXyCuyyS5SEKEZ/wze1j9T23D5EQuYTtHMpcIYbUlmT/m3+KJW7p4tpTYukiwcl+jqJy0CaXa01rWIgrn5D/228MntzY+ViNCvGXEuKKZHkNCdFuDC6tTCirPSHuEEtcO8ulkVzt9HpRrBB5bBrPQkySfFJwHpYixO0/leH+Zk05IeI7bbBnNuZtZdqR+XdNi/a/jBDdn5j4PGU1KkSLJS605+J7rrjJ7TaoYQmRpwLbA0nztBQhen88yidEHoxqD0glkHk9nGc0VsMqEaL5b2Lkycx52xBC5IBNrQrR/UVAjgCHI8Sk8XjuIgYfKxPAw/qlb0smGAIkqeQ9q4xUiOavmwQRJWOSp+0mQvyqCFeIPDN/OI/brqZVQ4j4TiLhKcY2u9TKjEjC4NHn7hOYbXbM06IQ0/EWZkGVZBIigUBGzjtwzaohRIzn/hPQgS2xMy1NSSL4z1gwE9IGlth5WhRiOt7CLKiSTEJkwG1ZV4RVQ4g2CyJA20eslaUphq+IEQHyF+KMODyraSH69k/ytkqF6GtDEUvtSoRoZqsSSyp5WhRiOt7CLKiSIYVI1iX7FmnVEqI7g9CmWhKiu1tg+7t5WxRiOt7CLKiSIYVYRMAmrVIhYogQMTKTAPtbeVslQmTXwHxnTPJeVmNRiOl4C7OgSjItTYu2aggRoy0c6CgiiLFKhIjvLEXdI6d5WxRiOt7CLKiSTAdrirZqCbFoq0SIIVgUYjrewiyokijEHC0KsViLQqzQqinE5ubmwVf5WxRisRaFWKFVS4jt7e0DY8aMGVi/fv1gSb4WhVisRSFWaNUQ4ssvvzxw1VVXlYQ4duzYga1btw6+k59FIRZrUYgVWjWEWFdXVxKhweyYt0UhFms1K0QOmXP+KnkKg3NyeV5eVakQt2zZsoMIgdnx+efz/TGjSoVo42FkHQPOAydPe4xkDKMQ0/EWZkGVpAqR821cJJ0872aBkJdVKkQE9+STTw709vaWRMhf/q81Idp4WP9zYj/LFTZcBJAU3UjGMAoxHW9hFlRJ1YTIyWZwZ09eG+69c2Rn33WS5corFaIZ4kOI/C3CqiVEGw/6lauFrG/5H8FZn5sNJUT7PPBd7rauRSGm4y3MgiqpWIi8R1a2y6/APs9n3Pe4rIwyXhNA7m08vOd+zrUoxG3mGw/6y5aZ7iV87rW19hnX3DFMjhPb+hJiFGI63sIsqJJMQrQBcgfKBpEBdAXFa+5swPiMvSbLutsx0PxPubsNlrwzIgpxm9l4sHIAu53L+tZmRj7H/8MVos2EfJZtkhaFmI63MAuqJJMQEQWDYyAUBs/e568ZAWICcwcbcwPC3ZZy+04LCne7KMRtZn1Gf1mfUeYTjtvX7mszd2zc15g7Nq5FIabjLcyCKqloaep7f6RCJLvznsH3mEUhbjNff2P011BCTN5Bw7jYSiY5TuXqiUJMx1uYBVVS8T7iUEtTd4DLCdHdBkvWF4W4zcqNB/+T/Gy/zpKh9bX1ry09k59njNz+5/OMa9KiENPxFmZBlVTlYA0CMxhA+3xWIQLbud9jQYNFIW4zt8+SxoyHuGwMkn2N0Ox9/rozJGNk/W64KxKzKMR0vIVZUCWpQsR8g45IXKHwmuyaHDzf51xLfjffAcnPRSH+j/nGw4z3rP8Qk3vKCGN8fKcnLGFS7ut/syjEdLyFWVAlQwoxBItCHNqY/RAaYmRpiRDLCSppyZVLOYtCTMdbmAVVslsJkUvdxo0bV/pbhO1KIZr4gGVo2syZNJapyYM5PotCTMdbmAVVUhNCtIeVpnReJiEWbbtSiHlYmceyRSEO4i3MgirZQYj2XPTQHvDJAybdx14PJUR7UGloRkDyOPFEO3YSIg8q5Qm7IRkPr+VBpTfdM6/kY6VCTO6/5mE1I0QgUEJ65DWPr8ZH9/nnQwnRPkM7QkkqNqsnffQJkcdj838oD/i0R1/ztGMe746PlQqRJfRwls/VsJoSIrMJHc7jlpmJ6MQi6N/4eElI+GdZ2ODxy0MJkYDhc2wfSjuY6dx2lBMi8MhrypiF+A7fd+cBAiQWiAliw/wbqRARHyBEO7iUl4UuxD8lA50gpozAwdGiQFjMDknf6EwF7xr5v4MQb57YvMNngYAuuh345QanweoDIS7ufaCbNiXbyv/0Acty3/fmAXUTCzYTGrYbo77PLESO7HIeNImd79zVFrQQJ9Z3zCUgkh0dKgSmfP5r95pN7fJ/+4NKZ7Ysn5HM2iFjM17Hqo0r5P+8SQ2df3b3g0OH1cb0uT1/xHeBEDM9qDTOiB5Uyb7NnWveJudeRIxkOToxVJjZ6Mj5Hf2/kO9tgsct3yguF5+ZWN/5G8RIkPu2DwWSCe2oa+t9Rn4vEk2tPevaKUOMvm1CgRhBhCTDJX0b1sn3ET26O+4jOqiSfcRB8zr6z5ja1N2DkyEzubHrLwu61z4mn7tFs5gkrhWXiDOXrnzws2pH6Xn0IUM75i5d/Wv5TDtaxWwxUW2bq/ee9W0TEtPn9WyVCDfKZ1YlDeJO8R1xLu9nEWI8auqgSvYWB4i3iY8JZhYe6D9VzBd0dKfoEgRN0eBHh2A2JHh/Jr4nPic+Kk4WpwuEiUAniCaxRITYjoWCQJ4obhPXC/y+WbDcmyUWCD4biu+AL8RGi2BVQgB/XZydVYhFWMhC3Eu8XhwhThTni+8LggIxEiQEMvsBIcAyaI6g08YJgvbLAvEdJ94rPijOEd8WdCyzZp0IrR34M1MgOPzkYMcYMVqwzCMh0sb7RKNgG993FQG+EBuI8HbB/uGF4mNRiCNAlewp9hOH3Ddv2XVaFq0Vm6fO6fqNlnhPT2vq3iJ+L/53CMxasOLR7jUPkSAYfET4DfEZcYJgVj9qdmvvV9WGfvH4lDldv1Y7fqttg2rH/c3Ln2hf+SAzOks6ZsHviss6Vm28dMb8ZSxP8f3JqXO6n5L/z2iboPxvXLxyrfxlv/AW8c+CZPgJcXwU4ghQJaPEvhPqOubgIAdDOJAQKhxQkq9/aVu2brz8ZuZgBv+weIc4bGJ9xzzawQEP3/ahYO2Y276amZpZ8KL2VQ9eIP9/xcEmTnf4tgsBYgQflSz+0NX/0Fj5XjpQJj4gjolCHAGqZNSEuvaf1MphfztJr4B9Xr5/QZwhjhVHaua4jE7miKlv29AgoCXGlzpWb/ya/P/kpIbOf6NttXAayS76mD63h5mRZMjxhXeJo6IQR4AqGSXHnvadCOdkMh1aND6/6My5S1ezD3WaYL/wTQrqDoI7+XkC2/e9eePzi2DWcnu2ZvhSEvF9jqBPflfe+JK0nQdV358nCNx3irck2xGFmAFVghB36DgCxM7XhQDLuGQgUDa7dQUHO1gSnSTeKiGuY+nkfo4E4/vOIkB07vWyQBDMbFm+uGnp6hv4jPsebbZL9EIAX93ZmpihXH3PEeqzBAfL3k5ZFOIwUSV7JDuO/SuuLeQi5aKNC7a5TpQgdi//ovM0k/TI/68IguD9Wq5ucIVoIuSi8aLNLpr2BanasXx+R/9dboDYbMk1qs/98YXBbynOCGCueSUxmI+OEDl9dLE4VRzra2MU4hBQidtxZGH+x+GQjCBwl5103uzWXvZPOORfCoKJ9Z0PmRBt+RqCCF0jqbjBTDvq2nrXtXStud8NENpBMgzlDhiMpIiPtg/uCJHg5WQ+53JPoSwKcZiokr3djiMAyMI+4w7uvC7OTRqCYjnqdl79wr5/k/8cPud84TmTGjofNiFakJhxTaP9HARkuRt9V9hTzzy7QyAMtuORBd1rFyTLuePCZ/hOG7gjP28jkVhCdITIedobBAF8phtP1pYoxCFQJfu4HUcg++7QZ/D55a8sv2uyKyzZgaXOW9jH9ab3iqvFRRLio+WESAIx/4sUorcdi/oeb+1Z15ks9wUvjyLgZzBoD23I+ps01TJ8wje3j9X3nIK5Q5AQP0tZFOIwUSVD/lQGF+YSxARAUEJc1LdZ/k8TpWw8ubHzsTQhcpFx0eZvx8on2patK10f65Yngxfhub89WoSVESIHzTivO6yLvouwmhYig2/LobCEuPIJ+c/lXzeJr7s3BpcTIkkl71nEtTLt+KWE2JssTwYvv1XKOHCxNO0poh1lhMglb5lvgyrSalaIbhYOVIjWeVekCZHgRYiQ/HHdPK1MOzL9eJT5b8tTSyx52hBCHNZPZRRhNSlEW5Lyg7O8NiEWkYnLzSTy3zov86+4IUralXcQY5UK0U0gtlLJ06IQ0/EWZkGVlBUig2xZGAjeomaTagoRoz0s7/K2SoXo+lzECiUKMR1vYRZUyZD7iGZFDLxZpUJ0Zz+bEQOa2TMJkdMVbv+zz5h3MolCTMdbmAVVslsIEb/dmb0W9xFJJu6DepJPVc7DohDT8RZmQZVkFiIzSFFHHCsVIn6XewBLnlaJEM3YZ6ctRVgUYjrewiyoksxCLNIqFWIoVg0hFmlRiOl4C7OgSqIQc7QoxGItCrFCi0IMw6IQ0/EWZkGVRCHmaFGIxVoUYoUWhRiGRSGm4y3MgiqJQszRohCLtSjECi0KMQyLQkzHW5gFVRKFmKNFIRZrUYgVWhRiGBaFmI63MAuqJAoxR4tCLNaiECu0KMQwLAoxHW9hFlRJFGKOFoVYrEUhVmhRiGFYFGI63sIsqJIoxBwtCrFYe8UIccuWLQPPP5//jw9HIYZhUYjpeAuzoEoyCfHll18eqKurGxgzZszAk08+OVian0UhZjOSJMlyV1kUYjrewiyokiGF2N7ePnDVVVeVRAi9vb0lMQ5FNQMiCjGb0e+MEUmT5Flti0JMx1uYBVWSKsTm5ubtAhwu48aNG/yWym13FyJJLZnofJAkrf9JniTRaloUYjrewiyokiFnxPXr1w+MHTt2+wDHGXHkNlIhktSs/4cLybRaFoWYjrcwC6ok0z7i1q1bty9REVnetrsLcSQzIsmTJFpNi0JMx1uYBVWSSYhmHAyIR01HbiMVYlZDjLYkJXlW26IQ0/EWZkGVDEuIRVkUYjbb1YkyCjEdb2EWVMkOQrzpnnmlh4KGZjwrMPmAzyxCDOlBnxhPYXYDYbAdOwmRpzbzhOHQjGdn8iRmt4/V91GIg3gLs6BKdhBiiE/a5Um1PD3XRFam83YQIvDo65CCmaTge/KxT4g8lZf/Q3hst5klEYuVKMSd8RZmQZXsIESwICCIcbxISAiIkNmQ58qndN5OQrz+7jmldvCUW57U6/v+vCCIESHJgWSXaMdOQrT3aDtB7PvOPGFFgn9uEolC3BlvYRZUSUmIBK3rHP8T/LxXJAQug++KECif19H/sPwvK0QgIOho33fnDe1wRQhJISbbSXtoa/K78obHprPb4vqWVYi0u9zj4PO25K4BBCPECXUd69gncZ0LGQuAxb0P9Mn/GYLOu2JaU3ev+5z90LHdgJbutRu712xq5XUy2EOGJKHk97L6PlWINl7MRkUauwYkhGSsByPE6fN6zqOjkrNJiDCozBD3Ny//D/m+UPDE4B+Jr7UtW3+Fksr/9c2goYEIWXFMbep+Ub4vFk2zW1f8grYlVychQsIgZpqWruJhsXPFPeIqcUFSiMCYUF7UMrvcrgEEI0Rx8H3zl42lo3AUx0LElspKHFu7127qld8LxBRxvfiyOLuure9HiDHkdgDtkAj/3LN2E7M6CaVBTFGC+QXv0VbfdiHAqgMf1de/k88dgmfojxPfE5/jvaQQgURv2xaBb9cAaFMIQtxHHCje3tqz7kuzW3vni/76hX0Py7knGhet/I14KhSW9G3YIF97xFIxR4wXLIkuFKeJj7SvevAC+T9D7VipYHmoYVHf42rLr33fVxQLutc+Kl+XiXbBjDJd3C1+snD5+il1bb3r8F3teIwg0TbBjEPT0tVPdqzeuFa+dguSyExxq/im+PSEuvY/18oSm5UTIm3pWktcmRC/InIX4l6Dlb1FnCwuElcLMtxs0SLobFhUMOYHMyEiZDb8sRgtPiVOEicIOvHz4krxM0EHzxdtIqR2tApmk2kCP5nZ8ZmZ5Vpxm5gsmC1ps23n+848MT/wqU6wf4i/l4jTNdPPY0VyzR313uAPCWbJifUdf9U+OgmR4w3EE6urU0SuQtxTvEYcKt4rzhZfF3TsnYJAIFsTzCHAPuFUwT4JnfZdgeg+LN4ljhHHijMEHUpSuV1MFLSDzvZ9b97gBwIkiG8WPxTfEF8SJMOvCUR5kyApknRou++7igBf8OkuQQIhGX5GnLS494GPKrh/hRg5+c8yNTQ4RceS9F7NhoOrE5I08cHxBhLKh8SbxevFnj7t+PAWZkGV7CHYT3yDYFb8gKBDWScTCNcJnGPKDgECk4EncFkKIcKPCUR4hPh7QSY7TnxSXCoQ6zWCdiBe3/fmDX7cIEgU3xII8NPi4+JUge9fEIiTpTdtpu2+7yoC+nKs4AANSeNcwYrqneIdiPG++csaJzd0biHYQ4NZUPvjz2lXZ6P8ZYndLEjWTED0Ozp4k3ityEWIowTL0/3EweJocbxgf4vOJTtfJlg3AwItCupnliNozxdnCQb/HwQCJJnsL2gHSeX9gqAmsdC5iJLtQ2kHmZdEwiqE5TT+0hZm9fcJsvKZgrZeLELxHYgJYuM8werjRPE2cbgggGkHCZLP3ihYWXGaY4noFF0CARQF9eMHB5vYRZgl7hAkbeKF/meViC728GnHh7cwC6oEITIrctAG9R8kmFkIBgKD/S6WfQRKCLB2R3zsCzILMvu9UbCWp9NeJVhqcwCKoHiHoFPJcAQ22/u+N2/wA39ox3vEWwX+HjLIYYK20UYS4wdFSOOAL8SGJY8jBX6TCIkh/qdtnxMEN8tvxMg+JfvFHKBCmEWCH+x/s8zmQBmrJhIMyZu4oR2sFkf5tOPDW5gFVVIS45TGrjdoyq4Tf3Kn8NDQkuLBWQtWMLMRpAQunfU6gQCZ2feaUNf+E3326eS2ITGhruOJGc3Lvi1/rR2lIJ42t/tD8n+Jb5uQ0JKzbe7S1QQs+1EkDRIfifzVgvE4ZOHy9SfWtfWO1RJwgcasc9tRbI4G924QG4ukcfHKNe0rHyQpsP99i2AX4XLBQT+SC2PC/uHeIh8hTqzvPECd+wg71xx29u3chgAnurkqgkCY1tTNfhNLB5ajzIBkrj2tHZyz8n1HKNgJ7smNXZx+oR0HTp/b82GV/YmDCLTVt10IcKBj8HzgCwpoZmqbCVmRMA6vklC/xfu00c4/hoSdz5w2t+fxzv6HmAlZQpcONgl2z0gsJBUOZuYjRDk0i+AN/WoUYzCIX2xbto6jo2Tjkhg1W15RK4fNwa5O0czCvtThev27WrnUkFjhooNJDZ0r5DuzIrsHJTFKhGfSLsYp5JgiqRAvU5u6N8nvcwRLbnYFiClmQ3bX2HXzaseHtzALVKRO+63vBCyZj5mlSPAreTWEnYRtWNT3j/Kf/SsC4WAt6foZfPezwOzi++688V3VQWaeMX/Zv85ZvOqLtMnXVvrA9315QiwkRUW/4rP6nv1vjpZykIZdnJ/XSkJBjLRhfmf/d+Q7++wcG2GFwvK6tCwVXu348BZmgYpwBIfMOWYUu5yMu/WLhOsD8YNAMP8A/9j3kP8c5uegwNFcvE7Q2GcIHJYhbM/Fvr7vzwtrh91Ua+Cf2tHatGTVtbzvvkegk7G5Fcr3nXmCD8nVhgWx+p4jvxxl56DYEZThu9sWYDyKSu6+hG7QLu3DcvHK6YJVFgcrmd1ZZnMg06sdH97CLFARHecKkSAncLkhNwSze+FcHwlgdd5y+c85LHawT9DSdAOd7n6GAArl5lq7BcddfQy2Y8X8jv5xvGflBA0Bwj2hIfzKgN25gE82MzpC5Hxz6aoa8e7kWAECtv0yn9B3NeUSITAGM1tWcBqDU1wcgGJ2Z6nNsQcOAOayj7iX23G23AhFhGZ0prvcofPq2nofkP+cgOX82umT6js3mRAZeNrBlfchGUmFgEy0Y0NL91qOWG8vJ2AInpAMMZLYLJE4QuTKJcTIzHiyG0+AcBEwQi4yqXCTOb4lV1eMwezW3lXyneXpBYIDUBzNPkCU9hO1uVc/SbyFWVAle7sdRyAT9K49/fTTA93d3QP9/cXd3MlswmC6nVe/sO8R+W8nYc+b1ND5sAnRgsTspZdeKrWhoaFhoLW1deC5554bfCdfIzHgV6IdP2/tWbcwWZ68qx2f8Z020JYijF87sIToCJFL9bjqh9XJGW48AcJFwCHM7Kww3EQI25Jh30Py3a5b5iIKDtpwNJgjp7kIcR+345JCZMCvvPLKEgRAUeYLYO6qkP+TROmC48kNnT8vJ0R8nzZtWimZ8Pq6664riTNvK9OOzRJid7I8KUTGwhLi+PHjS+3J2/AJ39w+Vt9zUpzrkjl49hnKXCHy+VB+OyjZ/+Yfd7nId7uThyuZuIiCc4ksT3O5sib15xTJwgQswRueEFdyUyoX6nIJ1eWTGzsfS5sRXUOIRczwZdrxy7Zl61Yky9N+5wXfaUPeVkaIXKFCELM83el+xKHakqeVEyLJUL5zMwHX9HI5IctTrg7i6Gku15qmCtEsYCHarStXuL9ZkxSia4iSGZ4ld95Wph3D/l1TlqgBzYhcLsZdJD8QO92hP1Rb8rTyQizFEpe6scTmMjcu4eN6Zc4n5nOHvttxNShEbsnhboDMPzBcVBBjlQiRBMIsaCRn+TxsCCF6f7PG15aibAghWixxlQ0n9zlgk9v9iLUsRPfnDTIJkX0sgjikgzVZhYjhNzM5yaQIMb6ChejGUhRiOauGEIsWIVapEM2KWl7vJkLkdq8oRJ9VKsQQRIhVIkRXdJs3by4JMc6Iw7OaFaIFsJ3C4PWmTZsG383PKhEi4hs9enTJd5eA2pFJiJyyMN8ZC8Ymb4tCTMdbmAVVkipEMi6B7FKEVSJELNmGwNqReWnKrMhsWMSBGiwKMR1vYRZUSaaladFWqRBDsUqFWLRFIabjLcyCKolCzNGiEIu1KMQKLQoxDItCTMdbmAVVEoWYo0UhFmtRiBVaFGIYFoWYjrcwC6okCjFHi0Is1qIQK7QoxDAsCjEdb2EWVMluKcQtW7YMjBs3rvQ3T4tCLNaiECu0agvxySefHBgzZkzpb54WhVis7fZCrPRKkCjEMCwKMR1vYRZUSaoQEZBd8G0M94r/atxNHoW4zZLjkfVXBrgu1bbh9Uivs62GEKsRUyO1mhUi12RywXQlnRaF+D9WqRCT43HLLbeUGMrofy4at+24aJzthnvNbTWEOJKYQrz4X+2VlflXM0L0DZiVcRGyryMphyjE/7FqCdH6nsBEVDbD8T/9zV83aOl/d/bkPX6lgOA2s234Lndb16opxOHEFK/Zhr+ub/zPZ12z7/B9/ytOiFZut+a4t+XQUe4tO0YlFoW4zXzjQd8iMrBb1YDXJj77jGsW3HwX7/EZZknbNhng2K4UopUnY4p44n/e46/FGYmE/8F++iT5HcmEUvNCtAZb46zcBpcsSsfxHj/j4GZa+1mHSiwKcZtZvyMicH8yg/63mZHPDSVE+y7+8h6f5zWWHEOzagrR4sn8t3JfTLm+Ykn/eI1Ak9+RtJoXIo2kcdbAZMe4/ycHndeUVWJRiNvM+tkCmACkzNfH7ji4r83cMUtuX27MqinE4cRU8j18o+22j8lMzt/k55JW80JMNixZ7v6fHPRygzoci0LcZsl+N/P1sTsOyTHBEIId6EluX27MqinEZBuS5e7/yffwjVkRPw1WCMnPJa3mhWiNBN9Swf2fzOQuG/jfN6jDsWoJ8fnnny+Jr7e3tyRE/vI/5XnYrhIi/7OMs/06xiu5NLWlG/Da/XxSeMn/zaopxOHEVPK95NLUt43Pal6ILr4lgPs/MIgGHeYb1OFYtYTIJW0I0OWqq66qeSFiJi762g66uEK08eMzvO8ejClCiC5DxRRmcWQJxdpo+MSctJoVIkajXGiwlbvm/s9nGGgrs21GatUSIlZXV7eDENvbyy9hq22VChFL9rtrvEe/098Ep3tag/eg3Fgky32fq4YQMfMl6ROvXUv+zyzq+kVbrb1myW1cq2khhmDVFOLLL79cmgUR4dixYwe2bt06+M6ut2oIsZwxi9lyzz2aWk2rlhCLsijECu2pZ56tmhAxZkGEuH79+sGSfGxXCtHEByzj0maGkRrPd8Q3t4/V91GIg3gLs6BKdhAiD3EM5Vl2rvFYLwuAMp3nFWLaA1ebm5sHX+VnPCwz+ZxHnxB5BmGICZGHpyb7WH0fhTiItzALqmQHIdrTXUN5nh1mnec+6XUoIQIPpCz6KbWu8Qhxkpz7+OhyQrQg5wGtoZg9Qt2eRR+FuDPewiyokh2ECDy+GzGS/ejAIiEh4N+tkxcM1Xk7CZHHd4fUDkR4132Ltj+D3mnHTkIEBEsZM6PvO/MEH/DFTYZRiDvjLcyCKikJMflccbIewY+TRcISLekb4HNL19oN8n8HIbqzDRD0lPm+O2/s2fMuCNMVos02BgFNH/i+L0+IBVdc5hs+q++jEAfxFmZBlew7sb6jk4BwnQsZAprO7Fi1sUf+b39Q6Yz5y+YyA7ozTshYIC/ufWCV/J+ncfhvd0YPHRLE1KbuF/FdRCEKb2EWVMm+M1uWnybnXqRjkxk5JBCYibCurfcZ+b5Q8OjuH4nL21c9eNGEuvY/k1SS2Ts0mOVJGvc3L/8P+b5YNM1tX72atiHGkJOJrZbwdeHy9Q/K97niHnGVOJ/yKMRhokr2FQfJkfOVkZ/FydBpXLzyt/K5WywQU8R14lLxyXkd/aO1RH3Mt11o1LX1/a577aZe+d0m6sXkpqWruibUdfyX7/MhMbmx6y8Lutc+Jp87RKO4S3xXnMv7UYjDRJXsLd4g3iZOVefe1NK9tq61Z91S7besblu2foOy3kbxUAgMBi4iZBZpEHeLK8UF4lTBs88/oXZc39K15n61Y5HasVLteEDbh9iOJWKOIKH8TNworpf/c+T7QvneI9ZomwdFMP7LR3zvFCRDdg9+Kq4QZ0chjgAqETyw/0hxkrhQsNa/U9DBTaJZ0OEh0CLmizoxQdwgvibOEieK94sPic8JMvStYpog2ENsBzPhJIGf/yL+UXxb/FAQFOx7zRLsh7GN77uKAF9YkhK8zIb/LC4Sp0YhjgBVsqfYT7xRvEt8QnxZEAi3CNb+EwUZOwQmCwRIorhejBHnCpLIMYKZ/T2C2fFLgv0WOnecCLUdzILfFwQAifB8wVIbQbLsvl0gSATr+64iwBd8uk1cLS4XJMMTohBHgCoZJdhP3F8wKzKjnCkuFgT5DwSZ+lpBUBQNfpB9me3oMETIDPgOcbg4VNCO94rTxRfEaIEgQ2sHAfw9QRCztKbfTxG05zRB20iKzJIkxmuE77uKAF9YOZEsLhFnixPEMVGII0CVIESWp8yKBwoLYva1CAyCgSAhUxPURYIPwLLz04JZj8FnFmRGJ5mwzKYdbxLM8AQ17ThHhNYOZj7ageiY0d89d+nqUyc1dLZOqOv4PQETIhPrO56bNrdndcfqjSSQz4qPi+MEgXs4n4lCHCaqJCnGA8Rh4mhBIB8rCHb2v0IAX5i1WX6+XRwhDhavE68SzO60A1EyO9KZ7xTvE8cL33cWAe0geEl6zOZHzmxZcYaC5E9cmsdpGoI5RPANHznKvrRvAzMh40EypL8PiUIcAarEhDhqckPn0crE9QQDzkaqj4J3w4z5y1jyM8isPv5eHCL2n1DX3p+8BC5U8BExTpnTxekLkhyJm3YcRDujEIeJKikhAb5fDm4NPRvXMlzDayfCtfzkiDQzyEHib6c2dX+Qcq6PdYME2I6T/EWCD0m/uCgBn+U/y/93C1Ynh1JGe+1zUYgZUCWlGVHO/RaHauXysFrGAnhmy3IOiHGA6cCpc7o+lQwQRElipJyLrouCO1jwgdnaTRSIjXL5z74u++sss4+mLApxmKgSmw13ysZ2KROXYvF+ZPgwyL6L1glqzYKcGywt67RcvYDP2/v0Pf3e3vdQELdxcV8ngiQxWLJ2hMiRX5IKYjyWsijEYaJKJMT2jyeds1uI6HxuZqUBkeHBrwqUu42LO0ImN3ZtVv9/Spw8u7X3q+4Y8D63b4V0gza+TGvqKe264KMjRC5GQIzMjB+hLApxmKiSURPrO05POkfmIxtHq9y4uTcZnOx3TZ3T/ZT6n3Oc5zUuXvl9dwxCCl7XiAluDsBHR4ic4C9deC/OTLY1CjEDqkRC7OSw+XbHrIPTfmYi2vDMDWBAiNOaureo/7lEb3TT0tU3uGMQqhDxCd/cOJH/XPPLdbKc3D+HsijEYaJKOG1RymLmGEsPlkVmK1euLP0W5rXXXjvw1FNPDZZGG465AQwlIc7teVb9P15cPa+9/7YaFiLXI9MOLr6Pt0GNBFUySvsqZ7nOESQcLcP4XUx+FYwfdeVHYO0n2qMNz3xCnD635zn1P/dT/mR+Z//4Ghai3RjM5ZDxxuCRoEpShYjwEKGZ+6O10bJbGSE+r/6fLW5v7lwz8RUgxHiHvq8wC6pk1JTGrk/6hMiP07Ik5UdrzXgOHb+fGW14liJEboO6U0KcPJQQQ0iAUYjpeAuzoEr2KCdEfqA2+RwBlqcQbXiWQYhThhLiUUcdNXD77bcP/leMRSGm4y3MgiqJQszBUoTIEcc7m7vWTB1KiCEcKItCTMdbmAVVUlaItjR1nxrET7m7+4zRslk1hBiCRSGm4y3MgiopK0QM4dkMyMyIMN0ZMlo2i0KMQkxFlaQKEdHZg03sNEa04VsUYhRiKqokVYgYS1SO2FX7EV+7k0UhRiGmokqGFGK0yi0KMQoxFVUShZiDRSFGIaaiSqIQc7AoxCjEVFRJFGIOFoUYhZiKKolCzMGiEKMQU1ElUYg5WBRiFGIqqiQKMQcLQYicfqr0FFQUYjrewiyoklQhMnBcWRPPIVZm1RKijYfBBRbuJYhpZttUYlGI6XgLs6BKUoXou/A72vCtWkK08TBRcVsalx3ydyiLQnwFCdFmRu5RTGZi3uMKnCjana3aQnT7mNfJyw8ZC8bHvZc0CvEVJEQGnAvB+etmYgsGK3cDJdquFSKGCOl7LDkWJtAoxFeYEG0wKWOgybzctW+ijPuTO9uuFmJ/f/92IfLzJvYrCjZGzIxRiK8wITLoZvY/A82AM9DJIImWnxDtfRMdMC68b/9XYlGI6XgLs6BKqiJEDDGybGXgk4Gyu9uuFiKrEURm77McZVwMyqMQdwMhuoGR/Ey06guRpMdr/rIMpc9tDNylKcZnsCjE3UCIFgxAIMT9xB2t2kI0WH2wCrHxwdhnp9zGg/exKMQaFiLmDnJSYO7/ZN6sJ5d3N6uWEDHGwyiX8CjnVJLNhhhl5T6f1aIQ0/EWZkGVDCnEaJVbNYVYpEUhpuMtzIIqiULMwaIQoxBTUSVRiDnYK0WI/Rsfj0JMwVuYBVUShZiDDVeIPMItxOdT8uBafMfHKMSd8RZmQZXsJEQey8aTYaNVz4YrxOvvnlMKGB5yGorx5Gh8ske8D0eIzKQhWE0J0To4Pqi0esYKw31891BCBD5PGY//5jHgBFERkAyYnfHFHtsNWYXIY8iZSUMw2sIj6c03CFaIwKO76byQnuFeq1bu0d0+If7w1lk7jMON45tKgcJ7RUHgslRmlnZ9yyrEq2+vK32OGbVIe+6PL5RWeiQGtx1BC5HlBwPAk4NZVkVGBjMhfZscfP53hSh+OKGu4yXb/6oFmLEnN3a+LN9ThQgkFMrpD18/7WpYGiPCu+5btFOyC0aI05q6T/Z1HpmMgMHRyMhgJkn2K7Di0OA/qf4vPZZN/NPMluWLGAd3+RciBDIJA18XdK99WL7PFfeIq8QFvlgCyugPXz/lQbl+RZwhCHGUeI2y8XpftohUHwKCYO1YtbFXfV8nfiYI4svub16+gPfAF0xFQ4zg28T6jr/O7+zfLJ87xBxxt/iuOE+x9IfkCiBUbNnctmzdGvluQvyKKESI+81asOJMOfQimZpsF9k1EMwM/PyO/sfV70vELHGrIIgvEud3rN74jebONZPq2nrX1S/se5Rs3bho5W/EUyGwcPn6TT1rN/XJ127RJgjgW8Ro8SktuWfSRt+sGBJMOiSWqU3dL8rvhWKGuEl8WZwi8heiOHRx7wOnqBMXT5nT9WstV7dMm9vzLPsx0+f1/GekOmjG+w8F8r+pvwniBWKa+JG4Qpwrzhr8+3UxVrDvxfK1RRD0BAwsKgirH1+axWwxTlwtLhanipMUQx33SowsRX0JqWiYsTkGwsy+pG/DA/K5VTAWN4hLxMniSPE6sadPOz68hVlQJQhxX3GweKc4U5DZfipwbL5YLJaK9kjF0I/MhIiQIL5LcJCD2fA08SHxMXGe+Ka4XvCZyWK6IGszAxUJPuDLJMGy+lpB4jhbnCDey1/N5j9W8lmvGeeZaXO7/6Ck/lwyMRVJ09LVv9LMvlK+srzmgNO9goTyeUE7DhevFXv4tOPDW5gFVYIQ9xH7C6ZiAuELgn0WlkwEwEzBvgyZmaN8kZFDHyJAApn9KoL4csFMyOC/SxDIHxbnCN67UvA5Zs4fC/ZjigQfbhT49D3BUu7T4gPi7YI4oh0fFZeJ68QE0SiYTUlERSd26gcmGSYbxoPl9bfFp8R7xBsFq8XchLiXQPmHineL08WXBPstZGQcvF3cIciAkZFB/wEJDlExEyK0z4gTxdsEWfhNgoBGmIwFgvyiYMlE0HMwgSN7RUDd+IAvJOzPCpajxwkESAwRwG8eLOP9MYL2ssxmNiURFZ3UqZ/JhUmGyeY2wXiwvOZAzVvFgYLV4iifdnx4C7OgSmCPwQqZFQkCMjKdy74KHc7+C8ukb0UqhqD8hiCgLxTsCiA4Bv7vBGMAhwj2UY4Rx4qTBKsVDiIQKEWCD/jCDPg+8Q5B3BC47FO9XuA/iYXPnS+IH5Z9zKYEfdGJnbrx4WbBZMOkQ6yfIYj/wwRtYZLKTYg2K75aHCDIygQAGY0lEqIkM+PkJyIVQR+yL0hAE8gs4Zg92Edn4F8lSIosiThiRzmzDIHO55h1QgBf8AnfDhKIj/hhNwf/aQszI3HEgQ/2H5nVmVU5BkFC8iWqPCE5sG+LAJl0iHNEeIQgGdIOJimvdnx4C7NAJYO4YrSMhiDfIshsZD06NVI5th/FgBOsJD+ERxDvKRh8/u4tTJQENiDOEMAXdmfwDR/x1fXdxMgsT1sJcGZ19htJREUndepnckF8zNpMOowNMc94oIPSbCi82vHhLcwClQxChUAnEhA4QkfT6TjGsiNSHd4gyLgEqgUyg04QlwZ+EBsTC27gcyFg/pjPSb95j3YRQ7SXmZOl9tGCRJRMTkXA5MIkw2SDAFl9MAmxKqGN29vk044Pb2EWrCIH61QbfBwi2wECjVSG9aUFtC+QXwlYDNFGd1YnASFMX4LKG/xgkmGyIWEw+djMvsOY+LTjw1uYBasoEtkFWDC7ogwpsbsJsdzsXsKnHR/ewkgkki/ewkgkki/ewkgkki/ewkgkkicDf/P/Abm89AKWzh4YAAAAAElFTkSuQmCC;movable=0;resizable=0;rotatable=0;deletable=0;editable=0;locked=1;connectable=0;" vertex="1" parent="1">
          <mxGeometry x="1310" y="300" width="226" height="277" as="geometry" />
        </mxCell>
        <mxCell id="OlI_2qXUzGhfWNakAulT-109" style="rounded=0;sketch=1;hachureGap=4;jiggle=2;curveFitting=1;orthogonalLoop=1;jettySize=auto;html=1;fontFamily=Helvetica;movable=1;resizable=1;rotatable=1;deletable=1;editable=1;locked=0;connectable=1;" edge="1" parent="1" source="OlI_2qXUzGhfWNakAulT-110">
          <mxGeometry relative="1" as="geometry">
            <mxPoint x="1340" y="390" as="targetPoint" />
          </mxGeometry>
        </mxCell>
        <mxCell id="OlI_2qXUzGhfWNakAulT-110" value="&lt;font face=&quot;Helvetica&quot;&gt;Rotate CCW&lt;/font&gt;" style="rounded=0;whiteSpace=wrap;html=1;sketch=1;hachureGap=4;jiggle=2;curveFitting=1;fontFamily=Architects Daughter;fontSource=https%3A%2F%2Ffonts.googleapis.com%2Fcss%3Ffamily%3DArchitects%2BDaughter;movable=1;resizable=1;rotatable=1;deletable=1;editable=1;locked=0;connectable=1;" vertex="1" parent="1">
          <mxGeometry x="1210" y="370" width="100" height="20" as="geometry" />
        </mxCell>
        <mxCell id="OlI_2qXUzGhfWNakAulT-111" style="edgeStyle=none;rounded=0;sketch=1;hachureGap=4;jiggle=2;curveFitting=1;orthogonalLoop=1;jettySize=auto;html=1;exitX=0;exitY=0.5;exitDx=0;exitDy=0;strokeColor=default;align=center;verticalAlign=middle;fontFamily=Architects Daughter;fontSource=https%3A%2F%2Ffonts.googleapis.com%2Fcss%3Ffamily%3DArchitects%2BDaughter;fontSize=12;fontColor=default;labelBackgroundColor=default;endArrow=classic;movable=1;resizable=1;rotatable=1;deletable=1;editable=1;locked=0;connectable=1;" edge="1" parent="1" source="OlI_2qXUzGhfWNakAulT-112">
          <mxGeometry relative="1" as="geometry">
            <mxPoint x="1450" y="390" as="targetPoint" />
          </mxGeometry>
        </mxCell>
        <mxCell id="OlI_2qXUzGhfWNakAulT-112" value="&lt;font face=&quot;Helvetica&quot;&gt;Rotate&amp;nbsp;&lt;/font&gt;&lt;span style=&quot;font-family: Helvetica; background-color: initial;&quot;&gt;CW&lt;/span&gt;" style="rounded=0;whiteSpace=wrap;html=1;sketch=1;hachureGap=4;jiggle=2;curveFitting=1;fontFamily=Architects Daughter;fontSource=https%3A%2F%2Ffonts.googleapis.com%2Fcss%3Ffamily%3DArchitects%2BDaughter;movable=1;resizable=1;rotatable=1;deletable=1;editable=1;locked=0;connectable=1;" vertex="1" parent="1">
          <mxGeometry x="1530" y="370" width="100" height="20" as="geometry" />
        </mxCell>
        <mxCell id="OlI_2qXUzGhfWNakAulT-113" style="edgeStyle=none;rounded=0;sketch=1;hachureGap=4;jiggle=2;curveFitting=1;orthogonalLoop=1;jettySize=auto;html=1;exitX=0.5;exitY=1;exitDx=0;exitDy=0;strokeColor=default;align=center;verticalAlign=middle;fontFamily=Helvetica;fontSource=https%3A%2F%2Ffonts.googleapis.com%2Fcss%3Ffamily%3DArchitects%2BDaughter;fontSize=12;fontColor=default;labelBackgroundColor=default;endArrow=classic;movable=1;resizable=1;rotatable=1;deletable=1;editable=1;locked=0;connectable=1;" edge="1" parent="1" source="OlI_2qXUzGhfWNakAulT-114">
          <mxGeometry relative="1" as="geometry">
            <mxPoint x="1400" y="380" as="targetPoint" />
          </mxGeometry>
        </mxCell>
        <mxCell id="OlI_2qXUzGhfWNakAulT-114" value="Move Up" style="rounded=0;whiteSpace=wrap;html=1;sketch=1;hachureGap=4;jiggle=2;curveFitting=1;fontFamily=Helvetica;movable=1;resizable=1;rotatable=1;deletable=1;editable=1;locked=0;connectable=1;" vertex="1" parent="1">
          <mxGeometry x="1230" y="290" width="100" height="20" as="geometry" />
        </mxCell>
        <mxCell id="OlI_2qXUzGhfWNakAulT-115" style="edgeStyle=none;rounded=0;sketch=1;hachureGap=4;jiggle=2;curveFitting=1;orthogonalLoop=1;jettySize=auto;html=1;strokeColor=default;align=center;verticalAlign=middle;fontFamily=Helvetica;fontSource=https%3A%2F%2Ffonts.googleapis.com%2Fcss%3Ffamily%3DArchitects%2BDaughter;fontSize=12;fontColor=default;labelBackgroundColor=default;endArrow=classic;movable=1;resizable=1;rotatable=1;deletable=1;editable=1;locked=0;connectable=1;" edge="1" parent="1" source="OlI_2qXUzGhfWNakAulT-116">
          <mxGeometry relative="1" as="geometry">
            <mxPoint x="1360" y="490" as="targetPoint" />
          </mxGeometry>
        </mxCell>
        <mxCell id="OlI_2qXUzGhfWNakAulT-116" value="Front View" style="rounded=0;whiteSpace=wrap;html=1;sketch=1;hachureGap=4;jiggle=2;curveFitting=1;fontFamily=Helvetica;movable=1;resizable=1;rotatable=1;deletable=1;editable=1;locked=0;connectable=1;" vertex="1" parent="1">
          <mxGeometry x="1195" y="615" width="100" height="20" as="geometry" />
        </mxCell>
        <mxCell id="OlI_2qXUzGhfWNakAulT-117" style="edgeStyle=none;rounded=0;sketch=1;hachureGap=4;jiggle=2;curveFitting=1;orthogonalLoop=1;jettySize=auto;html=1;strokeColor=default;align=center;verticalAlign=middle;fontFamily=Helvetica;fontSource=https%3A%2F%2Ffonts.googleapis.com%2Fcss%3Ffamily%3DArchitects%2BDaughter;fontSize=12;fontColor=default;labelBackgroundColor=default;endArrow=classic;movable=1;resizable=1;rotatable=1;deletable=1;editable=1;locked=0;connectable=1;" edge="1" parent="1" source="OlI_2qXUzGhfWNakAulT-118">
          <mxGeometry relative="1" as="geometry">
            <mxPoint x="1400" y="500" as="targetPoint" />
          </mxGeometry>
        </mxCell>
        <mxCell id="OlI_2qXUzGhfWNakAulT-118" value="Side View" style="rounded=0;whiteSpace=wrap;html=1;sketch=1;hachureGap=4;jiggle=2;curveFitting=1;fontFamily=Helvetica;movable=1;resizable=1;rotatable=1;deletable=1;editable=1;locked=0;connectable=1;" vertex="1" parent="1">
          <mxGeometry x="1350" y="615" width="100" height="20" as="geometry" />
        </mxCell>
        <mxCell id="OlI_2qXUzGhfWNakAulT-119" style="edgeStyle=none;rounded=0;sketch=1;hachureGap=4;jiggle=2;curveFitting=1;orthogonalLoop=1;jettySize=auto;html=1;strokeColor=default;align=center;verticalAlign=middle;fontFamily=Helvetica;fontSource=https%3A%2F%2Ffonts.googleapis.com%2Fcss%3Ffamily%3DArchitects%2BDaughter;fontSize=12;fontColor=default;labelBackgroundColor=default;endArrow=classic;movable=1;resizable=1;rotatable=1;deletable=1;editable=1;locked=0;connectable=1;" edge="1" parent="1" source="OlI_2qXUzGhfWNakAulT-120">
          <mxGeometry relative="1" as="geometry">
            <mxPoint x="1450" y="490" as="targetPoint" />
            <mxPoint x="1490" y="630" as="sourcePoint" />
          </mxGeometry>
        </mxCell>
        <mxCell id="OlI_2qXUzGhfWNakAulT-120" value="Top View" style="rounded=0;whiteSpace=wrap;html=1;sketch=1;hachureGap=4;jiggle=2;curveFitting=1;fontFamily=Helvetica;movable=1;resizable=1;rotatable=1;deletable=1;editable=1;locked=0;connectable=1;" vertex="1" parent="1">
          <mxGeometry x="1510" y="615" width="100" height="20" as="geometry" />
        </mxCell>
        <mxCell id="OlI_2qXUzGhfWNakAulT-121" style="edgeStyle=none;rounded=0;sketch=1;hachureGap=4;jiggle=2;curveFitting=1;orthogonalLoop=1;jettySize=auto;html=1;strokeColor=default;align=center;verticalAlign=middle;fontFamily=Helvetica;fontSource=https%3A%2F%2Ffonts.googleapis.com%2Fcss%3Ffamily%3DArchitects%2BDaughter;fontSize=12;fontColor=default;labelBackgroundColor=default;endArrow=classic;movable=1;resizable=1;rotatable=1;deletable=1;editable=1;locked=0;connectable=1;" edge="1" parent="1" source="OlI_2qXUzGhfWNakAulT-122">
          <mxGeometry relative="1" as="geometry">
            <mxPoint x="1450" y="340" as="targetPoint" />
          </mxGeometry>
        </mxCell>
        <mxCell id="OlI_2qXUzGhfWNakAulT-122" value="Cycle Axis Lock" style="rounded=0;whiteSpace=wrap;html=1;sketch=1;hachureGap=4;jiggle=2;curveFitting=1;fontFamily=Helvetica;movable=1;resizable=1;rotatable=1;deletable=1;editable=1;locked=0;connectable=1;" vertex="1" parent="1">
          <mxGeometry x="1450" y="260" width="100" height="20" as="geometry" />
        </mxCell>
        <mxCell id="OlI_2qXUzGhfWNakAulT-123" style="edgeStyle=none;rounded=0;sketch=1;hachureGap=4;jiggle=2;curveFitting=1;orthogonalLoop=1;jettySize=auto;html=1;exitX=0;exitY=0.5;exitDx=0;exitDy=0;strokeColor=default;align=center;verticalAlign=middle;fontFamily=Helvetica;fontSource=https%3A%2F%2Ffonts.googleapis.com%2Fcss%3Ffamily%3DArchitects%2BDaughter;fontSize=12;fontColor=default;labelBackgroundColor=default;endArrow=classic;movable=1;resizable=1;rotatable=1;deletable=1;editable=1;locked=0;connectable=1;" edge="1" parent="1" source="OlI_2qXUzGhfWNakAulT-124">
          <mxGeometry relative="1" as="geometry">
            <mxPoint x="1510" y="490" as="targetPoint" />
          </mxGeometry>
        </mxCell>
        <mxCell id="OlI_2qXUzGhfWNakAulT-124" value="Toggle fixed camera" style="rounded=0;whiteSpace=wrap;html=1;sketch=1;hachureGap=4;jiggle=2;curveFitting=1;fontFamily=Helvetica;movable=1;resizable=1;rotatable=1;deletable=1;editable=1;locked=0;connectable=1;" vertex="1" parent="1">
          <mxGeometry x="1534" y="510" width="120" height="20" as="geometry" />
        </mxCell>
        <mxCell id="OlI_2qXUzGhfWNakAulT-125" style="edgeStyle=none;rounded=0;sketch=1;hachureGap=4;jiggle=2;curveFitting=1;orthogonalLoop=1;jettySize=auto;html=1;exitX=1;exitY=0.5;exitDx=0;exitDy=0;strokeColor=default;align=center;verticalAlign=middle;fontFamily=Helvetica;fontSource=https%3A%2F%2Ffonts.googleapis.com%2Fcss%3Ffamily%3DArchitects%2BDaughter;fontSize=12;fontColor=default;labelBackgroundColor=default;endArrow=classic;movable=1;resizable=1;rotatable=1;deletable=1;editable=1;locked=0;connectable=1;" edge="1" parent="1" source="OlI_2qXUzGhfWNakAulT-126">
          <mxGeometry relative="1" as="geometry">
            <mxPoint x="1340" y="430" as="targetPoint" />
          </mxGeometry>
        </mxCell>
        <mxCell id="OlI_2qXUzGhfWNakAulT-126" value="Move Left" style="rounded=0;whiteSpace=wrap;html=1;sketch=1;hachureGap=4;jiggle=2;curveFitting=1;fontFamily=Helvetica;movable=1;resizable=1;rotatable=1;deletable=1;editable=1;locked=0;connectable=1;" vertex="1" parent="1">
          <mxGeometry x="1210" y="433.5" width="100" height="20" as="geometry" />
        </mxCell>
        <mxCell id="OlI_2qXUzGhfWNakAulT-127" style="edgeStyle=none;rounded=0;sketch=1;hachureGap=4;jiggle=2;curveFitting=1;orthogonalLoop=1;jettySize=auto;html=1;exitX=0;exitY=0.5;exitDx=0;exitDy=0;strokeColor=default;align=center;verticalAlign=middle;fontFamily=Helvetica;fontSource=https%3A%2F%2Ffonts.googleapis.com%2Fcss%3Ffamily%3DArchitects%2BDaughter;fontSize=12;fontColor=default;labelBackgroundColor=default;endArrow=classic;movable=1;resizable=1;rotatable=1;deletable=1;editable=1;locked=0;connectable=1;" edge="1" parent="1" source="OlI_2qXUzGhfWNakAulT-128">
          <mxGeometry relative="1" as="geometry">
            <mxPoint x="1450" y="440" as="targetPoint" />
          </mxGeometry>
        </mxCell>
        <mxCell id="OlI_2qXUzGhfWNakAulT-128" value="Move Right" style="rounded=0;whiteSpace=wrap;html=1;sketch=1;hachureGap=4;jiggle=2;curveFitting=1;fontFamily=Helvetica;movable=1;resizable=1;rotatable=1;deletable=1;editable=1;locked=0;connectable=1;" vertex="1" parent="1">
          <mxGeometry x="1536" y="440" width="100" height="20" as="geometry" />
        </mxCell>
        <mxCell id="OlI_2qXUzGhfWNakAulT-129" style="edgeStyle=none;rounded=0;sketch=1;hachureGap=4;jiggle=2;curveFitting=1;orthogonalLoop=1;jettySize=auto;html=1;strokeColor=default;align=center;verticalAlign=middle;fontFamily=Helvetica;fontSource=https%3A%2F%2Ffonts.googleapis.com%2Fcss%3Ffamily%3DArchitects%2BDaughter;fontSize=12;fontColor=default;labelBackgroundColor=default;endArrow=classic;movable=1;resizable=1;rotatable=1;deletable=1;editable=1;locked=0;connectable=1;" edge="1" parent="1" source="OlI_2qXUzGhfWNakAulT-130">
          <mxGeometry relative="1" as="geometry">
            <mxPoint x="1400" y="340" as="targetPoint" />
          </mxGeometry>
        </mxCell>
        <mxCell id="OlI_2qXUzGhfWNakAulT-130" value="Toggle rotation of fixed camera" style="rounded=0;whiteSpace=wrap;html=1;sketch=1;hachureGap=4;jiggle=2;curveFitting=1;fontFamily=Helvetica;movable=1;resizable=1;rotatable=1;deletable=1;editable=1;locked=0;connectable=1;" vertex="1" parent="1">
          <mxGeometry x="1340" y="250" width="100" height="40" as="geometry" />
        </mxCell>
        <mxCell id="OlI_2qXUzGhfWNakAulT-131" style="edgeStyle=none;rounded=0;sketch=1;hachureGap=4;jiggle=2;curveFitting=1;orthogonalLoop=1;jettySize=auto;html=1;strokeColor=default;align=center;verticalAlign=middle;fontFamily=Helvetica;fontSource=https%3A%2F%2Ffonts.googleapis.com%2Fcss%3Ffamily%3DArchitects%2BDaughter;fontSize=12;fontColor=default;labelBackgroundColor=default;endArrow=classic;movable=1;resizable=1;rotatable=1;deletable=1;editable=1;locked=0;connectable=1;" edge="1" parent="1" source="OlI_2qXUzGhfWNakAulT-132">
          <mxGeometry relative="1" as="geometry">
            <mxPoint x="1390" y="440" as="targetPoint" />
          </mxGeometry>
        </mxCell>
        <mxCell id="OlI_2qXUzGhfWNakAulT-132" value="Move Down" style="rounded=0;whiteSpace=wrap;html=1;sketch=1;hachureGap=4;jiggle=2;curveFitting=1;fontFamily=Helvetica;movable=1;resizable=1;rotatable=1;deletable=1;editable=1;locked=0;connectable=1;" vertex="1" parent="1">
          <mxGeometry x="1210" y="490" width="100" height="20" as="geometry" />
        </mxCell>
        <mxCell id="OlI_2qXUzGhfWNakAulT-133" style="edgeStyle=none;rounded=0;sketch=1;hachureGap=4;jiggle=2;curveFitting=1;orthogonalLoop=1;jettySize=auto;html=1;strokeColor=default;align=center;verticalAlign=middle;fontFamily=Helvetica;fontSource=https%3A%2F%2Ffonts.googleapis.com%2Fcss%3Ffamily%3DArchitects%2BDaughter;fontSize=12;fontColor=default;labelBackgroundColor=default;endArrow=classic;movable=1;resizable=1;rotatable=1;deletable=1;editable=1;locked=0;connectable=1;" edge="1" parent="1" source="OlI_2qXUzGhfWNakAulT-134">
          <mxGeometry relative="1" as="geometry">
            <mxPoint x="1380" y="540" as="targetPoint" />
          </mxGeometry>
        </mxCell>
        <mxCell id="OlI_2qXUzGhfWNakAulT-134" value="Reduce precision amount" style="rounded=0;whiteSpace=wrap;html=1;sketch=1;hachureGap=4;jiggle=2;curveFitting=1;fontFamily=Helvetica;movable=1;resizable=1;rotatable=1;deletable=1;editable=1;locked=0;connectable=1;" vertex="1" parent="1">
          <mxGeometry x="1290" y="577" width="100" height="30" as="geometry" />
        </mxCell>
        <mxCell id="OlI_2qXUzGhfWNakAulT-135" style="edgeStyle=none;rounded=0;sketch=1;hachureGap=4;jiggle=2;curveFitting=1;orthogonalLoop=1;jettySize=auto;html=1;strokeColor=default;align=center;verticalAlign=middle;fontFamily=Helvetica;fontSource=https%3A%2F%2Ffonts.googleapis.com%2Fcss%3Ffamily%3DArchitects%2BDaughter;fontSize=12;fontColor=default;labelBackgroundColor=default;endArrow=classic;movable=1;resizable=1;rotatable=1;deletable=1;editable=1;locked=0;connectable=1;" edge="1" parent="1" source="OlI_2qXUzGhfWNakAulT-136">
          <mxGeometry relative="1" as="geometry">
            <mxPoint x="1450" y="550" as="targetPoint" />
          </mxGeometry>
        </mxCell>
        <mxCell id="OlI_2qXUzGhfWNakAulT-136" value="Raise precision amount" style="rounded=0;whiteSpace=wrap;html=1;sketch=1;hachureGap=4;jiggle=2;curveFitting=1;fontFamily=Helvetica;movable=1;resizable=1;rotatable=1;deletable=1;editable=1;locked=0;connectable=1;" vertex="1" parent="1">
          <mxGeometry x="1410" y="577" width="100" height="30" as="geometry" />
        </mxCell>
        <mxCell id="OlI_2qXUzGhfWNakAulT-137" style="edgeStyle=none;rounded=0;sketch=1;hachureGap=4;jiggle=2;curveFitting=1;orthogonalLoop=1;jettySize=auto;html=1;strokeColor=default;align=center;verticalAlign=middle;fontFamily=Helvetica;fontSource=https%3A%2F%2Ffonts.googleapis.com%2Fcss%3Ffamily%3DArchitects%2BDaughter;fontSize=12;fontColor=default;labelBackgroundColor=default;endArrow=classic;movable=1;resizable=1;rotatable=1;deletable=1;editable=1;locked=0;connectable=1;" edge="1" parent="1" source="OlI_2qXUzGhfWNakAulT-138">
          <mxGeometry relative="1" as="geometry">
            <mxPoint x="1500" y="340" as="targetPoint" />
          </mxGeometry>
        </mxCell>
        <mxCell id="OlI_2qXUzGhfWNakAulT-138" value="Previous item/text" style="rounded=0;whiteSpace=wrap;html=1;sketch=1;hachureGap=4;jiggle=2;curveFitting=1;fontFamily=Helvetica;movable=1;resizable=1;rotatable=1;deletable=1;editable=1;locked=0;connectable=1;" vertex="1" parent="1">
          <mxGeometry x="1550" y="310" width="90" height="30" as="geometry" />
        </mxCell>
        <mxCell id="OlI_2qXUzGhfWNakAulT-139" style="edgeStyle=none;rounded=0;sketch=1;hachureGap=4;jiggle=2;curveFitting=1;orthogonalLoop=1;jettySize=auto;html=1;strokeColor=default;align=center;verticalAlign=middle;fontFamily=Helvetica;fontSource=https%3A%2F%2Ffonts.googleapis.com%2Fcss%3Ffamily%3DArchitects%2BDaughter;fontSize=12;fontColor=default;labelBackgroundColor=default;endArrow=classic;movable=1;resizable=1;rotatable=1;deletable=1;editable=1;locked=0;connectable=1;" edge="1" parent="1" source="OlI_2qXUzGhfWNakAulT-140">
          <mxGeometry relative="1" as="geometry">
            <mxPoint x="1500" y="420" as="targetPoint" />
          </mxGeometry>
        </mxCell>
        <mxCell id="OlI_2qXUzGhfWNakAulT-140" value="Next item/text" style="rounded=0;whiteSpace=wrap;html=1;sketch=1;hachureGap=4;jiggle=2;curveFitting=1;fontFamily=Helvetica;movable=1;resizable=1;rotatable=1;deletable=1;editable=1;locked=0;connectable=1;" vertex="1" parent="1">
          <mxGeometry x="1570" y="400" width="70" height="30" as="geometry" />
        </mxCell>
        <mxCell id="OlI_2qXUzGhfWNakAulT-141" style="edgeStyle=none;rounded=0;sketch=1;hachureGap=4;jiggle=2;curveFitting=1;orthogonalLoop=1;jettySize=auto;html=1;exitX=0;exitY=0.75;exitDx=0;exitDy=0;strokeColor=default;align=center;verticalAlign=middle;fontFamily=Helvetica;fontSource=https%3A%2F%2Ffonts.googleapis.com%2Fcss%3Ffamily%3DArchitects%2BDaughter;fontSize=12;fontColor=default;labelBackgroundColor=default;endArrow=classic;movable=1;resizable=1;rotatable=1;deletable=1;editable=1;locked=0;connectable=1;" edge="1" parent="1" source="OlI_2qXUzGhfWNakAulT-122" target="OlI_2qXUzGhfWNakAulT-122">
          <mxGeometry relative="1" as="geometry" />
        </mxCell>
      </root>
    </mxGraphModel>
  </diagram>
</mxfile>
